<svg width="32" height="32" xmlns="http://www.w3.org/2000/svg"><path d="M18.176 15.942l2.008-2.008 2.007 2.008-2.007 2.007-2.008-2.007zm-8.51-8.55l2.007-2.007 2.008 2.007L11.673 9.4 9.666 7.392zM25.38 19.257a9.361 9.361 0 0 1-3.778 6.7v-5.412l4.603-4.603-6.022-6.023-6.023 6.023 4.603 4.603v6.836a9.472 9.472 0 0 1-5.671-.06V11.995l4.603-4.603-6.023-6.022-6.022 6.022 4.603 4.603v13.818a9.472 9.472 0 0 1-.882-.775c-2.748-2.748-3.436-6.787-2.066-10.183l-2.132-2.133c-2.406 4.614-1.675 10.45 2.194 14.32a12.156 12.156 0 0 0 8.654 3.584c3.269 0 6.342-1.273 8.654-3.585a12.182 12.182 0 0 0 3.544-7.784h-2.839z" fill="#FFAE1A" fill-rule="evenodd"/></svg>