<svg width="106" height="34" xmlns="http://www.w3.org/2000/svg"><g fill="none" fill-rule="evenodd"><path d="M38.294 28.703V15.886h2.171v12.817h-2.17zm4.413-9.268h2.087v.876c.501-.584 1.42-1.085 2.505-1.085 2.108 0 3.277 1.398 3.277 3.444v6.033H48.49v-5.678c0-1.148-.564-1.9-1.753-1.9-.898 0-1.712.564-1.942 1.483v6.095h-2.087v-9.268zm11.35 6.596c.229.772.918 1.17 1.836 1.17.96 0 1.587-.377 1.587-1.107 0-.502-.313-.773-1.086-.96l-1.92-.46c-1.315-.313-2.297-1.023-2.297-2.546 0-1.67 1.483-2.902 3.508-2.902 2.17 0 3.402 1.044 3.715 2.734h-2.045c-.188-.605-.731-1.022-1.691-1.022-.73 0-1.483.334-1.483 1.064 0 .418.293.689.96.856l1.963.46c1.587.375 2.38 1.273 2.38 2.63 0 1.836-1.524 2.964-3.612 2.964-2.17 0-3.673-1.086-3.945-2.881h2.13zm7.007 2.672v-9.268h2.087v9.268h-2.087zm1.043-10.792c-.689 0-1.294-.564-1.294-1.274 0-.709.605-1.273 1.294-1.273.69 0 1.295.564 1.295 1.273 0 .71-.606 1.274-1.295 1.274zm9.137 4.258c-.355-.626-1.127-1.106-2.004-1.106-1.607 0-2.526 1.21-2.526 2.86 0 1.649.919 2.86 2.526 2.86.877 0 1.65-.48 2.004-1.107v-3.507zm0 5.49c-.417.501-1.315.96-2.359.96-2.734 0-4.3-2.254-4.3-4.696 0-2.443 1.566-4.697 4.3-4.697 1.044 0 1.942.46 2.359.96v-.751h2.087v8.496c0 3.13-1.899 4.529-4.362 4.529-2.36 0-3.883-1.232-4.112-3.256h2.024c.21 1.023.94 1.544 2.088 1.544 1.544 0 2.275-.939 2.275-2.672v-.417zm4.158-12.524h2.088v5.176c.5-.584 1.42-1.085 2.505-1.085 2.108 0 3.277 1.399 3.277 3.444v6.033h-2.088v-5.678c0-1.148-.563-1.9-1.753-1.9-.898 0-1.712.564-1.941 1.483v6.095h-2.088V15.135zm10.306 6.032h-1.461v-1.732h1.461V16.95h2.087v2.484h2.088v1.732h-2.088v4.801c0 .752.418 1.086 1.107 1.086.417 0 .897-.167 1.19-.376v1.9c-.355.208-.919.334-1.566.334-1.65 0-2.818-.877-2.818-2.714v-5.03zm7.519 4.864c.23.772.918 1.17 1.837 1.17.96 0 1.586-.377 1.586-1.107 0-.502-.313-.773-1.085-.96l-1.92-.46c-1.316-.313-2.297-1.023-2.297-2.546 0-1.67 1.482-2.902 3.507-2.902 2.17 0 3.402 1.044 3.715 2.734h-2.045c-.188-.605-.73-1.022-1.69-1.022-.731 0-1.483.334-1.483 1.064 0 .418.292.689.96.856l1.962.46c1.587.375 2.38 1.273 2.38 2.63 0 1.836-1.524 2.964-3.611 2.964-2.171 0-3.674-1.086-3.945-2.881h2.129zm6.44 1.572h.917v.165h-.366v.936h-.186v-.936h-.366v-.165zm1.583 1.1l-.302-.765v.766h-.178v-1.1h.214l.334.845.332-.846h.208v1.1h-.18v-.765l-.295.766h-.133zM18.156 15.935l2.008-2.007 2.007 2.007-2.007 2.008-2.008-2.008zm-8.51-8.549l2.007-2.007 2.008 2.007-2.008 2.008-2.007-2.008zM25.36 19.251a9.361 9.361 0 0 1-3.778 6.7v-5.413l4.603-4.603-6.022-6.022-6.023 6.022 4.603 4.603v6.837a9.472 9.472 0 0 1-5.671-.06V11.988l4.603-4.603-6.023-6.022-6.022 6.022 4.603 4.603v13.818a9.472 9.472 0 0 1-.882-.775c-2.748-2.748-3.436-6.787-2.065-10.183l-2.133-2.133c-2.406 4.614-1.675 10.45 2.194 14.32a12.156 12.156 0 0 0 8.654 3.584c3.269 0 6.342-1.273 8.654-3.585a12.182 12.182 0 0 0 3.544-7.784h-2.839z" fill="#FFAE1A"/><path d="M41.271 8.724c.96 0 1.532-.773 1.532-1.789 0-1.03-.573-1.804-1.532-1.804-.53 0-.987.315-1.202.745V7.98c.215.444.687.744 1.202.744zm.401-5.138c1.86 0 2.92 1.545 2.92 3.35 0 1.802-1.06 3.334-2.92 3.334-.687 0-1.317-.33-1.603-.673v2.892h-1.775v-8.76h1.775v.53c.286-.344.916-.673 1.603-.673zm7.572 4.208V3.729h1.79v6.398h-1.775V9.54c-.358.4-.974.73-1.718.73-1.432 0-2.247-.945-2.247-2.362v-4.18h1.775v3.823c0 .672.329 1.13 1.03 1.13.544 0 1.017-.329 1.145-.887zm5.94.93c.96 0 1.532-.773 1.532-1.789 0-1.03-.572-1.804-1.531-1.804-.53 0-.988.315-1.203.745V7.98c.215.444.687.744 1.203.744zm.401-5.138c1.861 0 2.92 1.545 2.92 3.35 0 1.802-1.059 3.334-2.92 3.334-.686 0-1.316-.33-1.603-.673v2.892h-1.775v-8.76h1.775v.53c.287-.344.917-.673 1.603-.673zm6.671 5.138c.96 0 1.532-.773 1.532-1.789 0-1.03-.573-1.804-1.532-1.804-.53 0-.988.315-1.202.745V7.98c.214.444.687.744 1.202.744zm.4-5.138c1.861 0 2.92 1.545 2.92 3.35 0 1.802-1.059 3.334-2.92 3.334-.686 0-1.316-.33-1.602-.673v2.892h-1.775v-8.76h1.775v.53c.286-.344.916-.673 1.603-.673zm5.11 2.648h2.477c-.014-.673-.415-1.203-1.145-1.203-.687 0-1.174.416-1.331 1.203zm1.318-2.648c1.875 0 2.905 1.302 2.905 3.177v.544h-4.265c.057.96.601 1.532 1.388 1.532.602 0 1.045-.258 1.188-.802h1.647c-.23 1.36-1.231 2.233-2.835 2.233-1.86 0-3.106-1.36-3.106-3.335 0-1.932 1.289-3.35 3.078-3.35zm6.57 5.11c.272 0 .573-.086.773-.215v1.574c-.243.13-.673.2-1.145.2-1.303 0-2.119-.643-2.119-2.06V5.16h-.973V3.73h.973V1.997h1.76v1.732h1.404V5.16h-1.403v2.806c0 .5.272.73.73.73z" fill="#090A0A"/></g></svg>