<svg width="32" height="32" xmlns="http://www.w3.org/2000/svg"><path d="M12.037 5.965l10.037 10.037-10.037 10.036-2.008-2.007L18.06 16l-8.03-8.029 2.008-2.007zm2.007 10.037l-2.007 2.007-2.008-2.007 2.008-2.008 2.007 2.008zm-6.022 2.007l2.007 2.007-2.007 2.008-2.008-2.008-2.007-2.007L2 16l2.007-2.007 2.007-2.007 2.008-2.008 2.007 2.008-2.007 2.007L6.014 16l2.008 2.008zm8.03-16.059l14.05 14.052-14.05 14.051-2.008-2.007 12.044-12.044L14.044 3.957 16.05 1.95z" fill="#FFAE1A" fill-rule="evenodd"/></svg>