<?xml version="1.0" encoding="UTF-8"?>
<svg width="32px" height="32px" viewBox="0 0 32 32" version="1.1" xmlns="http://www.w3.org/2000/svg" xmlns:xlink="http://www.w3.org/1999/xlink">
    <title>Artboard</title>
    <desc>Created with Sketch.</desc>
    <g id="Artboard" stroke="none" stroke-width="1" fill="none" fill-rule="evenodd">
        <g id="Logo/Puppet/Puppet-Mark" transform="translate(2.000000, 2.000000)" fill="#FFAE1A">
            <path d="M8.56344264,23.8115574 L11.0018853,23.8115574 L11.0018853,21.3729542 L8.56344264,21.3729542 L8.56344264,23.8115574 Z M8.56360316,6.62688528 L11.0018853,6.62688528 L11.0018853,4.18860316 L8.56360316,4.18860316 L8.56360316,6.62688528 Z M22.0362756,17.6577442 L22.0362756,10.3422558 L16.4415498,10.3422558 L16.4433155,10.3404901 L13.4404884,7.33766298 L13.4404884,1.75 L6.125,1.75 L6.125,9.06548844 L11.7197258,9.06548844 L14.7190215,12.0647841 L14.7207872,12.0630184 L14.7207872,15.9369816 L14.7172558,15.9334502 L11.7161944,18.9345116 L6.125,18.9345116 L6.125,26.25 L13.4404884,26.25 L13.4404884,20.6588056 L16.4415498,17.6577442 L22.0362756,17.6577442 L22.0362756,17.6577442 Z" id="Fill-1"></path>
        </g>
    </g>
</svg>
