<svg width="157" height="34" xmlns="http://www.w3.org/2000/svg"><g fill="none" fill-rule="evenodd"><text font-family="Calibre-Medium, Calibre" font-size="21" font-weight="400" letter-spacing="-.52" fill="#FFAE1A"><tspan x="37" y="28.7">Product</tspan></text><path d="M10.563 25.812h2.439v-2.439h-2.439v2.439zm0-17.185h2.439V6.189h-2.438v2.438zm13.473 11.03v-7.315h-5.594l.001-.002-3.003-3.002V3.75H8.125v7.315h5.595l2.999 3 .002-.002v3.874l-.004-.004-3 3.002H8.124v7.315h7.315v-5.591l3.002-3.001h5.594z" fill="#FFAE1A"/><path d="M41.271 8.727c.96 0 1.532-.772 1.532-1.789 0-1.03-.573-1.803-1.532-1.803-.53 0-.987.314-1.202.744v2.104c.215.444.687.744 1.202.744zm.401-5.138c1.86 0 2.92 1.546 2.92 3.35 0 1.802-1.06 3.334-2.92 3.334-.687 0-1.317-.329-1.603-.673v2.892h-1.775v-8.76h1.775v.53c.286-.344.916-.673 1.603-.673zm7.572 4.208V3.732h1.79v6.398h-1.775v-.587c-.358.4-.974.73-1.718.73-1.432 0-2.247-.944-2.247-2.362v-4.18h1.775v3.823c0 .672.329 1.13 1.03 1.13.544 0 1.017-.329 1.145-.887zm5.94.93c.96 0 1.532-.772 1.532-1.789 0-1.03-.572-1.803-1.531-1.803-.53 0-.988.314-1.203.744v2.104c.215.444.687.744 1.203.744zm.401-5.138c1.861 0 2.92 1.546 2.92 3.35 0 1.802-1.059 3.334-2.92 3.334-.686 0-1.316-.329-1.603-.673v2.892h-1.775v-8.76h1.775v.53c.287-.344.917-.673 1.603-.673zm6.671 5.138c.96 0 1.532-.772 1.532-1.789 0-1.03-.573-1.803-1.532-1.803-.53 0-.988.314-1.202.744v2.104c.214.444.687.744 1.202.744zm.4-5.138c1.861 0 2.92 1.546 2.92 3.35 0 1.802-1.059 3.334-2.92 3.334-.686 0-1.316-.329-1.602-.673v2.892h-1.775v-8.76h1.775v.53c.286-.344.916-.673 1.603-.673zm5.11 2.648h2.477c-.014-.673-.415-1.203-1.145-1.203-.687 0-1.174.416-1.331 1.203zm1.318-2.648c1.875 0 2.905 1.302 2.905 3.177v.544h-4.265c.057.96.601 1.532 1.388 1.532.602 0 1.045-.258 1.188-.802h1.647c-.23 1.36-1.231 2.233-2.835 2.233-1.86 0-3.106-1.36-3.106-3.335 0-1.932 1.289-3.35 3.078-3.35zm6.57 5.11c.272 0 .573-.086.773-.215v1.575c-.243.128-.673.2-1.145.2-1.303 0-2.119-.644-2.119-2.061V5.163h-.973V3.732h.973V2h1.76v1.732h1.404v1.431h-1.403V7.97c0 .5.272.73.73.73z" fill="#090A0A"/></g></svg>