<?xml version="1.0" encoding="UTF-8"?>
<svg width="7572px" height="404px" viewBox="0 0 7572 404" version="1.1" xmlns="http://www.w3.org/2000/svg" xmlns:xlink="http://www.w3.org/1999/xlink">
    <!-- Generator: Sketch 55.2 (78181) - https://sketchapp.com -->
    <title>Hero graphic</title>
    <desc>Created with Sketch.</desc>
    <defs>
        <polygon id="path-1" points="0 1.60371716e-13 7572 2.85105273e-13 0 321"></polygon>
        <filter x="-4.1%" y="-70.4%" width="108.2%" height="240.8%" filterUnits="objectBoundingBox" id="filter-3">
            <feGaussianBlur stdDeviation="50" in="SourceGraphic"></feGaussianBlur>
        </filter>
        <polygon id="path-4" points="0 7.10542736e-15 93 7.10542736e-15 93 37.8414291 0 41.877246"></polygon>
        <polygon id="path-6" points="0 -1.97034897e-13 176 -1.97034897e-13 176 118.257038 0 125.675187"></polygon>
        <circle id="path-8" cx="26.5" cy="26.5" r="26"></circle>
    </defs>
    <g id="Hero-graphic" stroke="none" stroke-width="1" fill="none" fill-rule="evenodd">
        <g id="Group">
            <g id="Rectangle-Copy-9">
                <mask id="mask-2" fill="white">
                    <use xlink:href="#path-1"></use>
                </mask>
                <use id="Mask" fill="#FFD86E" xlink:href="#path-1"></use>
                <polygon fill-opacity="0.25" fill="#FFAE1A" filter="url(#filter-3)" mask="url(#mask-2)" points="0 203.366153 3640 108 3640 193.076517 0 321"></polygon>
            </g>
            <g id="Oval-Copy-8" transform="translate(3547.000000, 132.000000)">
                <mask id="mask-5" fill="white">
                    <use xlink:href="#path-4"></use>
                </mask>
                <g id="Mask" opacity="0"></g>
                <circle fill="#FFFFFF" fill-rule="nonzero" opacity="0.2" mask="url(#mask-5)" cx="56" cy="29" r="25"></circle>
            </g>
            <circle id="Oval-Copy" fill="#FFFFFF" fill-rule="nonzero" opacity="0.2" cx="1303" cy="173" r="76"></circle>
            <rect id="Rectangle-Copy-2" fill="#FFFFFF" opacity="0.2" x="0" y="0" width="234" height="274"></rect>
            <rect id="Rectangle-Copy-6" fill="#FFFFFF" opacity="0.2" x="1491" y="0" width="234" height="189"></rect>
            <circle id="Oval" fill="#FFFFFF" fill-rule="nonzero" opacity="0.2" cx="820" cy="91" r="25"></circle>
            <circle id="Oval-Copy-2" fill="#FFFFFF" fill-rule="nonzero" opacity="0.2" cx="2543" cy="119" r="25"></circle>
            <rect id="Rectangle-Copy" fill="#FFFFFF" opacity="0.2" x="602" y="42" width="220" height="49"></rect>
            <rect id="Rectangle-Copy-10" fill="#FFFFFF" opacity="0.2" x="2325" y="24" width="220" height="91"></rect>
            <path id="Line-2" d="M2609.5,38.51988 L2603.30736,49.5290119 C2602.90122,50.2510487 2601.98664,50.5071291 2601.26461,50.1009834 C2600.54257,49.6948377 2600.28649,48.780265 2600.69264,48.0582282 L2609.69264,32.0582282 C2610.26609,31.0387507 2611.73391,31.0387507 2612.30736,32.0582282 L2621.30736,48.0582282 C2621.71351,48.780265 2621.45743,49.6948377 2620.73539,50.1009834 C2620.01336,50.5071291 2619.09878,50.2510487 2618.69264,49.5290119 L2612.5,38.51988 L2612.5,208.5 C2612.5,209.328427 2611.82843,210 2611,210 C2610.17157,210 2609.5,209.328427 2609.5,208.5 L2609.5,38.51988 Z" fill="#FFAE1A" fill-rule="nonzero" opacity="0.25" style="mix-blend-mode: multiply;"></path>
            <polygon id="Rectangle-Copy-5" fill="#FFFFFF" opacity="0.2" points="999 160.5 1136 160.5 1136 274.275661 999 279.767442"></polygon>
            <polygon id="Rectangle-Copy-7" fill="#FFFFFF" opacity="0.2" points="2771 144.75 2908 144.75 2908 200.75 2771 206.241781"></polygon>
            <g id="Oval-Copy-5" transform="translate(2987.000000, 71.241781)">
                <g transform="translate(0.000000, -0.000000)">
                    <mask id="mask-7" fill="white">
                        <use xlink:href="#path-6"></use>
                    </mask>
                    <g id="Mask" opacity="0.2"></g>
                    <circle fill="#FFFFFF" fill-rule="nonzero" opacity="0.2" mask="url(#mask-7)" cx="88" cy="86.0082186" r="76"></circle>
                </g>
            </g>
            <rect id="Rectangle" fill="#FFFFFF" opacity="0.2" x="268" y="0" width="214" height="42"></rect>
            <rect id="Rectangle-Copy-11" fill="#FFFFFF" opacity="0.2" x="2061" y="24" width="202" height="42"></rect>
            <path id="Path-2" d="M2242.48556,47.1135997 L2252.57609,54.711686 C2253.23788,55.2100085 2253.3704,56.1504656 2252.87207,56.8122557 C2252.37375,57.4740459 2251.43329,57.6065626 2250.7715,57.1082401 L2236.10654,46.0656454 C2235.17213,45.3620406 2235.36681,43.9071938 2236.45334,43.4740189 L2253.50567,36.6756363 C2254.27519,36.3688437 2255.14772,36.7439629 2255.45452,37.5134886 C2255.76131,38.2830142 2255.38619,39.1555426 2254.61666,39.4623353 L2242.88345,44.1401034 L2252.93927,45.4857105 L2253.04314,45.503343 C2285.6523,52.2248506 2303.87298,73.4451073 2307.49222,108.847447 C2307.57647,109.671579 2306.97668,110.40797 2306.15255,110.492222 C2305.32842,110.576475 2304.59203,109.976684 2304.50778,109.152553 C2301.02064,75.0424309 2283.75189,54.9143579 2252.48892,48.4521879 L2242.48556,47.1135997 Z M2252.48892,48.4521879 C2252.47179,48.4486459 2252.45465,48.445108 2252.4375,48.4415742 L2252.54137,48.4592067 L2252.48892,48.4521879 Z" fill="#FFAE1A" fill-rule="nonzero" opacity="0.25" style="mix-blend-mode: multiply;"></path>
            <rect id="Rectangle-Copy-15" fill="#FFFFFF" opacity="0.2" x="3323.5" y="28" width="239" height="27"></rect>
            <g id="Group-8" transform="translate(872.000000, 246.000000)" fill-rule="nonzero">
                <path d="M13.5,0 L51.5,0 C58.9558441,-1.36961635e-15 65,6.04415588 65,13.5 C65,20.9558441 58.9558441,27 51.5,27 L13.5,27 C6.04415588,27 9.13077564e-16,20.9558441 0,13.5 C-9.13077564e-16,6.04415588 6.04415588,1.36961635e-15 13.5,0 Z" id="Rectangle-6" fill="#FFFFFF" opacity="0.25"></path>
                <path d="M52,24 C57.5228475,24 62,19.2989899 62,13.5 C62,7.70101013 57.5228475,3 52,3 C46.4771525,3 42,7.70101013 42,13.5 C42,19.2989899 46.4771525,24 52,24 Z" id="Oval-2" fill="#FFD86E"></path>
            </g>
            <rect id="Rectangle-Copy-3" fill="#FFFFFF" opacity="0.2" x="966" y="46" width="397" height="29"></rect>
            <rect id="Rectangle-Copy-13" fill="#FFFFFF" opacity="0.2" x="2738" y="30.25" width="397" height="29"></rect>
            <rect id="Rectangle-Copy-4" fill="#FFFFFF" opacity="0.2" x="966" y="46" width="33" height="29"></rect>
            <rect id="Rectangle-Copy-14" fill="#FFFFFF" opacity="0.2" x="2738" y="30.25" width="33" height="29"></rect>
            <polygon id="Rectangle" fill="#FFFFFF" opacity="0.2" points="268 222 550 222 550 298.532829 268 310.381049"></polygon>
            <polygon id="Rectangle-Copy-12" fill="#FFFFFF" opacity="0.2" points="1980.5 100 2262.5 100 2262.5 226.532829 1980.5 238.381049"></polygon>
            <polygon id="Rectangle-Copy-16" fill="#FFFFFF" opacity="0.2" points="3198 82.25 3525 82.25 3525 175.495891 3198 188.303018"></polygon>
            <path id="Path-3" d="M3158.84782,35.956246 L3155.89732,48.238115 C3155.70381,49.0436246 3154.89395,49.5397491 3154.08844,49.3462401 C3153.28293,49.152731 3152.78681,48.3428663 3152.98031,47.5373567 L3157.26839,29.6876383 C3157.54161,28.5503016 3158.95362,28.1494257 3159.78371,28.9735282 L3172.81132,41.9072526 C3173.39922,42.4909167 3173.40266,43.4406579 3172.81899,44.0285591 C3172.23533,44.6164602 3171.28559,44.619895 3170.69769,44.036231 L3161.73353,35.1366754 L3164.52077,44.9555547 C3179.48009,92.7968871 3201.97973,116.5 3232,116.5 C3232.82843,116.5 3233.5,117.171573 3233.5,118 C3233.5,118.828427 3232.82843,119.5 3232,119.5 C3200.40577,119.5 3176.96483,94.8052527 3161.64616,45.8128758 L3158.84782,35.956246 Z" fill="#FFAE1A" fill-rule="nonzero" opacity="0.25" style="mix-blend-mode: multiply;"></path>
            <rect id="Rectangle-3-Copy-4" fill="#FFFFFF" fill-rule="nonzero" opacity="0.25" x="449" y="252" width="72" height="16" rx="8"></rect>
            <rect id="Rectangle-3-Copy-10" fill="#FFFFFF" fill-rule="nonzero" opacity="0.25" x="1999" y="113" width="72" height="16" rx="8"></rect>
            <rect id="Rectangle-3-Copy-11" fill="#FFFFFF" fill-rule="nonzero" opacity="0.25" x="3244" y="110" width="72" height="16" rx="8"></rect>
            <rect id="Rectangle-3-Copy-15" fill="#FFFFFF" fill-rule="nonzero" opacity="0.25" x="3328" y="110" width="47" height="16" rx="8"></rect>
            <rect id="Rectangle-3-Copy-6" fill="#FFFFFF" fill-rule="nonzero" opacity="0.25" x="1000" y="97" width="72" height="16" rx="8"></rect>
            <rect id="Rectangle-3-Copy-12" fill="#FFFFFF" fill-rule="nonzero" opacity="0.25" x="2772" y="81.25" width="72" height="16" rx="8"></rect>
            <rect id="Rectangle-3-Copy-5" fill="#FFFFFF" fill-rule="nonzero" opacity="0.25" x="533" y="252" width="52" height="16" rx="8"></rect>
            <rect id="Rectangle-3-Copy-7" fill="#FFFFFF" fill-rule="nonzero" opacity="0.25" x="1084" y="97" width="52" height="16" rx="8"></rect>
            <rect id="Rectangle-3-Copy-13" fill="#FFFFFF" fill-rule="nonzero" opacity="0.25" x="2856" y="81.25" width="52" height="16" rx="8"></rect>
            <rect id="Rectangle-3-Copy-3" fill="#FFFFFF" fill-rule="nonzero" opacity="0.25" x="720" y="252" width="126" height="16" rx="8"></rect>
            <rect id="Rectangle-3-Copy-8" fill="#FFFFFF" fill-rule="nonzero" opacity="0.25" x="1597" y="206" width="128" height="16" rx="8"></rect>
            <rect id="Rectangle-3-Copy-9" fill="#FFFFFF" fill-rule="nonzero" opacity="0.25" x="1405" y="206" width="86" height="16" rx="8"></rect>
            <rect id="Rectangle-3-Copy-14" fill="#FFFFFF" fill-rule="nonzero" opacity="0.25" x="1501" y="206" width="86" height="16" rx="8"></rect>
            <rect id="Rectangle-4-Copy" fill="#FFD86E" fill-rule="nonzero" x="34" y="24" width="33" height="33"></rect>
            <rect id="Rectangle-4-Copy-13" fill="#FFFFFF" fill-rule="nonzero" opacity="0.2" x="1807" y="24" width="76" height="76"></rect>
            <path id="Path-3" d="M1863.2032,135.954417 L1861.13997,148.41607 C1861.00465,149.233371 1860.2324,149.786227 1859.4151,149.65091 C1858.5978,149.515592 1858.04494,148.743342 1858.18026,147.926041 L1861.17883,129.815035 C1861.3699,128.66105 1862.74957,128.160069 1863.63655,128.9226 L1877.55708,140.890007 C1878.18528,141.430064 1878.25673,142.377119 1877.71667,143.005315 C1877.17661,143.633511 1876.22956,143.704962 1875.60136,143.164906 L1866.0226,134.930093 L1869.47199,144.431354 C1886.47086,186.578918 1911.93897,207.5 1946,207.5 C1946.82843,207.5 1947.5,208.171573 1947.5,209 C1947.5,209.828427 1946.82843,210.5 1946,210.5 C1910.5894,210.5 1884.11143,188.74936 1866.67095,145.504384 L1863.2032,135.954417 Z" fill="#FFAE1A" fill-rule="nonzero" opacity="0.25" style="mix-blend-mode: multiply;"></path>
            <rect id="Rectangle-4-Copy-2" fill="#FFD86E" fill-rule="nonzero" x="33" y="245" width="19" height="19"></rect>
            <rect id="Rectangle-4-Copy-3" fill="#FFFFFF" fill-rule="nonzero" opacity="0.25" x="33" y="284" width="19" height="19"></rect>
            <rect id="Rectangle-4-Copy-15" fill="#FFFFFF" fill-rule="nonzero" opacity="0.25" x="1806" y="188" width="19" height="19"></rect>
            <rect id="Rectangle-4-Copy-17" fill="#FFFFFF" fill-rule="nonzero" opacity="0.25" x="1806" y="131" width="19" height="19"></rect>
            <rect id="Rectangle-4-Copy-4" fill="#FFFFFF" fill-rule="nonzero" opacity="0.25" x="1344" y="98" width="19" height="19"></rect>
            <rect id="Rectangle-4-Copy-14" fill="#FFFFFF" fill-rule="nonzero" opacity="0.25" x="3116" y="82.25" width="19" height="19"></rect>
            <rect id="Rectangle-4-Copy-5" fill="#FFFFFF" fill-rule="nonzero" opacity="0.25" x="1344" y="148" width="19" height="19"></rect>
            <rect id="Rectangle-4-Copy-19" fill="#FFFFFF" fill-rule="nonzero" opacity="0.25" x="3116" y="132.25" width="19" height="19"></rect>
            <rect id="Rectangle-4-Copy-8" fill="#FFFFFF" fill-rule="nonzero" opacity="0.25" x="1344" y="206" width="19" height="19"></rect>
            <rect id="Rectangle-4-Copy-10" fill="#FFD86E" fill-rule="nonzero" transform="translate(1667.367188, 35.781250) rotate(-90.000000) translate(-1667.367188, -35.781250) " x="1657.86719" y="26.28125" width="19" height="19"></rect>
            <rect id="Rectangle-4-Copy-6" fill="#FFFFFF" fill-rule="nonzero" opacity="0.25" x="1344" y="177" width="19" height="19"></rect>
            <rect id="Rectangle-4-Copy-21" fill="#FFFFFF" fill-rule="nonzero" opacity="0.25" x="3116" y="161.25" width="19" height="19"></rect>
            <rect id="Rectangle-4-Copy-11" fill="#FFD86E" fill-rule="nonzero" transform="translate(1638.367188, 35.781250) rotate(-90.000000) translate(-1638.367188, -35.781250) " x="1628.86719" y="26.28125" width="19" height="19"></rect>
            <rect id="Rectangle-4-Copy-12" fill="#FFD86E" fill-rule="nonzero" transform="translate(1696.367188, 35.781250) rotate(-90.000000) translate(-1696.367188, -35.781250) " x="1686.86719" y="26.28125" width="19" height="19"></rect>
            <polygon id="Rectangle-4-Copy-7" fill="#FFFFFF" fill-rule="nonzero" opacity="0.25" points="33 313 52 313 52 318.795745 33 319.69402"></polygon>
            <polygon id="Rectangle-4-Copy-16" fill="#FFFFFF" fill-rule="nonzero" opacity="0.25" points="1806 217 1825 217 1825 234.129607 1806 235"></polygon>
            <polygon id="Rectangle-4-Copy-18" fill="#FFFFFF" fill-rule="nonzero" opacity="0.25" points="1806 160 1825 160 1825 177.129607 1806 178"></polygon>
            <circle id="Oval" fill="#FFFFFF" fill-rule="nonzero" opacity="0.2" cx="755" cy="151" r="25"></circle>
            <path id="Path-3" d="M161.242994,231.952624 L159.279937,244.43045 C159.151189,245.248812 158.383406,245.807854 157.565044,245.679107 C156.746683,245.550359 156.18764,244.782576 156.316388,243.964214 L159.169374,225.829704 C159.351159,224.674221 160.726763,224.162172 161.619839,224.917554 L175.63606,236.772745 C176.268574,237.307737 176.347631,238.254189 175.812638,238.886703 C175.277645,239.519217 174.331194,239.598274 173.69868,239.063281 L164.053892,230.905533 L167.57437,240.365698 C182.494527,275.884402 204.592842,293.5 234,293.5 C234.828427,293.5 235.5,294.171573 235.5,295 C235.5,295.828427 234.828427,296.5 234,296.5 C203.270291,296.5 180.162892,278.080013 164.785662,241.469899 L161.242994,231.952624 Z" fill="#FFAE1A" fill-rule="nonzero" opacity="0.25" style="mix-blend-mode: multiply;"></path>
            <path id="Line" d="M932.27374,221.5 L921.264608,215.307363 C920.542571,214.901218 920.286491,213.986645 920.692637,213.264608 C921.098782,212.542571 922.013355,212.286491 922.735392,212.692637 L938.735392,221.692637 C939.754869,222.266093 939.754869,223.733907 938.735392,224.307363 L922.735392,233.307363 C922.013355,233.713509 921.098782,233.457429 920.692637,232.735392 C920.286491,232.013355 920.542571,231.098782 921.264608,230.692637 L932.27374,224.5 L680,224.5 C679.171573,224.5 678.5,223.828427 678.5,223 C678.5,222.171573 679.171573,221.5 680,221.5 L932.27374,221.5 Z" fill="#FFAE1A" fill-rule="nonzero" opacity="0.25" style="mix-blend-mode: multiply;"></path>
            <circle id="Oval-Copy-3" fill="#FFFFFF" fill-rule="nonzero" opacity="0.2" cx="2478" cy="179" r="25"></circle>
            <circle id="Oval" fill="#FFFFFF" fill-rule="nonzero" opacity="0.2" cx="755" cy="91" r="25"></circle>
            <circle id="Oval-Copy-4" fill="#FFFFFF" fill-rule="nonzero" opacity="0.2" cx="2478" cy="119" r="25"></circle>
            <polygon id="Icon" fill="#FFFFFF" fill-rule="nonzero" opacity="0.25" points="450.8 82.75 441.2 73.25 434 80.375 450.8 97 482 66.125 474.8 59"></polygon>
            <polygon id="Icon-Copy" fill="#FFFFFF" fill-rule="nonzero" opacity="0.25" points="2211.8 143.75 2202.2 134.25 2195 141.375 2211.8 158 2243 127.125 2235.8 120"></polygon>
            <polygon id="Icon-Copy-2" fill="#FFFFFF" fill-rule="nonzero" opacity="0.25" points="3457.8 124.75 3448.2 115.25 3441 122.375 3457.8 139 3489 108.125 3481.8 101"></polygon>
            <path d="M15.25,2.96050922 L15.25,403.5" id="Line-2-Copy-3" stroke="#FFAE1A" stroke-width="3.5" opacity="0.5" style="mix-blend-mode: multiply;" stroke-linecap="round" stroke-linejoin="round" stroke-dasharray="12" fill-rule="nonzero"></path>
            <path d="M1190.25,2.96050922 L1190.25,259.5" id="Line-2-Copy-4" stroke="#FFAE1A" stroke-width="3.5" opacity="0.25" style="mix-blend-mode: multiply;" stroke-linecap="round" stroke-linejoin="round" stroke-dasharray="12" fill-rule="nonzero"></path>
            <path d="M2962.25,0 L2962.25,189.488281" id="Line-2-Copy-6" stroke="#FFAE1A" stroke-width="3.5" opacity="0.25" style="mix-blend-mode: multiply;" stroke-linecap="round" stroke-linejoin="round" stroke-dasharray="12" fill-rule="nonzero"></path>
            <path d="M2381.75,-5.375 L2381.75,367.625" id="Line-2-Copy-5" stroke="#FFAE1A" stroke-width="3.5" opacity="0.25" style="mix-blend-mode: multiply;" stroke-linecap="round" stroke-linejoin="round" stroke-dasharray="12" fill-rule="nonzero" transform="translate(2381.500000, 181.125000) rotate(-90.000000) translate(-2381.500000, -181.125000) "></path>
            <path d="M898.342773,75 L895.754883,66.5039062 L882.742188,66.5039062 L880.154297,75 L872,75 L884.597656,39.1601562 L893.850586,39.1601562 L906.49707,75 L898.342773,75 Z M893.948242,60.15625 C891.555652,52.4576438 890.208823,48.1038462 889.907715,47.0947266 C889.606607,46.0856069 889.390951,45.2880889 889.260742,44.7021484 C888.72363,46.7854922 887.18556,51.9368079 884.646484,60.15625 L893.948242,60.15625 Z M927.737305,75 L926.296875,71.2890625 L926.101562,71.2890625 C924.848301,72.8678464 923.558438,73.9623993 922.231934,74.5727539 C920.90543,75.1831085 919.176117,75.4882812 917.043945,75.4882812 C914.42349,75.4882812 912.360522,74.7395908 910.85498,73.2421875 C909.349439,71.7447842 908.59668,69.612644 908.59668,66.8457031 C908.59668,63.9485532 909.609853,61.8123441 911.63623,60.4370117 C913.662608,59.0616793 916.718404,58.300782 920.803711,58.1542969 L925.540039,58.0078125 L925.540039,56.8115234 C925.540039,54.0445825 924.124038,52.6611328 921.291992,52.6611328 C919.110992,52.6611328 916.547541,53.3203059 913.601562,54.6386719 L911.135742,49.609375 C914.277034,47.9654866 917.760072,47.1435547 921.584961,47.1435547 C925.247089,47.1435547 928.054678,47.9410728 930.007812,49.5361328 C931.960947,51.1311929 932.9375,53.5562988 932.9375,56.8115234 L932.9375,75 L927.737305,75 Z M925.540039,62.3535156 L922.65918,62.4511719 C920.494455,62.5162764 918.883143,62.9068975 917.825195,63.6230469 C916.767247,64.3391963 916.238281,65.4296802 916.238281,66.8945312 C916.238281,68.9941511 917.442696,70.0439453 919.851562,70.0439453 C921.576832,70.0439453 922.956212,69.547531 923.989746,68.5546875 C925.02328,67.561844 925.540039,66.2434978 925.540039,64.5996094 L925.540039,62.3535156 Z" id="Aa" fill="#FFFFFF" fill-rule="nonzero" opacity="0.5"></path>
            <path d="M898.342773,132 L895.754883,123.503906 L882.742188,123.503906 L880.154297,132 L872,132 L884.597656,96.1601562 L893.850586,96.1601562 L906.49707,132 L898.342773,132 Z M893.948242,117.15625 C891.555652,109.457644 890.208823,105.103846 889.907715,104.094727 C889.606607,103.085607 889.390951,102.288089 889.260742,101.702148 C888.72363,103.785492 887.18556,108.936808 884.646484,117.15625 L893.948242,117.15625 Z M927.737305,132 L926.296875,128.289062 L926.101562,128.289062 C924.848301,129.867846 923.558438,130.962399 922.231934,131.572754 C920.90543,132.183109 919.176117,132.488281 917.043945,132.488281 C914.42349,132.488281 912.360522,131.739591 910.85498,130.242188 C909.349439,128.744784 908.59668,126.612644 908.59668,123.845703 C908.59668,120.948553 909.609853,118.812344 911.63623,117.437012 C913.662608,116.061679 916.718404,115.300782 920.803711,115.154297 L925.540039,115.007812 L925.540039,113.811523 C925.540039,111.044583 924.124038,109.661133 921.291992,109.661133 C919.110992,109.661133 916.547541,110.320306 913.601562,111.638672 L911.135742,106.609375 C914.277034,104.965487 917.760072,104.143555 921.584961,104.143555 C925.247089,104.143555 928.054678,104.941073 930.007812,106.536133 C931.960947,108.131193 932.9375,110.556299 932.9375,113.811523 L932.9375,132 L927.737305,132 Z M925.540039,119.353516 L922.65918,119.451172 C920.494455,119.516276 918.883143,119.906897 917.825195,120.623047 C916.767247,121.339196 916.238281,122.42968 916.238281,123.894531 C916.238281,125.994151 917.442696,127.043945 919.851562,127.043945 C921.576832,127.043945 922.956212,126.547531 923.989746,125.554688 C925.02328,124.561844 925.540039,123.243498 925.540039,121.599609 L925.540039,119.353516 Z" id="Aa" fill="#FFFFFF" fill-rule="nonzero" opacity="0.35"></path>
            <path d="M898.342773,189 L895.754883,180.503906 L882.742188,180.503906 L880.154297,189 L872,189 L884.597656,153.160156 L893.850586,153.160156 L906.49707,189 L898.342773,189 Z M893.948242,174.15625 C891.555652,166.457644 890.208823,162.103846 889.907715,161.094727 C889.606607,160.085607 889.390951,159.288089 889.260742,158.702148 C888.72363,160.785492 887.18556,165.936808 884.646484,174.15625 L893.948242,174.15625 Z M927.737305,189 L926.296875,185.289062 L926.101562,185.289062 C924.848301,186.867846 923.558438,187.962399 922.231934,188.572754 C920.90543,189.183109 919.176117,189.488281 917.043945,189.488281 C914.42349,189.488281 912.360522,188.739591 910.85498,187.242188 C909.349439,185.744784 908.59668,183.612644 908.59668,180.845703 C908.59668,177.948553 909.609853,175.812344 911.63623,174.437012 C913.662608,173.061679 916.718404,172.300782 920.803711,172.154297 L925.540039,172.007812 L925.540039,170.811523 C925.540039,168.044583 924.124038,166.661133 921.291992,166.661133 C919.110992,166.661133 916.547541,167.320306 913.601562,168.638672 L911.135742,163.609375 C914.277034,161.965487 917.760072,161.143555 921.584961,161.143555 C925.247089,161.143555 928.054678,161.941073 930.007812,163.536133 C931.960947,165.131193 932.9375,167.556299 932.9375,170.811523 L932.9375,189 L927.737305,189 Z M925.540039,176.353516 L922.65918,176.451172 C920.494455,176.516276 918.883143,176.906897 917.825195,177.623047 C916.767247,178.339196 916.238281,179.42968 916.238281,180.894531 C916.238281,182.994151 917.442696,184.043945 919.851562,184.043945 C921.576832,184.043945 922.956212,183.547531 923.989746,182.554688 C925.02328,181.561844 925.540039,180.243498 925.540039,178.599609 L925.540039,176.353516 Z" id="Aa" fill="#FFFFFF" fill-rule="nonzero" opacity="0.25"></path>
            <polygon id="Rectangle-Copy-8" fill="#FFD86E" points="1517 0 1528 0 1528 178 1517 178"></polygon>
            <g id="Group-2-Copy" transform="translate(1656.000000, 114.000000)">
                <mask id="mask-9" fill="white">
                    <use xlink:href="#path-8"></use>
                </mask>
                <use id="Oval-3" fill-opacity="0.2" fill="#FFFFFF" fill-rule="nonzero" xlink:href="#path-8"></use>
            </g>
            <g id="Group-8" transform="translate(1981.000000, 32.000000)" fill-rule="nonzero">
                <path d="M13.5,0 L51.5,0 C58.9558441,-1.36961635e-15 65,6.04415588 65,13.5 C65,20.9558441 58.9558441,27 51.5,27 L13.5,27 C6.04415588,27 9.13077564e-16,20.9558441 0,13.5 C-9.13077564e-16,6.04415588 6.04415588,1.36961635e-15 13.5,0 Z" id="Rectangle-6" fill="#FFFFFF" opacity="0.25"></path>
                <path d="M52,24 C57.5228475,24 62,19.2989899 62,13.5 C62,7.70101013 57.5228475,3 52,3 C46.4771525,3 42,7.70101013 42,13.5 C42,19.2989899 46.4771525,24 52,24 Z" id="Oval-2" fill="#FFD86E"></path>
            </g>
            <g id="Group-8-Copy" transform="translate(3243.500000, 28.000000)" fill-rule="nonzero">
                <path d="M13.5,0 L51.5,0 C58.9558441,-1.36961635e-15 65,6.04415588 65,13.5 C65,20.9558441 58.9558441,27 51.5,27 L13.5,27 C6.04415588,27 9.13077564e-16,20.9558441 0,13.5 C-9.13077564e-16,6.04415588 6.04415588,1.36961635e-15 13.5,0 Z" id="Rectangle-6" fill="#FFFFFF" opacity="0.25"></path>
                <path d="M52,24 C57.5228475,24 62,19.2989899 62,13.5 C62,7.70101013 57.5228475,3 52,3 C46.4771525,3 42,7.70101013 42,13.5 C42,19.2989899 46.4771525,24 52,24 Z" id="Oval-2" fill="#FFD86E"></path>
            </g>
            <path d="M2655.04199,46.9560547 L2669.20215,46.9560547 L2669.20215,65.4619141 C2666.90722,66.2106157 2664.74659,66.7355128 2662.72021,67.0366211 C2660.69384,67.3377294 2658.62273,67.4882812 2656.50684,67.4882812 C2651.11944,67.4882812 2647.00571,65.905452 2644.16553,62.7397461 C2641.32534,59.5740402 2639.90527,55.029001 2639.90527,49.1044922 C2639.90527,43.3427446 2641.55321,38.8506021 2644.84912,35.6279297 C2648.14504,32.4052573 2652.71449,30.7939453 2658.55762,30.7939453 C2662.21974,30.7939453 2665.75161,31.5263599 2669.15332,32.9912109 L2666.63867,39.0458984 C2664.03449,37.7438086 2661.32456,37.0927734 2658.50879,37.0927734 C2655.23729,37.0927734 2652.61687,38.1913953 2650.64746,40.3886719 C2648.67805,42.5859485 2647.69336,45.5400205 2647.69336,49.2509766 C2647.69336,53.1246938 2648.48681,56.0828348 2650.07373,58.1254883 C2651.66065,60.1681417 2653.96776,61.1894531 2656.99512,61.1894531 C2658.5739,61.1894531 2660.17708,61.0266943 2661.80469,60.7011719 L2661.80469,53.2548828 L2655.04199,53.2548828 L2655.04199,46.9560547 Z M2700.86719,39.7050781 L2700.86719,43.4892578 L2696.59473,44.5878906 C2697.37598,45.8085999 2697.7666,47.1757737 2697.7666,48.6894531 C2697.7666,51.6191553 2696.74529,53.9018473 2694.70264,55.5375977 C2692.65998,57.173348 2689.82391,57.9912109 2686.19434,57.9912109 L2684.85156,57.9179688 L2683.75293,57.7958984 C2682.98795,58.3818389 2682.60547,59.032874 2682.60547,59.7490234 C2682.60547,60.8232476 2683.97264,61.3603516 2686.70703,61.3603516 L2691.3457,61.3603516 C2694.34051,61.3603516 2696.6232,62.0032488 2698.19385,63.2890625 C2699.76449,64.5748762 2700.5498,66.4628782 2700.5498,68.953125 C2700.5498,72.1432451 2699.21925,74.6171787 2696.55811,76.375 C2693.89696,78.1328213 2690.0762,79.0117188 2685.0957,79.0117188 C2681.28709,79.0117188 2678.37778,78.3484767 2676.36768,77.0219727 C2674.35757,75.6954686 2673.35254,73.8359495 2673.35254,71.4433594 C2673.35254,69.7994709 2673.86523,68.4241592 2674.89062,67.3173828 C2675.91602,66.2106064 2677.42154,65.4212263 2679.40723,64.9492188 C2678.64225,64.6236963 2677.97494,64.0906613 2677.40527,63.3500977 C2676.83561,62.6095341 2676.55078,61.8242229 2676.55078,60.9941406 C2676.55078,59.9524688 2676.85189,59.0857782 2677.4541,58.394043 C2678.05632,57.7023077 2678.92708,57.0227898 2680.06641,56.3554688 C2678.63411,55.7369761 2677.49886,54.7441475 2676.66064,53.3769531 C2675.82242,52.0097588 2675.40332,50.3984468 2675.40332,48.5429688 C2675.40332,45.5644382 2676.37174,43.2614014 2678.30859,41.6337891 C2680.24545,40.0061768 2683.01235,39.1923828 2686.60938,39.1923828 C2687.37435,39.1923828 2688.28173,39.2615553 2689.33154,39.3999023 C2690.38135,39.5382494 2691.05273,39.6399736 2691.3457,39.7050781 L2700.86719,39.7050781 Z M2679.79785,70.8574219 C2679.79785,71.8828176 2680.2902,72.6884736 2681.2749,73.2744141 C2682.25961,73.8603545 2683.63899,74.1533203 2685.41309,74.1533203 C2688.08237,74.1533203 2690.17382,73.787113 2691.6875,73.0546875 C2693.20118,72.322262 2693.95801,71.3212954 2693.95801,70.0517578 C2693.95801,69.0263621 2693.51042,68.3183613 2692.61523,67.9277344 C2691.72005,67.5371074 2690.3366,67.3417969 2688.46484,67.3417969 L2684.60742,67.3417969 C2683.24023,67.3417969 2682.09685,67.6632455 2681.17725,68.3061523 C2680.25765,68.9490592 2679.79785,69.7994739 2679.79785,70.8574219 Z M2682.50781,48.640625 C2682.50781,50.1217522 2682.84554,51.2936155 2683.521,52.15625 C2684.19646,53.0188845 2685.2259,53.4501953 2686.60938,53.4501953 C2688.00912,53.4501953 2689.0345,53.0188845 2689.68555,52.15625 C2690.33659,51.2936155 2690.66211,50.1217522 2690.66211,48.640625 C2690.66211,45.3528481 2689.31121,43.7089844 2686.60938,43.7089844 C2683.87499,43.7089844 2682.50781,45.3528481 2682.50781,48.640625 Z" id="Gg" fill="#FFFFFF" fill-rule="nonzero" opacity="0.5"></path>
            <path d="M2655.04199,103.956055 L2669.20215,103.956055 L2669.20215,122.461914 C2666.90722,123.210616 2664.74659,123.735513 2662.72021,124.036621 C2660.69384,124.337729 2658.62273,124.488281 2656.50684,124.488281 C2651.11944,124.488281 2647.00571,122.905452 2644.16553,119.739746 C2641.32534,116.57404 2639.90527,112.029001 2639.90527,106.104492 C2639.90527,100.342745 2641.55321,95.8506021 2644.84912,92.6279297 C2648.14504,89.4052573 2652.71449,87.7939453 2658.55762,87.7939453 C2662.21974,87.7939453 2665.75161,88.5263599 2669.15332,89.9912109 L2666.63867,96.0458984 C2664.03449,94.7438086 2661.32456,94.0927734 2658.50879,94.0927734 C2655.23729,94.0927734 2652.61687,95.1913953 2650.64746,97.3886719 C2648.67805,99.5859485 2647.69336,102.540021 2647.69336,106.250977 C2647.69336,110.124694 2648.48681,113.082835 2650.07373,115.125488 C2651.66065,117.168142 2653.96776,118.189453 2656.99512,118.189453 C2658.5739,118.189453 2660.17708,118.026694 2661.80469,117.701172 L2661.80469,110.254883 L2655.04199,110.254883 L2655.04199,103.956055 Z M2700.86719,96.7050781 L2700.86719,100.489258 L2696.59473,101.587891 C2697.37598,102.8086 2697.7666,104.175774 2697.7666,105.689453 C2697.7666,108.619155 2696.74529,110.901847 2694.70264,112.537598 C2692.65998,114.173348 2689.82391,114.991211 2686.19434,114.991211 L2684.85156,114.917969 L2683.75293,114.795898 C2682.98795,115.381839 2682.60547,116.032874 2682.60547,116.749023 C2682.60547,117.823248 2683.97264,118.360352 2686.70703,118.360352 L2691.3457,118.360352 C2694.34051,118.360352 2696.6232,119.003249 2698.19385,120.289062 C2699.76449,121.574876 2700.5498,123.462878 2700.5498,125.953125 C2700.5498,129.143245 2699.21925,131.617179 2696.55811,133.375 C2693.89696,135.132821 2690.0762,136.011719 2685.0957,136.011719 C2681.28709,136.011719 2678.37778,135.348477 2676.36768,134.021973 C2674.35757,132.695469 2673.35254,130.835949 2673.35254,128.443359 C2673.35254,126.799471 2673.86523,125.424159 2674.89062,124.317383 C2675.91602,123.210606 2677.42154,122.421226 2679.40723,121.949219 C2678.64225,121.623696 2677.97494,121.090661 2677.40527,120.350098 C2676.83561,119.609534 2676.55078,118.824223 2676.55078,117.994141 C2676.55078,116.952469 2676.85189,116.085778 2677.4541,115.394043 C2678.05632,114.702308 2678.92708,114.02279 2680.06641,113.355469 C2678.63411,112.736976 2677.49886,111.744147 2676.66064,110.376953 C2675.82242,109.009759 2675.40332,107.398447 2675.40332,105.542969 C2675.40332,102.564438 2676.37174,100.261401 2678.30859,98.6337891 C2680.24545,97.0061768 2683.01235,96.1923828 2686.60938,96.1923828 C2687.37435,96.1923828 2688.28173,96.2615553 2689.33154,96.3999023 C2690.38135,96.5382494 2691.05273,96.6399736 2691.3457,96.7050781 L2700.86719,96.7050781 Z M2679.79785,127.857422 C2679.79785,128.882818 2680.2902,129.688474 2681.2749,130.274414 C2682.25961,130.860354 2683.63899,131.15332 2685.41309,131.15332 C2688.08237,131.15332 2690.17382,130.787113 2691.6875,130.054688 C2693.20118,129.322262 2693.95801,128.321295 2693.95801,127.051758 C2693.95801,126.026362 2693.51042,125.318361 2692.61523,124.927734 C2691.72005,124.537107 2690.3366,124.341797 2688.46484,124.341797 L2684.60742,124.341797 C2683.24023,124.341797 2682.09685,124.663245 2681.17725,125.306152 C2680.25765,125.949059 2679.79785,126.799474 2679.79785,127.857422 Z M2682.50781,105.640625 C2682.50781,107.121752 2682.84554,108.293615 2683.521,109.15625 C2684.19646,110.018885 2685.2259,110.450195 2686.60938,110.450195 C2688.00912,110.450195 2689.0345,110.018885 2689.68555,109.15625 C2690.33659,108.293615 2690.66211,107.121752 2690.66211,105.640625 C2690.66211,102.352848 2689.31121,100.708984 2686.60938,100.708984 C2683.87499,100.708984 2682.50781,102.352848 2682.50781,105.640625 Z" id="Gg" fill="#FFFFFF" fill-rule="nonzero" opacity="0.35"></path>
            <path d="M2655.04199,160.956055 L2669.20215,160.956055 L2669.20215,179.461914 C2666.90722,180.210616 2664.74659,180.735513 2662.72021,181.036621 C2660.69384,181.337729 2658.62273,181.488281 2656.50684,181.488281 C2651.11944,181.488281 2647.00571,179.905452 2644.16553,176.739746 C2641.32534,173.57404 2639.90527,169.029001 2639.90527,163.104492 C2639.90527,157.342745 2641.55321,152.850602 2644.84912,149.62793 C2648.14504,146.405257 2652.71449,144.793945 2658.55762,144.793945 C2662.21974,144.793945 2665.75161,145.52636 2669.15332,146.991211 L2666.63867,153.045898 C2664.03449,151.743809 2661.32456,151.092773 2658.50879,151.092773 C2655.23729,151.092773 2652.61687,152.191395 2650.64746,154.388672 C2648.67805,156.585948 2647.69336,159.540021 2647.69336,163.250977 C2647.69336,167.124694 2648.48681,170.082835 2650.07373,172.125488 C2651.66065,174.168142 2653.96776,175.189453 2656.99512,175.189453 C2658.5739,175.189453 2660.17708,175.026694 2661.80469,174.701172 L2661.80469,167.254883 L2655.04199,167.254883 L2655.04199,160.956055 Z M2700.86719,153.705078 L2700.86719,157.489258 L2696.59473,158.587891 C2697.37598,159.8086 2697.7666,161.175774 2697.7666,162.689453 C2697.7666,165.619155 2696.74529,167.901847 2694.70264,169.537598 C2692.65998,171.173348 2689.82391,171.991211 2686.19434,171.991211 L2684.85156,171.917969 L2683.75293,171.795898 C2682.98795,172.381839 2682.60547,173.032874 2682.60547,173.749023 C2682.60547,174.823248 2683.97264,175.360352 2686.70703,175.360352 L2691.3457,175.360352 C2694.34051,175.360352 2696.6232,176.003249 2698.19385,177.289062 C2699.76449,178.574876 2700.5498,180.462878 2700.5498,182.953125 C2700.5498,186.143245 2699.21925,188.617179 2696.55811,190.375 C2693.89696,192.132821 2690.0762,193.011719 2685.0957,193.011719 C2681.28709,193.011719 2678.37778,192.348477 2676.36768,191.021973 C2674.35757,189.695469 2673.35254,187.835949 2673.35254,185.443359 C2673.35254,183.799471 2673.86523,182.424159 2674.89062,181.317383 C2675.91602,180.210606 2677.42154,179.421226 2679.40723,178.949219 C2678.64225,178.623696 2677.97494,178.090661 2677.40527,177.350098 C2676.83561,176.609534 2676.55078,175.824223 2676.55078,174.994141 C2676.55078,173.952469 2676.85189,173.085778 2677.4541,172.394043 C2678.05632,171.702308 2678.92708,171.02279 2680.06641,170.355469 C2678.63411,169.736976 2677.49886,168.744147 2676.66064,167.376953 C2675.82242,166.009759 2675.40332,164.398447 2675.40332,162.542969 C2675.40332,159.564438 2676.37174,157.261401 2678.30859,155.633789 C2680.24545,154.006177 2683.01235,153.192383 2686.60938,153.192383 C2687.37435,153.192383 2688.28173,153.261555 2689.33154,153.399902 C2690.38135,153.538249 2691.05273,153.639974 2691.3457,153.705078 L2700.86719,153.705078 Z M2679.79785,184.857422 C2679.79785,185.882818 2680.2902,186.688474 2681.2749,187.274414 C2682.25961,187.860354 2683.63899,188.15332 2685.41309,188.15332 C2688.08237,188.15332 2690.17382,187.787113 2691.6875,187.054688 C2693.20118,186.322262 2693.95801,185.321295 2693.95801,184.051758 C2693.95801,183.026362 2693.51042,182.318361 2692.61523,181.927734 C2691.72005,181.537107 2690.3366,181.341797 2688.46484,181.341797 L2684.60742,181.341797 C2683.24023,181.341797 2682.09685,181.663245 2681.17725,182.306152 C2680.25765,182.949059 2679.79785,183.799474 2679.79785,184.857422 Z M2682.50781,162.640625 C2682.50781,164.121752 2682.84554,165.293615 2683.521,166.15625 C2684.19646,167.018885 2685.2259,167.450195 2686.60938,167.450195 C2688.00912,167.450195 2689.0345,167.018885 2689.68555,166.15625 C2690.33659,165.293615 2690.66211,164.121752 2690.66211,162.640625 C2690.66211,159.352848 2689.31121,157.708984 2686.60938,157.708984 C2683.87499,157.708984 2682.50781,159.352848 2682.50781,162.640625 Z" id="Gg" fill="#FFFFFF" fill-rule="nonzero" opacity="0.25"></path>
            <circle id="Oval-Copy-6" fill="#FFFFFF" fill-rule="nonzero" opacity="0.2" cx="3603" cy="41" r="25"></circle>
            <circle id="Oval-Copy-7" fill="#FFFFFF" fill-rule="nonzero" opacity="0.2" cx="3603" cy="101" r="25"></circle>
            <path d="M3540.75,-57.5 L3540.75,141" id="Line-2-Copy-7" stroke="#FFAE1A" stroke-width="3.5" opacity="0.25" style="mix-blend-mode: multiply;" stroke-linecap="round" stroke-linejoin="round" stroke-dasharray="12" fill-rule="nonzero" transform="translate(3540.500000, 41.500000) rotate(-90.000000) translate(-3540.500000, -41.500000) "></path>
        </g>
        <path id="Path-2" d="M512.485558,29.1135997 L522.576089,36.711686 C523.237879,37.2100085 523.370396,38.1504656 522.872073,38.8122557 C522.373751,39.4740459 521.433294,39.6065626 520.771504,39.1082401 L506.106542,28.0656454 C505.172129,27.3620406 505.366808,25.9071938 506.453337,25.4740189 L523.505668,18.6756363 C524.275194,18.3688437 525.147722,18.7439629 525.454515,19.5134886 C525.761308,20.2830142 525.386189,21.1555426 524.616663,21.4623353 L512.883453,26.1401034 L522.939268,27.4857105 L523.04314,27.503343 C555.652295,34.2248506 573.872977,55.4451073 577.492222,90.8474474 C577.576475,91.6715791 576.976684,92.4079699 576.152553,92.4922224 C575.328421,92.5764749 574.59203,91.9766843 574.507778,91.1525526 C571.020638,57.0424309 553.75189,36.9143579 522.488922,30.4521879 L512.485558,29.1135997 Z M522.488922,30.4521879 C522.471786,30.4486459 522.454646,30.445108 522.437502,30.4415742 L522.541373,30.4592067 L522.488922,30.4521879 Z" fill="#FFAE1A" fill-rule="nonzero" opacity="0.25" style="mix-blend-mode: multiply;"></path>
        <path id="Path-4" d="M1507.34125,98.3018963 L1496.60324,91.6502096 C1495.89899,91.213957 1495.68173,90.2893929 1496.11798,89.5851378 C1496.55423,88.8808828 1497.4788,88.6636239 1498.18305,89.0998765 L1513.78901,98.7670317 C1514.78339,99.3829972 1514.72145,100.849504 1513.67868,101.379429 L1497.31315,109.696241 C1496.57461,110.071556 1495.67166,109.77711 1495.29635,109.038578 C1494.92103,108.300046 1495.21548,107.397094 1495.95401,107.021779 L1507.21554,101.298775 L1496.95179,100.864221 C1440.69361,95.9263904 1409.78311,62.2035514 1404.50539,0.127070869 C1404.43521,-0.698378321 1405.04748,-1.42442867 1405.87293,-1.49460797 C1406.69838,-1.56478728 1407.42443,-0.95252006 1407.49461,-0.127070869 C1412.65305,60.5464858 1442.46451,93.0702904 1497.14624,97.8713015 L1507.34125,98.3018963 Z" fill="#FFAE1A" fill-rule="nonzero" opacity="0.25" style="mix-blend-mode: multiply;"></path>
    </g>
</svg>