<svg width="24" height="24" xmlns="http://www.w3.org/2000/svg"><path d="M15.728 19.586l-.707.706c-1.592 1.593-4.065 1.593-5.657 0l-.707-.707-3.536 3.536c-1.305 1.305-3.431 1.204-4.58-.364-.826-1.24-.642-2.9.408-3.95l3.465-3.464-.707-.707c-1.593-1.592-1.593-4.065 0-5.657L12.192.494l5.95 5.95v2.242h2.243l3.121 3.122-7.778 7.778zm-.707-2.122l5.657-5.656-1.121-1.122h-3.415V7.272l-3.95-3.95L6.535 8.98l8.486 8.485zm-9.9-4.242l2.121 2.121-4.879 4.88c-.382.382-.45.987-.184 1.388.382.52 1.07.553 1.528.096l4.95-4.95 2.121 2.12c.812.812 2.017.812 2.829.001L5.12 10.393c-.811.812-.811 2.017 0 2.829z" fill="#818F99" fill-rule="evenodd"/></svg>