<?xml version="1.0" encoding="UTF-8"?>
<svg width="24px" height="24px" viewBox="0 0 24 24" version="1.1" xmlns="http://www.w3.org/2000/svg" xmlns:xlink="http://www.w3.org/1999/xlink">
    <!-- Generator: Sketch 54.1 (76490) - https://sketchapp.com -->
    <title>Icons/24px/Brush</title>
    <desc>Created with Sketch.</desc>
    <g id="Icons/24px/Brush" stroke="none" stroke-width="1" fill="none" fill-rule="evenodd">
        <path d="M15.7276068,19.5856068 L15.0211068,20.2921068 C13.4285825,21.8846311 10.9564175,21.8846311 9.36389322,20.2921068 L8.657,19.5852135 L5.12110678,23.1211068 C3.81597811,24.4262354 1.68973844,24.3250541 0.540949706,22.7567002 C-0.285433059,21.517126 -0.100689385,19.8574758 0.948893219,18.8078932 L4.41378644,15.343 L3.70689322,14.6361068 C2.11436893,13.0435825 2.11436893,10.5714175 3.70689322,8.97889321 L12.192,0.493786424 L18.142,6.44378642 L18.142,8.68599999 L20.3853516,8.68599999 L23.5060469,11.8081666 L15.7281068,19.5861068 L15.7276068,19.5856068 Z M15.0214643,17.4643221 L20.6779531,11.8078334 L19.5566484,10.686 L16.142,10.686 L16.142,7.27221355 L12.192,3.32221355 L6.53524928,8.97896427 L15.0214643,17.4643221 L15.0214643,17.4643221 Z M5.12110678,13.2218932 L7.24221356,15.343 L2.36310678,20.2221068 C1.98056943,20.6046441 1.91323196,21.2095723 2.17942916,21.6106693 C2.56113733,22.131225 3.24979048,22.1639959 3.70689322,21.7068932 L8.657,16.7567864 L10.7781068,18.8778932 C11.589535,19.6893214 12.7952763,19.6893689 13.6067507,18.8780357 L5.12103572,10.3931778 C4.30963107,11.2046529 4.30965476,12.4104412 5.12110678,13.2218932 Z" id="i-24-brush" fill="#818F99"></path>
    </g>
</svg>