<svg width="24" height="24" xmlns="http://www.w3.org/2000/svg"><path d="M8.364 15.977h-1c-.552 0-1 .449-1 1.002v2.902c0 .55.806.776 1.002 1.016l1.522 1.098 8.832-.001 1.21-4.28c.194-1.264.272-1.112-.533-1.263l-5.127-.479a1.001 1.001 0 0 1-.907-.998V9.963a1.001 1.001 0 0 0-2 0v7.016a1.001 1.001 0 0 1-2 0v-1.002zm5.853-1.888l4.4.404c2.147.382 2.638 1.314 2.273 3.615l-1.432 5.114c-.107.454-.52.776-.996.776L8.293 24c-.214 0-.423-.066-.597-.188l-1.928-1.359C5.693 22.4 4 20.834 4 19.893V17c0-1.657 1.372-3 3.065-3h1.022v-4C8.087 8.344 9.459 7 11.152 7c1.693 0 3.065 1.343 3.065 3v4.089zm-6.7-3.392a1 1 0 1 1-1.917.572 6.187 6.187 0 0 1-.255-1.762c0-3.369 2.692-6.105 6.018-6.105 3.327 0 6.018 2.736 6.018 6.105 0 .604-.086 1.198-.255 1.766a1 1 0 1 1-1.917-.573c.114-.383.173-.783.173-1.193 0-2.268-1.802-4.1-4.019-4.1-2.216 0-4.018 1.832-4.018 4.1 0 .409.058.808.172 1.19zM4.319 11.7a1 1 0 1 1-1.915.576A9.641 9.641 0 0 1 2 9.507C2 4.26 6.189 0 11.363 0c5.175 0 9.364 4.26 9.364 9.507a9.64 9.64 0 0 1-.404 2.771 1 1 0 1 1-1.916-.577c.212-.704.32-1.441.32-2.194 0-4.147-3.3-7.502-7.364-7.502C7.3 2.005 4 5.36 4 9.507c0 .752.108 1.488.319 2.192z" fill="#818F99" fill-rule="evenodd"/></svg>