<?xml version="1.0" encoding="UTF-8"?>
<svg width="24px" height="24px" viewBox="0 0 24 24" version="1.1" xmlns="http://www.w3.org/2000/svg" xmlns:xlink="http://www.w3.org/1999/xlink">
    <!-- Generator: Sketch 54.1 (76490) - https://sketchapp.com -->
    <title>Icons/24px/Home</title>
    <desc>Created with Sketch.</desc>
    <g id="Icons/24px/Home" stroke="none" stroke-width="1" fill="none" fill-rule="evenodd">
        <path d="M3.00267281,12.5247398 L1.6753456,13.7314009 L0.330000013,12.2515207 L4.00267281,8.91272726 L4.00267281,3 L8.00267281,3 L8.00267281,5.27636362 L12.0026728,1.63999999 L23.6753456,12.2515207 L22.33,13.7314009 L21.0026728,12.5247398 L21.0026728,24 L13.0026728,24 L13.0026728,19 L11.0026728,19 L11.0026728,24 L3.00267281,24 L3.00267281,12.5247398 Z M5.00267281,10.7065579 L5.00267281,22 L9.00267281,22 L9.00267281,17 L15.0026728,17 L15.0026728,22 L19.0026728,22 L19.0026728,10.7065579 L12.0026728,4.34292158 L5.00267281,10.7065579 Z M15.0026728,9 L15.0026728,15 L9.00267281,15 L9.00267281,9 L15.0026728,9 Z M11.0026728,11 L11.0026728,13 L13.0026728,13 L13.0026728,11 L11.0026728,11 Z" id="i-24-home" fill="#818F99"></path>
    </g>
</svg>