<svg width="24" height="24" xmlns="http://www.w3.org/2000/svg">
  <path fill="#5D6F7A" fill-rule="evenodd" d="M13.539 13.469A5.945 5.945 0 0 0 16 14c3.3 0 6-2.7 6-6s-2.7-6-6-6-6 2.7-6 6c0 1.023.26 1.988.716 2.833l1.914-.762a1 1 0 0 1 1.352 1.12l-.443 2.278zm-4.69-1.893A7.928 7.928 0 0 1 8 8c0-4.4 3.6-8 8-8s8 3.6 8 8-3.6 8-8 8a7.928 7.928 0 0 1-2.85-.528l-1.501 7.719a1 1 0 0 1-1.572.616L6.99 21.548l-2.12 2.154c-.628.637-1.713.193-1.713-.702v-4.683c0-.018 0-.037.002-.055a.994.994 0 0 1 .434-.849l3.647-2.5a1 1 0 1 1 1.13 1.65l-2.482 1.702 4.098 2.998 1.683-8.657-8.728 3.475a1 1 0 0 1-1.458 1.316l-1.086-.822a1 1 0 0 1 .233-1.726l8.22-3.273zM17 4v3h3v2h-5V4h2z"/>
</svg>
