<svg width="24" height="24" xmlns="http://www.w3.org/2000/svg"><path d="M9.292 10.707l-3-3a1 1 0 0 1 1.415-1.414l3 3a3 3 0 1 1-1.414 1.414zM12 24C5.373 24 0 18.627 0 12S5.373 0 12 0s12 5.373 12 12-5.373 12-12 12zm0-2c5.523 0 10-4.477 10-10S17.523 2 12 2 2 6.477 2 12s4.477 10 10 10zM5.351 9.684a1 1 0 1 1 1.898.632A5.455 5.455 0 0 0 7 12a1 1 0 0 1-2 0c0-.816.12-1.62.351-2.316zM19 12a1 1 0 0 1-2 0c0-2.748-2.252-5-5-5-.61 0-1.2.088-1.684.249a1 1 0 0 1-.632-1.898A7.434 7.434 0 0 1 12 5c3.852 0 7 3.148 7 7z" fill="#818F99" fill-rule="evenodd"/></svg>