<?xml version="1.0" encoding="UTF-8"?>
<svg width="24px" height="24px" viewBox="0 0 24 24" version="1.1" xmlns="http://www.w3.org/2000/svg" xmlns:xlink="http://www.w3.org/1999/xlink">
    <!-- Generator: Sketch 54.1 (76490) - https://sketchapp.com -->
    <title>Icons/24px/Performance</title>
    <desc>Created with Sketch.</desc>
    <g id="Icons/24px/Performance" stroke="none" stroke-width="1" fill="none" fill-rule="evenodd">
        <path d="M9.29237099,10.7065845 L6.29289322,7.70710678 C5.90236893,7.31658249 5.90236893,6.68341751 6.29289322,6.29289322 C6.68341751,5.90236893 7.31658249,5.90236893 7.70710678,6.29289322 L10.7065845,9.29237099 C11.0982198,9.10495216 11.5368535,9 12,9 C13.6568542,9 15,10.3431458 15,12 C15,13.6568542 13.6568542,15 12,15 C10.3431458,15 9,13.6568542 9,12 C9,11.5368535 9.10495216,11.0982198 9.29237099,10.7065845 L9.29237099,10.7065845 Z M12,24 C5.372583,24 0,18.627417 0,12 C0,5.372583 5.372583,0 12,0 C18.627417,0 24,5.372583 24,12 C24,18.627417 18.627417,24 12,24 Z M12,22 C17.5228475,22 22,17.5228475 22,12 C22,6.4771525 17.5228475,2 12,2 C6.4771525,2 2,6.4771525 2,12 C2,17.5228475 6.4771525,22 12,22 Z M5.3513167,9.68377223 C5.52596447,9.15982892 6.09228445,8.87666893 6.61622777,9.0513167 C7.14017108,9.22596447 7.42333107,9.79228445 7.2486833,10.3162278 C7.08759423,10.799495 7,11.390756 7,12 C7,12.5522847 6.55228475,13 6,13 C5.44771525,13 5,12.5522847 5,12 C5,11.184244 5.11907243,10.380505 5.3513167,9.68377223 Z M19,12 C19,12.5522847 18.5522847,13 18,13 C17.4477153,13 17,12.5522847 17,12 C17,9.25228475 14.7477153,7 12,7 C11.390756,7 10.799495,7.08759423 10.3162278,7.2486833 C9.79228445,7.42333107 9.22596447,7.14017108 9.0513167,6.61622777 C8.87666893,6.09228445 9.15982892,5.52596447 9.68377223,5.3513167 C10.380505,5.11907243 11.184244,5 12,5 C15.8522847,5 19,8.14771525 19,12 Z" id="i-24-performance" fill="#818F99"></path>
    </g>
</svg>