<svg width="24" height="24" xmlns="http://www.w3.org/2000/svg"><path d="M15.728 10.759a5.971 5.971 0 0 1-1.25 2.936l2.555 1.544h4.994v-2.926a.946.946 0 0 0-.455-.81l-2.12-1.285a4.39 4.39 0 0 1-3.724.54zm.053-2.109c.063.017.126.04.186.07.332.162.671.242 1.049.242a2.477 2.477 0 0 0 2.466-2.488v-.995a2.477 2.477 0 0 0-2.466-2.489c-1.02 0-1.92.626-2.292 1.563l-.002.005a5.98 5.98 0 0 1 1.059 3.409v.683zm-2.516-5.57A4.428 4.428 0 0 1 17.015 1c2.452 0 4.44 2.005 4.44 4.479v.995c0 .827-.223 1.602-.61 2.267l1.741 1.054A2.94 2.94 0 0 1 24 12.313v3.921a.99.99 0 0 1-.986.995H19.3c.275.523.425 1.113.425 1.724v4.052a.99.99 0 0 1-.986.995H.986A.99.99 0 0 1 0 23.005v-4.052c0-1.294.673-2.493 1.772-3.158l3.476-2.1a5.98 5.98 0 0 1-1.303-3.738v-1.99c0-3.298 2.65-5.972 5.918-5.972 1.266 0 2.44.401 3.402 1.085zM6.808 15.072l-4.022 2.43a1.694 1.694 0 0 0-.813 1.451v3.057h15.78v-3.057c0-.594-.309-1.145-.813-1.45l-4.021-2.431a5.85 5.85 0 0 1-3.056.857 5.85 5.85 0 0 1-3.055-.857zm3.055-1.134c2.179 0 3.945-1.783 3.945-3.98V7.966c0-2.199-1.766-3.981-3.945-3.981-2.178 0-3.945 1.782-3.945 3.98v1.991c0 2.198 1.767 3.981 3.945 3.981z" fill="#818F99" fill-rule="evenodd"/></svg>