<?xml version="1.0" encoding="UTF-8"?>
<svg width="24px" height="24px" viewBox="0 0 24 24" version="1.1" xmlns="http://www.w3.org/2000/svg" xmlns:xlink="http://www.w3.org/1999/xlink">
  <polygon id="left-outline" points="7.4328 10.9045 11.9908 13.5355 11.9908 18.7985 7.4328 21.4295 2.8748 18.7985 2.8748 13.5355"></polygon>
  <polyline id="left-top" points="2.8752 13.5359 7.4332 16.1669 11.9902 13.5359"></polyline>
  <path d="M7.4328,21.4299 L7.4328,16.1669" id="left-vertical"></path>
  <polygon id="right-outline" points="16.5481 10.9045 21.1061 13.5355 21.1061 18.7985 16.5481 21.4295 11.9901 18.7985 11.9901 13.5355"></polygon>
  <polyline id="right-top" points="11.9904 13.5359 16.5484 16.1669 21.1054 13.5359"></polyline>
  <path d="M16.5481,21.4299 L16.5481,16.1669" id="right-vertical"></path>
  <polygon id="top-outline" points="11.9904 3.0105 16.5484 5.6415 16.5484 10.9045 11.9904 13.5355 7.4324 10.9045 7.4324 5.6415"></polygon>
  <polyline id="top-top" points="7.4328 5.6418 11.9908 8.2728 16.5478 5.6418"></polyline>
  <path d="M11.9904,13.5359 L11.9904,8.2729" id="top-vertical"></path>
</svg>
