<?xml version="1.0" encoding="UTF-8"?>
<svg width="24px" height="24px" viewBox="0 0 24 24" version="1.1" xmlns="http://www.w3.org/2000/svg" xmlns:xlink="http://www.w3.org/1999/xlink">
  <path d="M9.86,15.6237 C12.075,15.4737 14.639,14.2477 16.778,12.1087 C19.338,9.5497 20.591,6.3777 20.255,3.9287 C17.805,3.5927 14.634,4.8457 12.075,7.4057 C9.936,9.5437 8.71,12.1087 8.559,14.3237" id="body"></path>
  <path d="M8.7916,13.0299 C7.2996,13.3749 4.2636,15.3309 4.2636,15.3309 L5.4006,9.6419 L11.0836,8.5059" id="left-fin"></path>
  <path d="M11.1539,15.3918 C10.8089,16.8838 8.8529,19.9198 8.8529,19.9198 L14.5419,18.7828 L15.6779,13.0998" id="right-fin"></path>
  <path d="M16.7076,8.3117 C16.4776,8.5427 16.1026,8.5427 15.8716,8.3117 C15.6416,8.0807 15.6416,7.7067 15.8716,7.4757 C16.1026,7.2447 16.4776,7.2447 16.7076,7.4757 C16.9386,7.7067 16.9386,8.0807 16.7076,8.3117 Z" id="port"></path>
  <path d="M7.8922,15.609 L8.5742,16.292 C8.7242,16.441 8.9662,16.441 9.1162,16.292 L9.8222,15.586 L8.5972,14.361 L7.8922,15.067 C7.7422,15.217 7.7422,15.46 7.8922,15.609 Z" id="rocket"></path>
</svg>
