<?xml version="1.0" encoding="UTF-8"?>
<svg width="24px" height="24px" viewBox="0 0 24 24" version="1.1" xmlns="http://www.w3.org/2000/svg" xmlns:xlink="http://www.w3.org/1999/xlink">
  <path d="M16.0024,6.2719 L8.0274,6.2719 L8.0274,3.4189 C8.0274,3.1189 8.2714,2.8749 8.5714,2.8749 L15.4584,2.8749 C15.7594,2.8749 16.0024,3.1189 16.0024,3.4189 L16.0024,6.2719 Z" id="top"></path>
  <path d="M16.6557,11.7123 L16.6557,13.5713 L7.3757,13.5713 L7.3757,11.7123 C7.3757,11.4063 7.4917,11.1123 7.7027,10.8913 L9.1707,9.3413 L9.1707,6.2723 L14.8607,6.2723 L14.8607,9.3413 L16.3287,10.8913 C16.5387,11.1123 16.6557,11.4063 16.6557,11.7123 Z" id="body"></path>
  <polyline id="pin" points="11.4985 13.5712 12.0155 16.8772 12.5315 13.5712"></polyline>
</svg>
