<?xml version="1.0" encoding="UTF-8"?>
<svg width="16px" height="16px" viewBox="0 0 16 16" version="1.1" xmlns="http://www.w3.org/2000/svg" xmlns:xlink="http://www.w3.org/1999/xlink">
    <!-- Generator: Sketch 54.1 (76490) - https://sketchapp.com -->
    <title>Icons/16px/Account</title>
    <desc>Created with Sketch.</desc>
    <g id="Icons/16px/Account" stroke="none" stroke-width="1" fill="none" fill-rule="evenodd">
        <path d="M8,2 C6.9,2 6,2.9 6,4 L6,5 C6,6.1 6.9,7 8,7 C9.1,7 10,6.1 10,5 L10,4 C10,2.9 9.1,2 8,2 Z M8,0 C10.2,0 12,1.8 12,4 L12,5 C12,7.2 10.2,9 8,9 C5.8,9 4,7.2 4,5 L4,4 C4,1.8 5.8,0 8,0 Z M15,16 L1,16 L1,15 C1,12.2 3.2,10 6,10 L10,10 C12.8,10 15,12.2 15,15 L15,16 Z M6,12 C4.7,12 3.6,12.8 3.2,14 L12.8,14 C12.4,12.8 11.3,12 10,12 L6,12 Z" id="i-16-account" fill="#818F99"></path>
    </g>
</svg>