<?xml version="1.0" encoding="UTF-8"?>
<svg width="16px" height="16px" viewBox="0 0 16 16" version="1.1" xmlns="http://www.w3.org/2000/svg" xmlns:xlink="http://www.w3.org/1999/xlink">
    <!-- Generator: Sketch 54.1 (76490) - https://sketchapp.com -->
    <title>Icons/16px/Alert</title>
    <desc>Created with Sketch.</desc>
    <g id="Icons/16px/Alert" stroke="none" stroke-width="1" fill="none" fill-rule="evenodd">
        <path d="M7.00074817,7 L9.00074817,7 L9.00074817,10 L7.00074817,10 L7.00074817,7 Z M8,13 C7.44771525,13 7,12.5522847 7,12 C7,11.4477153 7.44771525,11 8,11 C8.55228475,11 9,11.4477153 9,12 C9,12.5522847 8.55228475,13 8,13 Z M15.0007482,15.9565 L1.00074817,15.9565 C0.653748171,15.9565 0.332748171,15.7765 0.149748171,15.4815 C-0.0332518286,15.1865 -0.0492518286,14.8185 0.105748171,14.5085 L7.10574817,0.5085 C7.44574817,-0.1695 8.55474817,-0.1695 8.89474817,0.5085 L15.8947482,14.5085 C16.0497482,14.8185 16.0337482,15.1865 15.8507482,15.4815 C15.6677482,15.7765 15.3477482,15.9565 15.0007482,15.9565 Z M2.61874817,13.9565 L13.3827482,13.9565 L8.00074817,3.1925 L2.61874817,13.9565 Z" id="i-16-alert" fill="#818F99"></path>
    </g>
</svg>