<?xml version="1.0" encoding="UTF-8"?>
<svg width="16px" height="16px" viewBox="0 0 16 16" version="1.1" xmlns="http://www.w3.org/2000/svg" xmlns:xlink="http://www.w3.org/1999/xlink">
    <!-- Generator: Sketch 54.1 (76490) - https://sketchapp.com -->
    <title>Icons/16px/Brush</title>
    <desc>Created with Sketch.</desc>
    <g id="Icons/16px/Brush" stroke="none" stroke-width="1" fill="none" fill-rule="evenodd">
        <path d="M3.43933983,10.4393398 L2.41421356,9.41421356 C1.63316498,8.63316498 1.63316498,7.36683502 2.41421356,6.58578644 L9,-2.38919995e-13 L13,4 L13,5 L14,5 L16,7 L9.41421356,13.5857864 C8.63316498,14.366835 7.36683502,14.366835 6.58578644,13.5857864 L5.56066017,12.5606602 L2.56061025,15.5604277 C1.97479624,16.1461866 1.02504877,16.1461419 0.439289907,15.5603279 C-0.146468959,14.9745138 -0.146424256,14.0247664 0.439389752,13.4390075 L3.43933983,10.4393398 Z M6.12132003,5.7071071 L10.2928897,9.87868317 L13.1715729,7 L11,7 L11,4.82842712 L9,2.82842712 L6.12132003,5.7071071 L6.12132003,5.7071071 Z M4.70710646,7.12132066 L3.82842712,8 L8,12.1715729 L8.87867614,11.2928967 L4.70710646,7.12132066 L4.70710646,7.12132066 Z" id="i-16-brush" fill="#818F99"></path>
    </g>
</svg>