<?xml version="1.0" encoding="UTF-8"?>
<svg width="16px" height="16px" viewBox="0 0 16 16" version="1.1" xmlns="http://www.w3.org/2000/svg" xmlns:xlink="http://www.w3.org/1999/xlink">
    <!-- Generator: Sketch 54.1 (76490) - https://sketchapp.com -->
    <title>Icons/16px/Check Circle</title>
    <desc>Created with Sketch.</desc>
    <g id="Icons/16px/Check-Circle" stroke="none" stroke-width="1" fill="none" fill-rule="evenodd">
        <path d="M8,0 C12.411,0 16,3.589 16,8 C16,12.411 12.411,16 8,16 C3.589,16 0,12.411 0,8 C0,3.589 3.589,0 8,0 Z M8,14 C11.309,14 14,11.309 14,8 C14,4.691 11.309,2 8,2 C4.691,2 2,4.691 2,8 C2,11.309 4.691,14 8,14 Z M7,11.414 L3.586,8 L5,6.586 L7,8.586 L11,4.586 L12.414,6 L7,11.414 Z" id="i-16-check-circle" fill="#818F99"></path>
    </g>
</svg>