<?xml version="1.0" encoding="UTF-8"?>
<svg width="16px" height="16px" viewBox="0 0 16 16" version="1.1" xmlns="http://www.w3.org/2000/svg" xmlns:xlink="http://www.w3.org/1999/xlink">
    <!-- Generator: Sketch 54.1 (76490) - https://sketchapp.com -->
    <title>Icons/16px/Clipboard</title>
    <desc>Created with Sketch.</desc>
    <g id="Icons/16px/Clipboard" stroke="none" stroke-width="1" fill="none" fill-rule="evenodd">
        <path d="M6.3,10.7 L4.3,8.7 C3.9,8.3 3.9,7.7 4.3,7.3 C4.7,6.9 5.3,6.9 5.7,7.3 L7,8.6 L10.3,5.3 C10.7,4.9 11.3,4.9 11.7,5.3 C12.1,5.7 12.1,6.3 11.7,6.7 L7.7,10.7 C7.3,11.1 6.8,11.2 6.3,10.7 Z M15,1 C15.6,1 16,1.4 16,2 L16,15 C16,15.6 15.6,16 15,16 L1,16 C0.4,16 0,15.6 0,15 L0,2 C0,1.4 0.4,1 1,1 L4,1 L4,3 L2,3 L2,14 L14,14 L14,3 L12,3 L12,1 L15,1 Z M5,0 L11,0 L11,3 L5,3 L5,0 Z" id="i-16-clipboard" fill="#818F99"></path>
    </g>
</svg>