<?xml version="1.0" encoding="UTF-8"?>
<svg width="16px" height="16px" viewBox="0 0 16 16" version="1.1" xmlns="http://www.w3.org/2000/svg" xmlns:xlink="http://www.w3.org/1999/xlink">
    <!-- Generator: Sketch 54.1 (76490) - https://sketchapp.com -->
    <title>Icons/16px/Code</title>
    <desc>Created with Sketch.</desc>
    <g id="Icons/16px/Code" stroke="none" stroke-width="1" fill="none" fill-rule="evenodd">
        <path d="M12.7,11.7626462 L11.3,10.3626462 L13.6,8.06264622 L11.3,5.76264622 L12.7,4.36264622 L15.7,7.36264622 C16.1,7.76264622 16.1,8.36264622 15.7,8.76264622 L12.7,11.7626462 Z M3.3,11.7626462 L0.3,8.76264622 C-0.1,8.36264622 -0.1,7.76264622 0.3,7.36264622 L3.3,4.36264622 L4.7,5.76264622 L2.4,8.06264622 L4.7,10.3626462 L3.3,11.7626462 Z M6,15.0626462 C5.9,15.0626462 5.8,15.0626462 5.7,14.9626462 C5.2,14.7626462 4.9,14.2626462 5.1,13.6626462 L9.1,1.66264622 C9.3,1.16264622 9.8,0.862646221 10.4,1.06264622 C10.9,1.26264622 11.2,1.76264622 11,2.36264622 L7,14.3626462 C6.8,14.7626462 6.4,15.0626462 6,15.0626462 Z" id="i-16-code" fill="#818F99"></path>
    </g>
</svg>