<?xml version="1.0" encoding="UTF-8"?>
<svg width="16px" height="16px" viewBox="0 0 16 16" version="1.1" xmlns="http://www.w3.org/2000/svg" xmlns:xlink="http://www.w3.org/1999/xlink">
    <!-- Generator: Sketch 54.1 (76490) - https://sketchapp.com -->
    <title>Icons/16px/CSV</title>
    <desc>Created with Sketch.</desc>
    <g id="Icons/16px/CSV" stroke="none" stroke-width="1" fill="none" fill-rule="evenodd">
        <path d="M7.95683876,9 L7,9 C6.44771525,9 6,8.55228475 6,8 L6,6 C6,5.44771525 6.44771525,5 7,5 L9,5 C9.55228475,5 10,5.44771525 10,6 L10,8 C10,8.01815054 9.99951643,8.03618814 9.99856148,8.05410062 C10.0436989,10.5047138 9.0262179,12.0000077 7.00026852,12.0000077 C6.44798377,12.0000077 6.00026852,11.5522924 6.00026852,11.0000077 C6.00026852,10.4477229 6.44798377,10.0000077 7.00026852,10.0000077 C7.53676469,10.0000077 7.84806627,9.74201043 7.95683876,9 L7.95683876,9 Z M3,2 L3,14 L13,14 L13,4 L11,4 L11,2 L3,2 Z M1,0 L12,0 L15,3 L15,16 L1,16 L1,0 Z" id="i-16-csv" fill="#818F99"></path>
    </g>
</svg>