<?xml version="1.0" encoding="UTF-8"?>
<svg width="16px" height="16px" viewBox="0 0 16 16" version="1.1" xmlns="http://www.w3.org/2000/svg" xmlns:xlink="http://www.w3.org/1999/xlink">
    <!-- Generator: Sketch 54.1 (76490) - https://sketchapp.com -->
    <title>Icons/16px/Dashboard</title>
    <desc>Created with Sketch.</desc>
    <g id="Icons/16px/Dashboard" stroke="none" stroke-width="1" fill="none" fill-rule="evenodd">
        <path d="M3.28761775,11.1265958 L5.91421356,8.5 C6.30473785,8.10947571 6.93790283,8.10947571 7.32842712,8.5 L7.74264069,8.91421356 C8.13316498,9.30473785 8.13316498,9.93790283 7.74264069,10.3284271 L4.96857213,13.1024957 C4.98925508,13.2319496 5,13.36472 5,13.5 C5,14.8807119 3.88071187,16 2.5,16 C1.11928813,16 0,14.8807119 0,13.5 C0,12.1192881 1.11928813,11 2.5,11 C2.77518805,11 3.0399913,11.0444626 3.28761775,11.1265958 Z M2,1.02140518e-13 C9.72,1.02140518e-13 16,6.28 16,14.001 L16,15.001 L12,15.001 L12,13.001 L13.949,13.001 C13.736,10.443 12.723,8.112 11.154,6.26 L9.778,7.636 L8.364,6.222 L9.741,4.846 C7.888,3.277 5.558,2.264 3,2.051 L3,4 L1,4 L1,1.02140518e-13 L2,1.02140518e-13 Z" id="i-16-dashboard" fill="#818F99"></path>
    </g>
</svg>