<?xml version="1.0" encoding="UTF-8"?>
<svg width="16px" height="16px" viewBox="0 0 16 16" version="1.1" xmlns="http://www.w3.org/2000/svg" xmlns:xlink="http://www.w3.org/1999/xlink">
    <!-- Generator: Sketch 54.1 (76490) - https://sketchapp.com -->
    <title>Icons/16px/Data</title>
    <desc>Created with Sketch.</desc>
    <g id="Icons/16px/Data" stroke="none" stroke-width="1" fill="none" fill-rule="evenodd">
        <path d="M8,5.64705882 C4.61666667,5.64705882 1,4.8 1,2.82352941 C1,0.847058824 4.61666667,-7.48734408e-13 8,-7.48734408e-13 C11.3833333,-7.48734408e-13 15,0.847058824 15,2.82352941 C15,4.8 11.3833333,5.64705882 8,5.64705882 Z M1,6.58823529 C2.63333333,7.43529412 5.08333333,8 8,8 C10.9166667,8 13.3666667,7.43529412 15,6.58823529 L15,8 C15,9.97647059 11.3833333,10.8235294 8,10.8235294 C4.61666667,10.8235294 1,9.97647059 1,8 L1,6.58823529 Z M1,11.2941176 C2.63333333,12.1411765 5.08333333,12.7058824 8,12.7058824 C10.9166667,12.7058824 13.3666667,12.2352941 15,11.2941176 L15,12.7058824 C15,14.6823529 11.3833333,15.5294118 8,15.5294118 C4.61666667,15.5294118 1,14.6823529 1,12.7058824 L1,11.2941176 Z" id="i-16-data" fill="#818F99"></path>
    </g>
</svg>