<?xml version="1.0" encoding="UTF-8"?>
<svg width="16px" height="16px" viewBox="0 0 16 16" version="1.1" xmlns="http://www.w3.org/2000/svg" xmlns:xlink="http://www.w3.org/1999/xlink">
    <!-- Generator: Sketch 54.1 (76490) - https://sketchapp.com -->
    <title>Icons/16px/Engagement</title>
    <desc>Created with Sketch.</desc>
    <g id="Icons/16px/Engagement" stroke="none" stroke-width="1" fill="none" fill-rule="evenodd">
        <path d="M3,8.23822 C1.79529,7.42993 1,6.0567 1,4.5 C1,2.01855 3.01855,-3.63264974e-13 5.5,-3.63264974e-13 C7.98145,-3.63264974e-13 10,2.01855 10,4.5 C10,5.52753 9.64032,6.46423 9.05853,7.2226 L8,7.10498 L8,4.5 C8,3.12158 6.87891,2 5.5,2 C4.12109,2 3,3.12158 3,4.5 L3,8.23822 Z M13.89996,16 L1.78973,16 C1.28461,15.20221 1,14.28296 1,13.33331 L1,11.5 C1,10.67157 1.67157,10 2.5,10 L3,10 L3,12 L4,12 L4,4.5 C4,3.67157 4.67157,3 5.5,3 C6.32843,3 7,3.67157 7,4.5 L7,8 L12.42388,8.60266 C14.28533,8.80945 15.50427,10.65247 14.96606,12.44635 L13.89996,16 Z" id="i-16-engagement" fill="#818F99"></path>
    </g>
</svg>