<svg id="Layer_1" data-name="Layer 1" xmlns="http://www.w3.org/2000/svg" viewBox="0 0 16 16"><defs><style>.cls-1{fill:#818f99;}</style></defs><title>i-16-export_csv</title><rect class="cls-1" x="4" y="7" width="2" height="2"/><rect class="cls-1" x="4" y="10" width="2" height="2"/><polygon class="cls-1" points="2 2 10 2 12 4 12 7 14 7 14 3 11 0 0 0 0 16 7 16 7 14 2 14 2 2"/><path class="cls-1" d="M14,10v2.61L10.41,9,9,10.42,12.6,14H10v2h5a1,1,0,0,0,1-1V10Z"/><rect class="cls-1" x="7" y="4" width="2" height="2"/><rect class="cls-1" x="4" y="4" width="2" height="2"/></svg>