<?xml version="1.0" encoding="UTF-8"?>
<svg width="16px" height="16px" viewBox="0 0 16 16" version="1.1" xmlns="http://www.w3.org/2000/svg" xmlns:xlink="http://www.w3.org/1999/xlink">
    <!-- Generator: Sketch 54.1 (76490) - https://sketchapp.com -->
    <title>Icons/16px/Filters</title>
    <desc>Created with Sketch.</desc>
    <g id="Icons/16px/Filters" stroke="none" stroke-width="1" fill="none" fill-rule="evenodd">
        <path d="M9,15 L7,15 C6.448,15 6,14.552 6,14 C6,13.448 6.448,13 7,13 L9,13 C9.552,13 10,13.448 10,14 C10,14.552 9.552,15 9,15 Z M11,11 L5,11 C4.448,11 4,10.552 4,10 C4,9.448 4.448,9 5,9 L11,9 C11.552,9 12,9.448 12,10 C12,10.552 11.552,11 11,11 Z M13,7 L3,7 C2.448,7 2,6.552 2,6 C2,5.448 2.448,5 3,5 L13,5 C13.552,5 14,5.448 14,6 C14,6.552 13.552,7 13,7 Z M15,3 L1,3 C0.448,3 0,2.552 0,2 C0,1.448 0.448,1 1,1 L15,1 C15.552,1 16,1.448 16,2 C16,2.552 15.552,3 15,3 Z" id="i-16-filters" fill="#818F99"></path>
    </g>
</svg>