<?xml version="1.0" encoding="UTF-8"?>
<svg width="16px" height="16px" viewBox="0 0 16 16" version="1.1" xmlns="http://www.w3.org/2000/svg" xmlns:xlink="http://www.w3.org/1999/xlink">
    <!-- Generator: Sketch 54.1 (76490) - https://sketchapp.com -->
    <title>Icons/16px/Impact</title>
    <desc>Created with Sketch.</desc>
    <g id="Icons/16px/Impact" stroke="none" stroke-width="1" fill="none" fill-rule="evenodd">
        <path d="M4,7 C2.3,7 1,5.7 1,4 C1,2.3 2.3,1 4,1 C5.7,1 7,2.3 7,4 C7,5.7 5.7,7 4,7 Z M4,3 C3.4,3 3,3.4 3,4 C3,4.6 3.4,5 4,5 C4.6,5 5,4.6 5,4 C5,3.4 4.6,3 4,3 Z M12,9 C13.7,9 15,10.3 15,12 C15,13.7 13.7,15 12,15 C10.3,15 9,13.7 9,12 C9,10.3 10.3,9 12,9 Z M12,13 C12.6,13 13,12.6 13,12 C13,11.4 12.6,11 12,11 C11.4,11 11,11.4 11,12 C11,12.6 11.4,13 12,13 Z M14,1 C14.6,1 15,1.4 15,2 L15,7 L13,7 L13,4.4 L2.7,14.7 C2.5,14.9 2.3,15 2,15 C1.7,15 1.5,14.9 1.3,14.7 C0.9,14.3 0.9,13.7 1.3,13.3 L11.6,3 L9,3 L9,1 L14,1 Z" id="i-16-impact" fill="#818F99"></path>
    </g>
</svg>