<?xml version="1.0" encoding="UTF-8"?>
<svg width="16px" height="16px" viewBox="0 0 16 16" version="1.1" xmlns="http://www.w3.org/2000/svg" xmlns:xlink="http://www.w3.org/1999/xlink">
    <!-- Generator: Sketch 54.1 (76490) - https://sketchapp.com -->
    <title>Icons/16px/Link</title>
    <desc>Created with Sketch.</desc>
    <g id="Icons/16px/Link" stroke="none" stroke-width="1" fill="none" fill-rule="evenodd">
        <path d="M4.5,16 C3.3,16 2.2,15.5 1.3,14.7 C-0.5,12.9 -0.5,10.1 1.3,8.3 L2,7.6 L3.4,9 L2.7,9.7 C1.7,10.7 1.7,12.3 2.7,13.3 C3.7,14.3 5.3,14.3 6.3,13.3 L9.3,10.3 C10.3,9.3 10.3,7.7 9.3,6.7 L8.6,6 L10,4.6 L10.7,5.3 C12.5,7.1 12.5,9.9 10.7,11.7 L7.7,14.7 C6.9,15.5 5.7,16 4.5,16 Z M6,11.4 L5.3,10.7 C3.5,8.9 3.5,6.1 5.3,4.3 L8.3,1.3 C9.2,0.4 10.3,0 11.5,0 C12.7,0 13.8,0.5 14.7,1.3 C16.5,3.1 16.5,5.9 14.7,7.7 L14,8.4 L12.6,7 L13.3,6.3 C14.3,5.3 14.3,3.7 13.3,2.7 C12.3,1.7 10.7,1.7 9.7,2.7 L6.7,5.7 C5.7,6.7 5.7,8.3 6.7,9.3 L7.4,10 L6,11.4 Z" id="i-16-link" fill="#818F99"></path>
    </g>
</svg>