<?xml version="1.0" encoding="UTF-8"?>
<svg width="16px" height="16px" viewBox="0 0 16 16" version="1.1" xmlns="http://www.w3.org/2000/svg" xmlns:xlink="http://www.w3.org/1999/xlink">
    <!-- Generator: Sketch 54.1 (76490) - https://sketchapp.com -->
    <title>Icons/16px/Loader</title>
    <desc>Created with Sketch.</desc>
    <g id="Icons/16px/Loader" stroke="none" stroke-width="1" fill="none" fill-rule="evenodd">
        <path d="M5.23347745,14.4317831 C4.72622545,14.2133481 4.49209301,13.6250625 4.71052802,13.1178105 C4.92896303,12.6105585 5.51724859,12.3764261 6.02450059,12.5948611 C6.64247073,12.860974 7.31059705,13 8,13 C10.7614237,13 13,10.7614237 13,8 C13,5.23857625 10.7614237,3 8,3 C5.23857625,3 3,5.23857625 3,8 C3,8.29570027 3.02555861,8.58768224 3.07594276,8.87391208 C3.17168768,9.41783427 2.80836822,9.93638693 2.26444603,10.0321319 C1.72052383,10.1278768 1.20197117,9.76455732 1.10622625,9.22063513 C1.03571362,8.8200564 1,8.41206341 1,8 C1,4.13400675 4.13400675,1 8,1 C11.8659932,1 15,4.13400675 15,8 C15,11.8659932 11.8659932,15 8,15 C7.03731054,15 6.10014629,14.8049917 5.23347745,14.4317831 Z" id="i-16-loader" fill="#818F99"></path>
    </g>
</svg>