<?xml version="1.0" encoding="UTF-8"?>
<svg width="16px" height="16px" viewBox="0 0 16 16" version="1.1" xmlns="http://www.w3.org/2000/svg" xmlns:xlink="http://www.w3.org/1999/xlink">
    <!-- Generator: Sketch 54.1 (76490) - https://sketchapp.com -->
    <title>Icons/16px/Package</title>
    <desc>Created with Sketch.</desc>
    <g id="Icons/16px/Package" stroke="none" stroke-width="1" fill="none" fill-rule="evenodd">
        <path d="M15.4,3.1 L8.4,0.1 C8.1,-5.37764278e-16 7.9,-5.37764278e-16 7.6,0.1 L0.6,3.1 C0.2,3.2 0,3.6 0,4 L0,12 C0,12.4 0.2,12.8 0.6,12.9 L7.6,15.9 C7.7,16 7.9,16 8,16 C8.1,16 8.3,16 8.4,15.9 L15.4,12.9 C15.8,12.7 16,12.4 16,12 L16,4 C16,3.6 15.8,3.2 15.4,3.1 Z M8,2.1 L12.5,4 L8,5.9 L3.5,4 L8,2.1 Z M2,5.5 L7,7.6 L7,13.4 L2,11.3 L2,5.5 Z M9,13.5 L9,7.7 L14,5.6 L14,11.4 L9,13.5 Z" id="i-16-package" fill="#818F99"></path>
    </g>
</svg>