<svg width="16" height="16" xmlns="http://www.w3.org/2000/svg"><path d="M8.136 2.046C10.093.86 12.359.136 14.948 0a1 1 0 0 1 1.05 1.056c-.145 2.568-.87 4.822-2.05 6.773a6.26 6.26 0 0 1-1.506 6.44 6.26 6.26 0 0 1-1.25.962 1 1 0 0 1-1.216-.154l-1.74-1.74c-.504.288-.906.482-1.165.588a1 1 0 0 1-1.086-.219l-3.692-3.692a1 1 0 0 1-.22-1.08c.104-.262.297-.667.585-1.175L.923 6.024A1 1 0 0 1 .769 4.81c.272-.462.59-.88.961-1.25a6.26 6.26 0 0 1 6.406-1.513zm-4.36 4.003a16.28 16.28 0 0 1 2.102-2.315 4.255 4.255 0 0 0-2.947 1.47l.845.845zm8.497 4.032a16.439 16.439 0 0 1-2.333 2.133l.856.856a4.264 4.264 0 0 0 1.477-2.989zM7.48 11.46a14.47 14.47 0 0 0 2.678-2.065c1.982-1.938 3.313-4.346 3.728-7.288-2.962.404-5.376 1.738-7.311 3.732a14.317 14.317 0 0 0-2.37 3.26l2.691 2.69c.183-.096.378-.206.584-.329zm-3.567 3.453C3.133 15.695 0 16 0 16s.305-3.133 1.086-3.914a2 2 0 1 1 2.828 2.828zM9 8a1 1 0 1 1 0-2 1 1 0 0 1 0 2z" fill="#818F99" fill-rule="evenodd"/></svg>