<?xml version="1.0" encoding="UTF-8"?>
<svg width="16px" height="16px" viewBox="0 0 16 16" version="1.1" xmlns="http://www.w3.org/2000/svg" xmlns:xlink="http://www.w3.org/1999/xlink">
    <!-- Generator: Sketch 54.1 (76490) - https://sketchapp.com -->
    <title>Icons/16px/Search</title>
    <desc>Created with Sketch.</desc>
    <g id="Icons/16px/Search" stroke="none" stroke-width="1" fill="none" fill-rule="evenodd">
        <path d="M13,11 C13.6,10.0372671 14.1,8.64596273 14,7 C14.1,3.18012422 11,0 7,0 C3.2,0 0,3.18012422 0,7 C0,10.931677 3.2,14.1118012 7,14 C8.7,14.1118012 10.2,13.6149068 11,13 L14,16 C14.5,15.9006211 14.8,16 15,16 C15.2,16 15.5,15.9006211 16,16 C16.1,15.3043478 16.1,14.7080745 16,14 L13,11 Z M7,12 C4.25490196,12 2,9.82178218 2,7 C2,4.27722772 4.25490196,2 7,2 C9.74509804,2 12,4.27722772 12,7 C12,9.82178218 9.74509804,12 7,12 Z" id="i-16-search" fill="#818F99"></path>
    </g>
</svg>