<svg width="16" height="16" xmlns="http://www.w3.org/2000/svg"><path d="M7.811 12.956L5.51 15.64c-.604.705-1.76.278-1.759-.651l.004-5.416a.995.995 0 0 1 .07-.571 1 1 0 0 1 .375-.466L8.414 5.72a1 1 0 0 1 1.11 1.664L6.445 9.44l1.58 1.185a.998.998 0 0 1 .467.35l3.043 2.282 2.13-10.653L3.013 6.866l.451.338a.996.996 0 1 1-1.195 1.594L.398 7.397a.996.996 0 0 1 .228-1.722L14.633.073a.996.996 0 0 1 1.347 1.12l-2.802 14.006a.996.996 0 0 1-1.574.601l-3.793-2.844zm-1.603-1.203l-.455-.341-.001.873.456-.532z" fill="#818F99" fill-rule="evenodd"/></svg>