<?xml version="1.0" encoding="UTF-8"?>
<svg width="16px" height="16px" viewBox="0 0 16 16" version="1.1" xmlns="http://www.w3.org/2000/svg" xmlns:xlink="http://www.w3.org/1999/xlink">
    <!-- Generator: Sketch 54.1 (76490) - https://sketchapp.com -->
    <title>Icons/16px/Shield</title>
    <desc>Created with Sketch.</desc>
    <g id="Icons/16px/Shield" stroke="none" stroke-width="1" fill="none" fill-rule="evenodd">
        <path d="M8,16 C4.40224527,14.2011226 1.51235673,14.430985 0.444528333,8 C0.155537934,6.25955844 6.8567374e-13,4.03125894 6.8567374e-13,1.14285714 C4.03366963,1.14285714 8,-1.28900597e-13 8,-1.28900597e-13 C8,-1.28900597e-13 11.9663304,1.14285714 16,1.14285714 C16,4.03125894 15.8444621,6.25955844 15.5554717,8 C14.4876433,14.430985 11.5977547,14.2011226 8,16 L8,16 Z M13.3309272,8 C13.5395385,6.80482128 13.649994,5.28835546 13.6928347,3.32662727 C12.4914355,3.22419927 11.2722228,3.04838282 10.058528,2.8165524 C9.23699383,2.65962941 8.53819427,2.50171246 8,2.36602302 L8,8 L2.66907275,8 C3.18524876,10.9572839 4.3023713,11.9475259 6.48310002,12.8488125 C6.45812691,12.8384912 7.3780097,13.2143666 7.66025656,13.3336019 C7.77687854,13.3828689 7.88985869,13.4313244 8,13.4793911 L8,8 L13.3309272,8 L13.3309272,8 Z" id="i-16-shield" fill="#818F99"></path>
    </g>
</svg>