<?xml version="1.0" encoding="UTF-8"?>
<svg width="16px" height="16px" viewBox="0 0 16 16" version="1.1" xmlns="http://www.w3.org/2000/svg" xmlns:xlink="http://www.w3.org/1999/xlink">
    <!-- Generator: Sketch 54.1 (76490) - https://sketchapp.com -->
    <title>Icons/16px/Sort</title>
    <desc>Created with Sketch.</desc>
    <g id="Icons/16px/Sort" stroke="none" stroke-width="1" fill="none" fill-rule="evenodd">
        <path d="M1,1 L8,1 L8,3 L1,3 C0.44771525,3 6.76353751e-17,2.55228475 0,2 C-6.76353751e-17,1.44771525 0.44771525,1 1,1 Z M1,9 L6,9 L6,11 L1,11 C0.44771525,11 6.76353751e-17,10.5522847 0,10 C-6.76353751e-17,9.44771525 0.44771525,9 1,9 Z M1,13 L13,13 C13.5522847,13 14,13.4477153 14,14 C14,14.5522847 13.5522847,15 13,15 L1,15 C0.44771525,15 6.76353751e-17,14.5522847 0,14 C-6.76353751e-17,13.4477153 0.44771525,13 1,13 Z M1,5 L5,5 L5,7 L1,7 C0.44771525,7 6.76353751e-17,6.55228475 0,6 C-6.76353751e-17,5.44771525 0.44771525,5 1,5 Z M8.00000002,5.6 L10,7.6 L10,1 L12,1 L12,7.6 L14,5.6 L15.4,7 L11.7,10.7 C11.3,11.1 10.7,11.1 10.3,10.7 L6.60000002,7 L8.00000002,5.6 Z" id="i-16-sort" fill="#818F99"></path>
    </g>
</svg>