<?xml version="1.0" encoding="UTF-8"?>
<svg width="16px" height="16px" viewBox="0 0 16 16" version="1.1" xmlns="http://www.w3.org/2000/svg" xmlns:xlink="http://www.w3.org/1999/xlink">
    <!-- Generator: Sketch 54.1 (76490) - https://sketchapp.com -->
    <title>Icons/16px/Target</title>
    <desc>Created with Sketch.</desc>
    <g id="Icons/16px/Target" stroke="none" stroke-width="1" fill="none" fill-rule="evenodd">
        <path d="M13,7 L16,4 L13,3 L12,0 L9,3 L9.6,4.9 L8.6,5.9 C7.7,5.3 6.6,4.9 5.5,4.9 C2.5,5 0,7.5 0,10.5 C0,13.5 2.5,16 5.5,16 C8.5,16 11,13.5 11,10.5 C11,9.3 10.6,8.3 10,7.4 L11,6.4 L13,7 Z M9,10.5 C9,12.4 7.4,14 5.5,14 C3.6,14 2,12.4 2,10.5 C2,8.6 3.6,7 5.5,7 C6.1,7 6.7,7.2 7.2,7.4 L4.8,9.8 C4.4,10.2 4.4,10.8 4.8,11.2 C5,11.4 5.3,11.5 5.5,11.5 C5.7,11.5 6,11.4 6.2,11.2 L8.6,8.8 C8.8,9.3 9,9.9 9,10.5 Z" id="i-16-target" fill="#818F99"></path>
    </g>
</svg>