<svg width="16" height="16" xmlns="http://www.w3.org/2000/svg"><path d="M3.928 10.231a4.369 4.369 0 0 1-1.865-3.58v-.394c0-1.46.73-2.825 1.945-3.635a3.704 3.704 0 0 1 4.11 0 4.369 4.369 0 0 1 1.945 3.635v.394a4.369 4.369 0 0 1-1.865 3.58c2.355.567 3.708 2.166 3.863 4.708L12.126 16H0l.065-1.06c.155-2.543 1.508-4.142 3.863-4.709zM11.614 9a6.364 6.364 0 0 0 .449-2.349v-.394c0-1.69-.67-3.29-1.831-4.469a2.871 2.871 0 0 1 1.08-1.4 2.214 2.214 0 0 1 2.5 0 2.871 2.871 0 0 1 1.25 2.37v.392a2.871 2.871 0 0 1-1.4 2.464c1.507.346 2.308 1.474 2.4 3.386h-4.448zm-1.737 5c-.441-1.366-1.64-2-3.814-2-2.174 0-3.373.634-3.815 2h7.63zM4.063 6.651c0 .792.396 1.532 1.055 1.971a1.704 1.704 0 0 0 1.89 0 2.369 2.369 0 0 0 1.055-1.97v-.395c0-.792-.396-1.532-1.055-1.97a1.704 1.704 0 0 0-1.89 0 2.369 2.369 0 0 0-1.055 1.97v.394z" fill="#818F99" fill-rule="evenodd"/></svg>