<?xml version="1.0" encoding="UTF-8"?>
<svg width="16px" height="16px" viewBox="0 0 16 16" version="1.1" xmlns="http://www.w3.org/2000/svg" xmlns:xlink="http://www.w3.org/1999/xlink">
    <!-- Generator: Sketch 54.1 (76490) - https://sketchapp.com -->
    <title>Icons/16px/Users</title>
    <desc>Created with Sketch.</desc>
    <g id="Icons/16px/Users" stroke="none" stroke-width="1" fill="none" fill-rule="evenodd">
        <path d="M3.92794499,10.2314748 C2.76076763,9.41543265 2.06281513,8.07960983 2.06281513,6.65138782 L2.06281513,6.25693909 C2.06281513,4.79631148 2.7927993,3.43232359 4.00811493,2.62211316 C5.25234126,1.79262895 6.873289,1.79262895 8.11751533,2.62211316 C9.33283096,3.43232359 10.0628151,4.79631148 10.0628151,6.25693909 L10.0628151,6.65138782 C10.0628151,8.07960983 9.36486263,9.41543265 8.19768527,10.2314748 C10.5530342,10.7980197 11.9059695,12.396574 12.0609623,14.9391541 L12.1256303,16 L0,16 L0.0646679601,14.9391541 C0.219660747,12.396574 1.57259602,10.7980197 3.92794499,10.2314748 L3.92794499,10.2314748 Z M11.6139658,9 C11.9065063,8.26283211 12.0628151,7.46745652 12.0628151,6.65138782 L12.0628151,6.25693909 C12.0628151,4.56772158 11.3930828,2.9671673 10.2316834,1.78799457 C10.4331663,1.22692915 10.807325,0.73427717 11.3128151,0.388422003 C12.066396,-0.127176298 13.0592343,-0.127176298 13.8128151,0.388422003 C14.5950734,0.923641332 15.0628151,1.81041436 15.0628151,2.75824754 L15.0628151,3.15007937 C15.0628151,4.09791255 14.5950734,4.98468558 13.8128151,5.51990491 C13.7636767,5.55352531 13.713521,5.58495345 13.6624806,5.61418931 C15.1694671,5.95952225 15.9695786,7.08812581 16.0628151,9 L11.6139658,9 L11.6139658,9 Z M9.87748962,14 C9.43580578,12.6342999 8.23617708,12 6.06281513,12 C3.88945318,12 2.68982449,12.6342999 2.24814064,14 L9.87748962,14 Z M4.06281513,6.65138782 C4.06281513,7.44330906 4.45859703,8.18283429 5.11751533,8.62211316 C5.68994283,9.0037315 6.43568743,9.0037315 7.00811493,8.62211316 C7.66703324,8.18283429 8.06281513,7.44330906 8.06281513,6.65138782 L8.06281513,6.25693909 C8.06281513,5.46501785 7.66703324,4.72549262 7.00811493,4.28621375 C6.43568743,3.90459542 5.68994283,3.90459542 5.11751533,4.28621375 C4.45859703,4.72549262 4.06281513,5.46501785 4.06281513,6.25693909 L4.06281513,6.65138782 Z" id="i-16-users" fill="#818F99"></path>
    </g>
</svg>