<?xml version="1.0" encoding="UTF-8"?>
<svg width="16px" height="16px" viewBox="0 0 16 16" version="1.1" xmlns="http://www.w3.org/2000/svg" xmlns:xlink="http://www.w3.org/1999/xlink">
    <!-- Generator: Sketch 54.1 (76490) - https://sketchapp.com -->
    <title>Icons/16px/Wallet</title>
    <desc>Created with Sketch.</desc>
    <g id="Icons/16px/Wallet" stroke="none" stroke-width="1" fill="none" fill-rule="evenodd">
        <path d="M15,4 L11,4 L11,1 C11,0.4 10.6,0 10,0 L3,0 C1.3,0 0,1.3 0,3 L0,13 C0,14.7 1.3,16 3,16 L15,16 C15.6,16 16,15.6 16,15 L16,5 C16,4.4 15.6,4 15,4 Z M2,3 C2,2.4 2.4,2 3,2 L9,2 L9,4 L2,4 L2,3 Z M14,14 L3,14 C2.4,14 2,13.6 2,13 L2,6 L10,6 L14,6 L14,14 Z M11,9 L11,11 L13,11 L13,9 L11,9 Z" id="Icon" fill="#818F99"></path>
    </g>
</svg>