<?xml version="1.0" encoding="UTF-8"?>
<svg width="12px" height="12px" viewBox="0 0 12 12" version="1.1" xmlns="http://www.w3.org/2000/svg" xmlns:xlink="http://www.w3.org/1999/xlink">
    <!-- Generator: Sketch 54.1 (76490) - https://sketchapp.com -->
    <title>Icons/12px/Chevrons/Double Right</title>
    <desc>Created with Sketch.</desc>
    <g id="Icons/12px/Chevrons/Double-Right" stroke="none" stroke-width="1" fill="none" fill-rule="evenodd">
        <path d="M8.58578644,6 L6.29289322,3.70710678 C5.90236893,3.31658249 5.90236893,2.68341751 6.29289322,2.29289322 C6.68341751,1.90236893 7.31658249,1.90236893 7.70710678,2.29289322 L10.7071068,5.29289322 C11.0976311,5.68341751 11.0976311,6.31658249 10.7071068,6.70710678 L7.70710678,9.70710678 C7.31658249,10.0976311 6.68341751,10.0976311 6.29289322,9.70710678 C5.90236893,9.31658249 5.90236893,8.68341751 6.29289322,8.29289322 L8.58578644,6 Z M3.58578644,6 L1.29289322,3.70710678 C0.902368927,3.31658249 0.902368927,2.68341751 1.29289322,2.29289322 C1.68341751,1.90236893 2.31658249,1.90236893 2.70710678,2.29289322 L5.70710678,5.29289322 C6.09763107,5.68341751 6.09763107,6.31658249 5.70710678,6.70710678 L2.70710678,9.70710678 C2.31658249,10.0976311 1.68341751,10.0976311 1.29289322,9.70710678 C0.902368927,9.31658249 0.902368927,8.68341751 1.29289322,8.29289322 L3.58578644,6 Z" id="i-12-chevron-double-right" fill="#818F99"></path>
    </g>
</svg>