<?xml version="1.0" encoding="UTF-8"?>
<svg width="16px" height="16px" viewBox="0 0 16 16" version="1.1" xmlns="http://www.w3.org/2000/svg" xmlns:xlink="http://www.w3.org/1999/xlink">
    <!-- Generator: Sketch 54.1 (76490) - https://sketchapp.com -->
    <title>Icons/16px/Charts/Bubble</title>
    <desc>Created with Sketch.</desc>
    <g id="Icons/16px/Charts/Bubble" stroke="none" stroke-width="1" fill="none" fill-rule="evenodd">
        <path d="M4.05946073,5.04447238 C4.02053062,4.86919752 4,4.68699635 4,4.5 C4,3.11928813 5.11928813,2 6.5,2 C7.88071187,2 9,3.11928813 9,4.5 C9,5.82670702 7.96655865,6.91204089 6.66076337,6.99491418 C6.87825115,7.45083354 7,7.96119878 7,8.5 C7,10.4329966 5.43299662,12 3.5,12 C1.56700338,12 0,10.4329966 0,8.5 C0,6.56700338 1.56700338,5 3.5,5 C3.69042138,5 3.87729101,5.01520685 4.05946073,5.04447238 L4.05946073,5.04447238 Z M8.8817842e-16,14 L16,14 L16,16 L8.8817842e-16,16 L8.8817842e-16,14 Z M13,5 C11.8954305,5 11,4.1045695 11,3 C11,1.8954305 11.8954305,1 13,1 C14.1045695,1 15,1.8954305 15,3 C15,4.1045695 14.1045695,5 13,5 Z M12,12 C10.3431458,12 9,10.6568542 9,9 C9,7.34314575 10.3431458,6 12,6 C13.6568542,6 15,7.34314575 15,9 C15,10.6568542 13.6568542,12 12,12 Z" id="i-16-chart-bubble" fill="#818F99"></path>
    </g>
</svg>