<svg width="16" height="16" xmlns="http://www.w3.org/2000/svg"><path d="M4 10.987H2.481V3.764L1 4.46V2.926l2.84-1.41H4v9.47zm5.654 0H4.627V9.68l2.309-3.27a7.37 7.37 0 0 0 .647-1.192 2.61 2.61 0 0 0 .208-.982c0-.422-.065-.753-.196-.992-.131-.24-.32-.36-.566-.36-.27 0-.483.14-.641.418-.159.279-.238.67-.238 1.175H4.486c0-.583.109-1.116.326-1.599.216-.483.521-.858.914-1.126a2.311 2.311 0 0 1 1.333-.401c.761 0 1.352.233 1.772.701.42.468.63 1.133.63 1.995 0 .535-.116 1.078-.349 1.628-.232.55-.653 1.229-1.262 2.034L6.754 9.453h2.9v1.534zm1.459-5.595h.79c.299 0 .518-.118.659-.355.14-.238.21-.554.21-.95 0-.379-.072-.674-.216-.885a.668.668 0 0 0-.579-.316c-.227 0-.412.1-.556.3-.144.2-.216.452-.216.757h-1.63c0-.496.1-.941.302-1.335a2.27 2.27 0 0 1 2.054-1.256c.772 0 1.377.241 1.814.724.438.483.657 1.145.657 1.985 0 .43-.099.83-.297 1.197-.197.368-.458.65-.78.846.395.191.69.479.884.861.194.383.291.836.291 1.358 0 .845-.237 1.521-.711 2.03-.475.51-1.098.764-1.87.764-.718 0-1.3-.251-1.748-.754C9.724 9.861 9.5 9.2 9.5 8.382h1.63c0 .34.079.625.236.855.158.23.358.346.6.346a.77.77 0 0 0 .665-.352c.163-.235.245-.549.245-.94 0-.936-.321-1.406-.962-1.41h-.801V5.392zM0 14h16v2H0v-2z" fill="#818F99" fill-rule="evenodd"/></svg>