<?xml version="1.0" encoding="UTF-8"?>
<svg width="16px" height="16px" viewBox="0 0 16 16" version="1.1" xmlns="http://www.w3.org/2000/svg" xmlns:xlink="http://www.w3.org/1999/xlink">
    <!-- Generator: Sketch 54.1 (76490) - https://sketchapp.com -->
    <title>Icons/16px/Charts/Line</title>
    <desc>Created with Sketch.</desc>
    <g id="Icons/16px/Charts/Line" stroke="none" stroke-width="1" fill="none" fill-rule="evenodd">
        <path d="M9.56230011,7.31466277 C8.61960922,7.77746868 7.67161005,8.19180222 6.71830287,8.55759024 C4.56036195,9.38560133 2.32058778,9.9858118 -2.30926389e-14,10.3583784 L-2.30926389e-14,8.33117456 C2.07219224,7.97761009 4.07250948,7.43061692 6.00182703,6.69032958 C6.12655731,6.64247004 6.2512155,6.59371636 6.37580159,6.54406836 C6.24799634,6.51990673 6.12028505,6.49658397 5.99266769,6.47409991 C4.02600498,6.12760663 2.02869983,5.97095627 2.23154828e-14,6.00441873 L-1.42108547e-14,4.00416316 C2.14359168,3.97084429 4.25706948,4.13751298 6.33968973,4.50443606 C7.34119004,4.68088377 8.34670992,4.90560307 9.35623531,5.17852306 C11.5945288,4.01812811 13.8091156,2.56312859 16,0.812365464 L16,3.33995914 C14.6786534,4.3271518 13.3463125,5.21431447 12.0029782,6.00122808 C13.3285384,6.46654565 14.6608894,7.01372625 15.9999999,7.64261266 L16,9.86317704 C13.8286738,8.78736025 11.6828245,7.93811094 9.56230011,7.31466277 L9.56230011,7.31466277 Z M-1.0658141e-14,14 L16,14 L16,16 L-1.0658141e-14,16 L-1.0658141e-14,14 Z" id="i-16-chart-line" fill="#818F99"></path>
    </g>
</svg>