<?xml version="1.0" encoding="UTF-8"?>
<svg width="16px" height="16px" viewBox="0 0 16 16" version="1.1" xmlns="http://www.w3.org/2000/svg" xmlns:xlink="http://www.w3.org/1999/xlink">
    <!-- Generator: Sketch 54.1 (76490) - https://sketchapp.com -->
    <title>Icons/16px/Charts/Scatter</title>
    <desc>Created with Sketch.</desc>
    <g id="Icons/16px/Charts/Scatter" stroke="none" stroke-width="1" fill="none" fill-rule="evenodd">
        <path d="M1.50990331e-14,14 L16,14 L16,16 L1.50990331e-14,16 L1.50990331e-14,14 Z M14.5,6 C13.6715729,6 13,5.32842712 13,4.5 C13,3.67157288 13.6715729,3 14.5,3 C15.3284271,3 16,3.67157288 16,4.5 C16,5.32842712 15.3284271,6 14.5,6 Z M4.5,7 C3.67157288,7 3,6.32842712 3,5.5 C3,4.67157288 3.67157288,4 4.5,4 C5.32842712,4 6,4.67157288 6,5.5 C6,6.32842712 5.32842712,7 4.5,7 Z M9.5,4 C8.67157288,4 8,3.32842712 8,2.5 C8,1.67157288 8.67157288,1 9.5,1 C10.3284271,1 11,1.67157288 11,2.5 C11,3.32842712 10.3284271,4 9.5,4 Z M14.5,11 C13.6715729,11 13,10.3284271 13,9.5 C13,8.67157288 13.6715729,8 14.5,8 C15.3284271,8 16,8.67157288 16,9.5 C16,10.3284271 15.3284271,11 14.5,11 Z M5.5,12 C4.67157288,12 4,11.3284271 4,10.5 C4,9.67157288 4.67157288,9 5.5,9 C6.32842712,9 7,9.67157288 7,10.5 C7,11.3284271 6.32842712,12 5.5,12 Z M9.5,9 C8.67157288,9 8,8.32842712 8,7.5 C8,6.67157288 8.67157288,6 9.5,6 C10.3284271,6 11,6.67157288 11,7.5 C11,8.32842712 10.3284271,9 9.5,9 Z M1.5,12 C0.671572875,12 0,11.3284271 0,10.5 C0,9.67157288 0.671572875,9 1.5,9 C2.32842712,9 3,9.67157288 3,10.5 C3,11.3284271 2.32842712,12 1.5,12 Z" id="i-16-chart-scatter" fill="#818F99"></path>
    </g>
</svg>