<svg width="16" height="16" xmlns="http://www.w3.org/2000/svg"><path d="M0 14h16v2H0v-2zm10.711-5.158c-.07.604-.268 1.077-.598 1.42-.417.435-1.02.652-1.812.652H4.662l-.419-1.8H2.09l-.419 1.8H0l2.444-8.793h1.445l1.823 6.517V2.121h2.417c.816 0 1.437.204 1.86.613.425.408.637 1.007.637 1.797l-.001.106c.11-.672.324-1.224.645-1.656C11.757 2.327 12.434 2 13.3 2c.853 0 1.5.268 1.942.803.443.536.694 1.305.755 2.307h-1.584c-.015-.62-.1-1.047-.256-1.283-.155-.236-.44-.353-.856-.353-.423 0-.722.166-.897.498-.176.332-.269.879-.28 1.64v1.66c0 .874.087 1.474.26 1.8.175.326.473.49.895.49.416 0 .702-.114.86-.342.157-.227.247-.639.268-1.235h1.58c-.04 1.003-.29 1.762-.753 2.277-.462.515-1.113.773-1.955.773-.884 0-1.562-.327-2.033-.981a3.485 3.485 0 0 1-.535-1.212zm-.171-1.599V5.775c0-.223.008-.436.025-.64-.044.2-.111.383-.202.55a1.625 1.625 0 0 1-.72.706c.351.112.622.339.812.68.03.055.059.113.085.172zm-8.107.392h1.461L3.164 4.5l-.73 3.135zm4.859-.544v2.35h1.01c.282 0 .497-.099.644-.296.147-.198.22-.477.22-.84 0-.789-.254-1.194-.762-1.214H7.292zm0-1.292h.822c.62 0 .929-.36.929-1.081 0-.399-.072-.685-.215-.858-.143-.173-.376-.26-.698-.26h-.838V5.8z" fill="#818F99" fill-rule="evenodd"/></svg>