<?xml version="1.0" encoding="UTF-8"?>
<svg width="16px" height="16px" viewBox="0 0 16 16" version="1.1" xmlns="http://www.w3.org/2000/svg" xmlns:xlink="http://www.w3.org/1999/xlink">
    <!-- Generator: Sketch 54.1 (76490) - https://sketchapp.com -->
    <title>Icons/16px/Sharing/Eye</title>
    <desc>Created with Sketch.</desc>
    <g id="Icons/16px/Sharing/Eye" stroke="none" stroke-width="1" fill="none" fill-rule="evenodd">
        <path d="M8.00012749,14 C3.26912749,14 0.254127489,8.713 0.128127489,8.489 C-0.0418725111,8.186 -0.0428725111,7.817 0.126127489,7.514 C0.251127489,7.289 3.24512749,2 8.00012749,2 C12.7311275,2 15.7461275,7.287 15.8721275,7.512 C16.0431275,7.816 16.0421275,8.188 15.8711275,8.492 C15.7441275,8.716 12.7071275,14 8.00012749,14 Z M8.00012749,4 C5.14612749,4 2.95812749,6.835 2.18112749,7.999 C2.96212749,9.162 5.15912749,12 8.00012749,12 C10.8371275,12 13.0341275,9.166 13.8181275,8 C13.0361275,6.835 10.8391275,4 8.00012749,4 Z M8.00012749,10 C6.89555799,10 6.00012749,9.1045695 6.00012749,8 C6.00012749,6.8954305 6.89555799,6 8.00012749,6 C9.10469699,6 10.0001275,6.8954305 10.0001275,8 C10.0001275,9.1045695 9.10469699,10 8.00012749,10 Z" id="i-16-share-visible" fill="#818F99"></path>
    </g>
</svg>