<svg width="16" height="16" xmlns="http://www.w3.org/2000/svg"><path d="M4.33 12.822l-2.773 3.004-1.47-1.356 2.639-2.86A14.156 14.156 0 0 1 .128 8.403a.998.998 0 0 1-.002-.975C.251 7.202 3.246 1.913 8 1.913c1.1 0 2.107.286 3.006.727L13.443 0l1.47 1.357-2.198 2.38-1.36 1.475-1.603 1.736-2.574 2.79-1.456 1.576-1.392 1.508zm1.936.852l1.627-1.762.107.001c2.837 0 5.034-2.834 5.818-4a13.21 13.21 0 0 0-1.015-1.32l1.365-1.48a13.906 13.906 0 0 1 1.704 2.312 1 1 0 0 1 0 .98c-.128.224-3.165 5.508-7.872 5.508a6.457 6.457 0 0 1-1.734-.24zm3.302-9.476A4.59 4.59 0 0 0 8 3.913c-2.854 0-5.042 2.835-5.819 4 .36.534 1.018 1.423 1.902 2.228l1.922-2.083a2 2 0 0 1 1.98-2.145l1.583-1.715z" fill="#818F99" fill-rule="evenodd"/></svg>