<?xml version="1.0" encoding="UTF-8"?>
<svg width="16px" height="16px" viewBox="0 0 16 16" version="1.1" xmlns="http://www.w3.org/2000/svg" xmlns:xlink="http://www.w3.org/1999/xlink">
    <!-- Generator: Sketch 54.1 (76490) - https://sketchapp.com -->
    <title>Icons/16px/Sharing/Private</title>
    <desc>Created with Sketch.</desc>
    <g id="Icons/16px/Sharing/Private" stroke="none" stroke-width="1" fill="none" fill-rule="evenodd">
        <path d="M4.32969042,12.8219028 L1.55652334,15.8261671 L0.0869164526,14.4696069 L2.725718,11.6109052 C1.12634198,10.1549395 0.196900013,8.52434581 0.128127489,8.40208355 C-0.0418725111,8.09908355 -0.0428725111,7.73008355 0.126127489,7.42708355 C0.251127489,7.20208355 3.24512749,1.91308355 8.00012749,1.91308355 C9.09986224,1.91308355 10.106874,2.1987632 11.0064295,2.64013447 L13.4434767,0 L14.9130835,1.35656021 L12.7152806,3.73751341 L11.3556156,5.21184851 L9.75209332,6.94763295 L7.17849617,9.73706126 L5.72200763,11.3135591 L4.330498,12.8223926 L4.32969042,12.8219028 Z M6.26635543,13.6738481 L7.89291541,11.9117414 C7.92855153,11.9126319 7.96428827,11.9130835 8.00012749,11.9130835 C10.8371275,11.9130835 13.0341275,9.07908355 13.8181275,7.91308355 C13.5919622,7.57614926 13.2474395,7.09952827 12.8032594,6.59220206 L14.1679229,5.11381667 C15.2172417,6.27394315 15.8173816,7.32732294 15.8721275,7.42508355 C16.0431275,7.72908355 16.0421275,8.10108355 15.8711275,8.40508355 C15.7441275,8.62908355 12.7071275,13.9130835 8.00012749,13.9130835 C7.39312981,13.9130835 6.81437998,13.8260518 6.26635543,13.6738481 L6.26635543,13.6738481 Z M9.56829791,4.19811031 C9.07326017,4.01892493 8.54867799,3.91308355 8.00012749,3.91308355 C5.14612749,3.91308355 2.95812749,6.74808355 2.18112749,7.91208355 C2.5403786,8.44705031 3.19924048,9.33642953 4.08257532,10.1409765 L6.00529916,8.05802563 C6.00187103,8.01015814 6.00012749,7.96182446 6.00012749,7.91308355 C6.00012749,6.81349572 6.88749932,5.92116468 7.98519531,5.91313813 L9.56829791,4.19811031 L9.56829791,4.19811031 Z" id="i-16-share-hidden" fill="#818F99"></path>
    </g>
</svg>