<?xml version="1.0" encoding="UTF-8"?>
<svg width="180px" height="48px" viewBox="0 0 180 48" version="1.1" xmlns="http://www.w3.org/2000/svg" xmlns:xlink="http://www.w3.org/1999/xlink">
  <g class="bug" transform="translate(4.000000, 3.000000)">
    <path d="M10.3287104,14.330914 L13.7713199,14.330914 L13.7713199,10.89 L10.3287104,10.89 L10.3287104,14.330914 Z M6.88565993,17.771828 L17.2143704,17.771828 L17.2143704,7.4482043 L6.88565993,7.4482043 L6.88565993,17.771828 Z" id="square"></path>
    <polygon id="left" points="13.7708788 4.00729032 17.2139293 4.00729032 17.2139293 0.566376344 13.7708788 0.566376344"></polygon>
    <polygon id="body" points="0 0.76344086 0 23.2111613 12.0502357 26.6300323 24.0995892 23.2111613 24.0995892 14.5279785 20.6565387 14.5279785 20.6565387 20.572172 12.0502357 23.0136559 3.44305051 20.572172 3.44305051 4.2047957 10.3282694 4.2047957 10.3282694 0.76344086"></polygon>
    <polygon id="right" points="20.6565387 10.89 24.0995892 10.89 24.0995892 7.44864516 20.6565387 7.44864516"></polygon>
    <polygon id="top" points="20.6565387 4.00729032 24.0995892 4.00729032 24.0995892 0.566376344 20.6565387 0.566376344"></polygon>
  </g>
  <g class="wordmark" transform="translate(41.000000, 2.000000)">
    <path d="M7.99695623,0 C11.5163131,0 13.7441953,2.02443011 14.3268586,5.13734409 L11.7443502,5.13734409 C11.1365455,3.49249462 10.0731077,2.37888172 7.99695623,2.37888172 C5.26227609,2.37888172 3.59147475,4.75776344 3.59147475,8.02233333 C3.59147475,11.2613333 5.23713468,13.6657849 7.99695623,13.6657849 C10.0731077,13.6657849 11.1365455,12.552172 11.7443502,10.8821935 L14.3268586,10.8821935 C13.7441953,14.0202366 11.4907306,16.0446667 7.99695623,16.0446667 C3.99638384,16.0446667 0.932659933,12.8052258 0.932659933,8.02233333 C0.932659933,3.23944086 3.99638384,0 7.99695623,0" id="c"></path>
    <path d="M20.8305455,6.58512903 C19.0075724,6.58512903 18.02,8.15415054 18.02,10.2799785 C18.02,12.4058065 19.0075724,13.974828 20.8305455,13.974828 C22.6535185,13.974828 23.6410909,12.4058065 23.6410909,10.2799785 C23.6410909,8.15415054 22.6535185,6.58512903 20.8305455,6.58512903 M20.8305455,16.1513548 C17.6658148,16.1513548 15.4882155,13.7217742 15.4882155,10.2799785 C15.4882155,6.8381828 17.6658148,4.40860215 20.8305455,4.40860215 C23.9952761,4.40860215 26.1728754,6.8381828 26.1728754,10.2799785 C26.1728754,13.7217742 23.9952761,16.1513548 20.8305455,16.1513548" id="o"></path>
    <path d="M28.2794613,4.66165591 L30.8112458,4.66165591 L30.8112458,5.72456989 C31.4190505,5.01610753 32.5332121,4.40860215 33.8498283,4.40860215 C36.4067542,4.40860215 37.8248182,6.10415054 37.8248182,8.58398925 L37.8248182,15.8978602 L35.2930337,15.8978602 L35.2930337,9.01470968 C35.2930337,7.62247312 34.6093636,6.71165591 33.1661582,6.71165591 C32.077138,6.71165591 31.0900067,7.39498925 30.8112458,8.50860215 L30.8112458,15.8978602 L28.2794613,15.8978602 L28.2794613,4.66165591 Z" id="n"></path>
    <path d="M40.6380101,6.87565591 L38.8653199,6.87565591 L38.8653199,4.77495699 L40.6380101,4.77495699 L40.6380101,1.76344086 L43.1697946,1.76344086 L43.1697946,4.77495699 L45.7015791,4.77495699 L45.7015791,6.87565591 L43.1697946,6.87565591 L43.1697946,12.6963333 C43.1697946,13.6075914 43.6761515,14.0123011 44.5119933,14.0123011 C45.0183502,14.0123011 45.6005724,13.8099462 45.9551987,13.5564516 L45.9551987,15.8595054 C45.5247071,16.1125591 44.841037,16.2646559 44.0563603,16.2646559 C42.055633,16.2646559 40.6380101,15.2017419 40.6380101,12.9745161 L40.6380101,6.87565591 Z" id="t"></path>
    <path d="M54.2337811,11.9755269 C53.9554613,11.2670645 52.9423064,10.8367849 51.9295926,10.8367849 C50.7902896,10.8367849 49.6002626,11.3173226 49.6002626,12.4309355 C49.6002626,13.5696774 50.7902896,14.0506559 51.9295926,14.0506559 C52.9423064,14.0506559 53.9554613,13.6203763 54.2337811,12.911914 L54.2337811,11.9755269 Z M54.2337811,15.8978602 L54.2337811,15.2652258 C53.8540135,15.6448065 52.7147104,16.1002151 51.4488182,16.1002151 C49.1446296,16.1002151 47.2457912,14.7339892 47.2457912,12.4309355 C47.2457912,10.3051075 49.1446296,8.81191398 51.6256902,8.81191398 C52.638404,8.81191398 53.7781481,9.16636559 54.2337811,9.49568817 L54.2337811,8.58443011 C54.2337811,7.44568817 53.5249697,6.55955914 52.0817643,6.55955914 C51.0686094,6.55955914 50.4356633,6.98983871 50.1573434,7.77456989 L47.7265657,7.77456989 C48.0560505,5.85109677 49.8282997,4.40860215 52.1320471,4.40860215 C54.9681751,4.40860215 56.6389764,5.97806452 56.6389764,8.53373118 L56.6389764,15.8978602 L54.2337811,15.8978602 Z" id="a"></path>
    <path d="M59.0177071,16.1711935 L61.5494916,16.1711935 L61.5494916,4.93498925 L59.0177071,4.93498925 L59.0177071,16.1711935 Z M60.2835993,3.08734409 C59.4477576,3.08734409 58.7138047,2.40401075 58.7138047,1.54389247 C58.7138047,0.683333333 59.4477576,0 60.2835993,0 C61.119,0 61.8533939,0.683333333 61.8533939,1.54389247 C61.8533939,2.40401075 61.119,3.08734409 60.2835993,3.08734409 Z" id="i"></path>
    <path d="M64.006734,4.66165591 L66.5385185,4.66165591 L66.5385185,5.72456989 C67.1463232,5.01610753 68.2604848,4.40860215 69.577101,4.40860215 C72.1340269,4.40860215 73.5520909,6.10415054 73.5520909,8.58398925 L73.5520909,15.8978602 L71.0203064,15.8978602 L71.0203064,9.01470968 C71.0203064,7.62247312 70.3366364,6.71165591 68.893431,6.71165591 C67.8044108,6.71165591 66.8172795,7.39498925 66.5385185,8.50860215 L66.5385185,15.8978602 L64.006734,15.8978602 L64.006734,4.66165591 Z" id="n"></path>
    <path d="M78.0321145,9.01426882 L83.121266,9.01426882 C83.0961246,7.64760215 82.3110067,6.53443011 80.7667946,6.53443011 C79.3738721,6.53443011 78.3360168,7.39454839 78.0321145,9.01426882 Z M85.5269024,12.4053656 C85.1466936,14.6325914 83.5010337,16.150914 80.791936,16.150914 C77.6523468,16.150914 75.4747475,13.7720323 75.4747475,10.3051075 C75.4747475,6.93913978 77.6774882,4.40860215 80.7412121,4.40860215 C83.9063838,4.40860215 85.6279091,6.66095699 85.6279091,9.95065591 L85.6279091,10.8614731 L77.9562492,10.8614731 C78.0321145,12.8356452 79.1714175,14.025086 80.791936,14.025086 C82.0075455,14.025086 82.9188114,13.4938495 83.1971313,12.4053656 L85.5269024,12.4053656 Z" id="e"></path>
    <path d="M93.6630168,7.21776344 C93.3088316,6.96470968 92.7010269,6.8381828 92.1690875,6.8381828 C91.1312323,6.8381828 90.1692424,7.42011828 89.9156229,8.63512903 L89.9156229,15.8978602 L87.3838384,15.8978602 L87.3838384,4.66165591 L89.9156229,4.66165591 L89.9156229,5.82596774 C90.3461145,4.99097849 91.3336869,4.40860215 92.422266,4.40860215 C92.9793468,4.40860215 93.4857037,4.51 93.6630168,4.61095699 L93.6630168,7.21776344 Z" id="r"></path>
    <path d="M5.33020202,27.3148172 L8.64710438,27.3148172 C10.393771,27.3148172 11.3813434,26.3784301 11.3813434,24.9359355 C11.3813434,23.4934409 10.393771,22.5570538 8.64710438,22.5570538 L5.33020202,22.5570538 L5.33020202,27.3148172 Z M5.33020202,29.5164731 L5.33020202,35.818129 L2.6969697,35.818129 L2.6969697,20.2795699 L8.69782828,20.2795699 C11.9132828,20.2795699 13.9894343,21.8992903 13.9894343,24.9359355 C13.9894343,27.5427419 12.4699226,29.0354946 10.0144444,29.4155161 L14.5209327,35.818129 L11.5335152,35.818129 L7.20389899,29.5164731 L5.33020202,29.5164731 Z" id="r"></path>
    <path d="M17.6045051,29.2938387 L22.6936566,29.2938387 C22.6685152,27.927172 21.8833973,26.814 20.3391852,26.814 C18.9462626,26.814 17.9084074,27.6741183 17.6045051,29.2938387 Z M25.0992929,32.6849355 C24.7190842,34.9121613 23.0734242,36.4304839 20.3643266,36.4304839 C17.2247374,36.4304839 15.047138,34.0516022 15.047138,30.5846774 C15.047138,27.2187097 17.2498788,24.688172 20.3136027,24.688172 C23.4787744,24.688172 25.2002997,26.9405269 25.2002997,30.2302258 L25.2002997,31.141043 L17.5286397,31.141043 C17.6045051,33.1152151 18.7438081,34.3046559 20.3643266,34.3046559 C21.579936,34.3046559 22.491202,33.7734194 22.7695219,32.6849355 L25.0992929,32.6849355 Z" id="e"></path>
    <path d="M34.1510842,28.2564946 C33.7205926,27.4973333 32.7837441,26.9153978 31.7203064,26.9153978 C29.7707441,26.9153978 28.6565825,28.3830215 28.6565825,30.3823226 C28.6565825,32.3816237 29.7707441,33.8492473 31.7203064,33.8492473 C32.7837441,33.8492473 33.7205926,33.2673118 34.1510842,32.5081505 L34.1510842,28.2564946 Z M34.1510842,34.9121613 C33.6447273,35.5196667 32.5557071,36.0764731 31.2898148,36.0764731 C27.9733535,36.0764731 26.0740741,33.3431398 26.0740741,30.3823226 C26.0740741,27.4210645 27.9733535,24.688172 31.2898148,24.688172 C32.5557071,24.688172 33.6447273,25.2449785 34.1510842,25.852043 L34.1510842,24.9412258 L36.6828687,24.9412258 L36.6828687,35.241043 C36.6828687,39.0372903 34.3791212,40.7328387 31.3912626,40.7328387 C28.5299933,40.7328387 26.6818788,39.2396452 26.4035589,36.7849355 L28.859037,36.7849355 C29.1126566,38.0250753 29.9987811,38.6577097 31.3912626,38.6577097 C33.2649596,38.6577097 34.1510842,37.5189677 34.1510842,35.4182688 L34.1510842,34.9121613 Z" id="g"></path>
    <path d="M39.1692222,36.0094624 L41.7010067,36.0094624 L41.7010067,24.7732581 L39.1692222,24.7732581 L39.1692222,36.0094624 Z M40.4351145,22.9260538 C39.5992727,22.9260538 38.8653199,22.2427204 38.8653199,21.3821613 C38.8653199,20.522043 39.5992727,19.8387097 40.4351145,19.8387097 C41.2709562,19.8387097 42.0049091,20.522043 42.0049091,21.3821613 C42.0049091,22.2427204 41.2709562,22.9260538 40.4351145,22.9260538 Z" id="i"></path>
    <path d="M46.2996801,32.9379892 C46.578,33.8743763 47.4138418,34.3553548 48.5275623,34.3553548 C49.6924478,34.3553548 50.4519832,33.8995054 50.4519832,33.0138172 C50.4519832,32.4063118 50.0722155,32.0774301 49.135367,31.8499462 L46.806037,31.2931398 C45.211101,30.9135591 44.020633,30.053 44.020633,28.2057957 C44.020633,26.1809247 45.8184646,24.688172 48.2748249,24.688172 C50.9076162,24.688172 52.4015455,25.9534409 52.7813131,28.003 L50.3002525,28.003 C50.0722155,27.2694086 49.4141279,26.7633011 48.2492424,26.7633011 C47.3631178,26.7633011 46.4514108,27.1680108 46.4514108,28.0536989 C46.4514108,28.5598065 46.806037,28.8886882 47.6162963,29.091043 L49.9963502,29.6482903 C51.920771,30.1036989 52.8827609,31.1917419 52.8827609,32.8370323 C52.8827609,35.0638172 51.0342054,36.4304839 48.5024209,36.4304839 C45.8691886,36.4304839 44.0462155,35.1145161 43.7171717,32.9379892 L46.2996801,32.9379892 Z" id="s"></path>
    <path d="M55.6346431,26.7143656 L53.8619529,26.7143656 L53.8619529,24.6136667 L55.6346431,24.6136667 L55.6346431,21.6021505 L58.1664276,21.6021505 L58.1664276,24.6136667 L60.6982121,24.6136667 L60.6982121,26.7143656 L58.1664276,26.7143656 L58.1664276,32.535043 C58.1664276,33.4463011 58.6727845,33.8510108 59.5086263,33.8510108 C60.0149832,33.8510108 60.5972054,33.6486559 60.9518316,33.3951613 L60.9518316,35.6982151 C60.5213401,35.9512688 59.83767,36.1033656 59.0529933,36.1033656 C57.052266,36.1033656 55.6346431,35.0404516 55.6346431,32.8132258 L55.6346431,26.7143656 Z" id="t"></path>
    <path d="M68.9626801,27.4973333 C68.6084949,27.2442796 68.0006902,27.1177527 67.4687508,27.1177527 C66.4308956,27.1177527 65.4689057,27.6996882 65.2152862,28.9146989 L65.2152862,36.1774301 L62.6835017,36.1774301 L62.6835017,24.9412258 L65.2152862,24.9412258 L65.2152862,26.1055376 C65.6457778,25.2705484 66.6333502,24.688172 67.7219293,24.688172 C68.2790101,24.688172 68.785367,24.7895699 68.9626801,24.8905269 L68.9626801,27.4973333 Z" id="r"></path>
    <polygon id="y" points="72.5005623 40.2267312 74.0959394 36.228129 69.7407407 24.688172 72.4498384 24.688172 75.3869731 32.9635591 78.2733838 24.688172 80.8814747 24.688172 74.9564815 40.2267312"></polygon>
  </g>
</svg>
