<?xml version="1.0" encoding="UTF-8"?>
<svg width="180px" height="48px" viewBox="0 0 180 48" version="1.1" xmlns="http://www.w3.org/2000/svg" xmlns:xlink="http://www.w3.org/1999/xlink">
  <g class="wordmark" transform="translate(48.000000, 11.000000)">
    <path d="M5.66809585,14.1902308 C8.93292013,14.1902308 10.6793035,12.1131795 10.6793035,8.83523077 C10.6793035,5.5324359 8.93292013,3.45582051 5.66809585,3.45582051 L3.16249201,3.45582051 L3.16249201,14.1902308 L5.66809585,14.1902308 Z M0.530351438,1.15384615 L5.7695016,1.15384615 C10.3503962,1.15384615 13.3114441,4.15630769 13.3114441,8.83523077 C13.3114441,13.5145897 10.3503962,16.5170513 5.7695016,16.5170513 L0.530351438,16.5170513 L0.530351438,1.15384615 Z" id="d"></path>
    <path d="M15.3840895,16.2707692 L17.9148243,16.2707692 L17.9148243,5.16105128 L15.3840895,5.16105128 L15.3840895,16.2707692 Z M16.6494569,3.33420513 C15.8139617,3.33420513 15.0798722,2.659 15.0798722,1.80812821 C15.0798722,0.95725641 15.8139617,0.282051282 16.6494569,0.282051282 C17.4845112,0.282051282 18.2186006,0.95725641 18.2186006,1.80812821 C18.2186006,2.659 17.4845112,3.33420513 16.6494569,3.33420513 Z" id="i"></path>
    <path d="M22.0702556,13.2338718 C22.3484601,14.1597179 23.1839553,14.6352821 24.2972141,14.6352821 C25.4616166,14.6352821 26.2208371,14.1845641 26.2208371,13.3088462 C26.2208371,12.7081795 25.8412268,12.383 24.9047668,12.1580769 L22.5764026,11.6075385 C20.9821278,11.2322308 19.7921534,10.381359 19.7921534,8.55494872 C19.7921534,6.55287179 21.5892396,5.07692308 24.0445815,5.07692308 C26.6762812,5.07692308 28.1695911,6.32794872 28.5492013,8.3544359 L26.0691693,8.3544359 C25.8412268,7.62910256 25.1834121,7.12869231 24.0190096,7.12869231 C23.1332524,7.12869231 22.2219233,7.52884615 22.2219233,8.4045641 C22.2219233,8.90497436 22.5764026,9.23015385 23.3863259,9.43023077 L25.765393,9.98120513 C27.689016,10.4314872 28.650607,11.5072821 28.650607,13.1340513 C28.650607,15.3357692 26.8028179,16.6870513 24.2720831,16.6870513 C21.6399425,16.6870513 19.8177252,15.3858974 19.4888179,13.2338718 L22.0702556,13.2338718 Z" id="s"></path>
    <path d="M35.3094377,5.07692308 C37.9922812,5.07692308 39.6879617,6.57815385 40.016869,8.80515385 L37.4861342,8.80515385 C37.2837636,7.80433333 36.4482684,7.25379487 35.3345687,7.25379487 C33.6388882,7.25379487 32.6014633,8.78030769 32.6014633,10.8817692 C32.6014633,12.9836667 33.6388882,14.5101795 35.3345687,14.5101795 C36.4482684,14.5101795 37.2837636,13.959641 37.4861342,12.9588205 L40.016869,12.9588205 C39.6879617,15.1858205 37.9922812,16.6870513 35.3094377,16.6870513 C32.272115,16.6870513 30.0702875,14.3349487 30.0702875,10.8817692 C30.0702875,7.42902564 32.272115,5.07692308 35.3094377,5.07692308" id="c"></path>
    <path d="M45.9918722,7.22894872 C44.169655,7.22894872 43.182492,8.78030769 43.182492,10.8822051 C43.182492,12.9841026 44.169655,14.5354615 45.9918722,14.5354615 C47.8140895,14.5354615 48.8012524,12.9841026 48.8012524,10.8822051 C48.8012524,8.78030769 47.8140895,7.22894872 45.9918722,7.22894872 M45.9918722,16.6874872 C42.8284537,16.6874872 40.6517572,14.2852564 40.6517572,10.8822051 C40.6517572,7.47915385 42.8284537,5.07692308 45.9918722,5.07692308 C49.1552907,5.07692308 51.3319872,7.47915385 51.3319872,10.8822051 C51.3319872,14.2852564 49.1552907,16.6874872 45.9918722,16.6874872" id="o"></path>
    <polygon id="v" points="55.9261086 16.186641 51.6741214 5.07692308 54.3820958 5.07692308 57.2928818 13.2090256 60.1780958 5.07692308 62.8102364 5.07692308 58.5331182 16.186641"></polygon>
    <path d="M65.6936869,9.63074359 L70.7807284,9.63074359 C70.7555974,8.27946154 69.9708051,7.17882051 68.4272332,7.17882051 C67.0348882,7.17882051 65.9974633,8.02925641 65.6936869,9.63074359 Z M73.1853674,12.9836667 C72.8053163,15.1858205 71.1603387,16.6870513 68.4523642,16.6870513 C65.3140767,16.6870513 63.1373802,14.3349487 63.1373802,10.9070513 C63.1373802,7.57897436 65.3392077,5.07692308 68.4016613,5.07692308 C71.5655208,5.07692308 73.2863323,7.30392308 73.2863323,10.5565897 L73.2863323,11.4571538 L65.617853,11.4571538 C65.6936869,13.4091026 66.8325176,14.5851538 68.4523642,14.5851538 C69.6674696,14.5851538 70.5783578,14.0598974 70.8565623,12.9836667 L73.1853674,12.9836667 Z" id="e"></path>
    <path d="M81.3181086,7.85446154 C80.9636294,7.60425641 80.3565176,7.47915385 79.8247987,7.47915385 C78.7873738,7.47915385 77.8257827,8.05453846 77.5722684,9.25587179 L77.5722684,16.4368462 L75.0415335,16.4368462 L75.0415335,5.32712821 L77.5722684,5.32712821 L77.5722684,6.47833333 C78.0025815,5.65274359 78.9897444,5.07692308 80.0778722,5.07692308 C80.634722,5.07692308 81.140869,5.17717949 81.3181086,5.277 L81.3181086,7.85446154 Z" id="r"></path>
    <polygon id="y" points="85.2954185 20.4405641 86.8901342 16.4869744 82.5367412 5.07692308 85.2447157 5.07692308 88.1806326 13.2591538 91.0658466 5.07692308 93.6728562 5.07692308 87.7503195 20.4405641"></polygon>
  </g>
  <g class="bug" transform="translate(4.000000, 3.000000)">
    <polygon id="body" points="26.7746454 9.58974359 24.3404665 11.9963333 29.2088243 16.8090769 17.0383706 28.8415897 4.86791693 16.8090769 9.73627476 11.9963333 7.30209585 9.58974359 0 16.8090769 17.0383706 33.6547692 34.0767412 16.8090769"></polygon>
    <polygon id="chevron" points="21.8701342 14.3846154 17.0017764 19.1977949 12.1338594 14.3846154 9.69968051 16.7912051 17.0017764 24.0105385 24.3043131 16.7912051"></polygon>
    <path d="M14.5680383,7.21933333 L17.0022173,4.81274359 L19.4363962,7.21933333 L17.0022173,9.62592308 L14.5680383,7.21933333 Z M17.0022173,0 L9.69968051,7.21933333 L17.0022173,14.4386667 L24.3043131,7.21933333 L17.0022173,0 Z" id="diamond"></path>
  </g>
</svg>
