<svg width="120" height="51" xmlns="http://www.w3.org/2000/svg"><g fill="none" fill-rule="evenodd"><path d="M42.877 15.685c2.901 0 4.738 1.67 5.218 4.237h-2.129c-.5-1.356-1.377-2.275-3.089-2.275-2.254 0-3.631 1.962-3.631 4.655 0 2.671 1.356 4.654 3.631 4.654 1.712 0 2.588-.918 3.09-2.295h2.128c-.48 2.588-2.338 4.257-5.218 4.257-3.298 0-5.823-2.671-5.823-6.616s2.525-6.617 5.823-6.617zm10.651 5.344c-1.503 0-2.317 1.294-2.317 3.047 0 1.753.814 3.047 2.317 3.047 1.503 0 2.317-1.294 2.317-3.047 0-1.753-.814-3.047-2.317-3.047zm0 7.89c-2.609 0-4.404-2.004-4.404-4.843s1.795-4.842 4.404-4.842 4.404 2.003 4.404 4.842c0 2.839-1.795 4.842-4.404 4.842zm5.922-9.477h2.087v.877c.5-.584 1.42-1.085 2.505-1.085 2.107 0 3.276 1.398 3.276 3.443v6.032h-2.087v-5.676c0-1.149-.563-1.9-1.753-1.9-.898 0-1.711.564-1.941 1.482v6.094H59.45v-9.267zm10.304 1.733h-1.46v-1.733h1.46v-2.484h2.087v2.484h2.088v1.733H71.84v4.8c0 .752.418 1.086 1.107 1.086.417 0 .897-.167 1.19-.376v1.9c-.355.208-.919.333-1.566.333-1.649 0-2.818-.876-2.818-2.713v-5.03zm11.192 4.3c-.23-.585-1.065-.94-1.9-.94-.939 0-1.92.397-1.92 1.315 0 .94.981 1.336 1.92 1.336.835 0 1.67-.355 1.9-.94v-.772zm0 3.234v-.521c-.313.313-1.252.688-2.296.688-1.9 0-3.465-1.127-3.465-3.026 0-1.753 1.566-2.985 3.611-2.985.835 0 1.774.293 2.15.564v-.751c0-.94-.584-1.67-1.774-1.67-.835 0-1.357.354-1.586 1.002h-2.004c.271-1.587 1.732-2.776 3.631-2.776 2.338 0 3.716 1.294 3.716 3.402v6.073h-1.983zm3.928 0v-9.266h2.087v9.267h-2.087zm1.044-10.79c-.69 0-1.294-.564-1.294-1.274 0-.709.605-1.273 1.294-1.273.688 0 1.294.564 1.294 1.273 0 .71-.606 1.274-1.294 1.274zm3.112 1.523h2.087v.877c.5-.584 1.42-1.085 2.505-1.085 2.108 0 3.276 1.398 3.276 3.443v6.032h-2.087v-5.676c0-1.149-.563-1.9-1.753-1.9-.898 0-1.711.564-1.941 1.482v6.094H89.03v-9.267zm11.402 3.59h4.195c-.02-1.127-.667-2.045-1.94-2.045-1.149 0-2.004.71-2.255 2.045zm6.179 2.797c-.314 1.837-1.67 3.09-3.904 3.09-2.588 0-4.383-1.963-4.383-4.822 0-2.776 1.816-4.863 4.342-4.863 2.609 0 4.028 1.857 4.028 4.57v.752h-6.324c.062 1.628 1.001 2.609 2.337 2.609 1.002 0 1.754-.438 1.983-1.336h1.92zm6.802-4.279c-.292-.208-.793-.313-1.232-.313-.855 0-1.648.48-1.857 1.482v5.99h-2.088v-9.267h2.088v.96c.354-.688 1.169-1.168 2.066-1.168.46 0 .877.083 1.023.166v2.15zM40.459 38.17h2.734c1.44 0 2.254-.773 2.254-1.962 0-1.19-.814-1.962-2.254-1.962H40.46v3.924zm0 1.816v5.197h-2.17V32.367h4.946c2.65 0 4.362 1.336 4.362 3.84 0 2.15-1.252 3.382-3.276 3.695l3.715 5.28h-2.463l-3.57-5.196H40.46zm10.106-.48h4.196c-.021-1.128-.668-2.046-1.941-2.046-1.148 0-2.004.71-2.255 2.045zm6.179 2.796c-.314 1.837-1.67 3.09-3.904 3.09-2.588 0-4.383-1.963-4.383-4.822 0-2.776 1.816-4.863 4.342-4.863 2.609 0 4.028 1.858 4.028 4.57v.752h-6.324c.062 1.628 1.002 2.61 2.337 2.61 1.003 0 1.754-.439 1.983-1.337h1.92zm7.708-3.652c-.355-.626-1.128-1.106-2.004-1.106-1.607 0-2.526 1.21-2.526 2.859s.919 2.86 2.526 2.86c.876 0 1.649-.48 2.004-1.107V38.65zm0 5.489c-.418.501-1.315.96-2.359.96-2.734 0-4.3-2.254-4.3-4.696 0-2.442 1.566-4.696 4.3-4.696 1.044 0 1.941.459 2.359.96v-.752h2.087v8.495c0 3.131-1.9 4.53-4.362 4.53-2.36 0-3.883-1.232-4.112-3.256h2.024c.21 1.022.94 1.544 2.088 1.544 1.544 0 2.275-.939 2.275-2.672v-.417zm4.178 1.044v-9.268h2.087v9.268H68.63zm1.044-10.791c-.69 0-1.294-.564-1.294-1.273 0-.71.605-1.273 1.294-1.273.689 0 1.294.563 1.294 1.273s-.605 1.273-1.294 1.273zm4.607 8.119c.229.772.918 1.169 1.836 1.169.96 0 1.587-.376 1.587-1.106 0-.501-.314-.773-1.086-.96l-1.92-.46c-1.315-.313-2.296-1.022-2.296-2.546 0-1.67 1.482-2.901 3.507-2.901 2.17 0 3.402 1.044 3.715 2.734h-2.046c-.188-.605-.73-1.023-1.69-1.023-.73 0-1.482.334-1.482 1.065 0 .417.292.688.96.855l1.962.46c1.586.375 2.38 1.273 2.38 2.63 0 1.836-1.525 2.963-3.612 2.963-2.17 0-3.673-1.085-3.944-2.88h2.129zm7.634-4.863h-1.46v-1.733h1.46v-2.483h2.088v2.483h2.087v1.733h-2.087v4.8c0 .752.417 1.086 1.106 1.086.417 0 .897-.167 1.19-.376v1.9c-.355.208-.919.333-1.566.333-1.649 0-2.818-.876-2.818-2.713v-5.03zm11 .376c-.292-.21-.793-.313-1.232-.313-.855 0-1.648.48-1.857 1.482v5.99h-2.087v-9.268h2.087v.96c.355-.688 1.169-1.168 2.066-1.168.46 0 .877.083 1.023.167v2.15zM96.02 48.73l1.315-3.298-3.59-9.517h2.233L98.4 42.74l2.38-6.825h2.15L98.045 48.73h-2.024zm7.06-5.096h-.192v.258h.192c.093 0 .143-.055.143-.126 0-.077-.05-.132-.143-.132zm-.192.478v.346h-.275v-1.054h.489c.236 0 .384.132.384.362 0 .165-.077.274-.209.318l.247.374h-.301l-.22-.346h-.115zm.131-1.01c-.45 0-.812.346-.812.834 0 .489.362.834.812.834.45 0 .813-.345.813-.834 0-.488-.362-.834-.813-.834zm0 1.839a.985.985 0 0 1-.993-1.005c0-.582.45-1.004.993-1.004.544 0 .994.422.994 1.004a.985.985 0 0 1-.994 1.005zM14.634 15.375h2.838v-2.838h-2.838v2.838zm-2.838 2.838V9.698h8.515v8.515h-8.515zM6.12 4.023h8.514V6.86H8.958V20.36l7.096 2.014 7.094-2.014v-4.985h2.838v7.161l-9.932 2.82-9.934-2.82V4.023zm17.028 8.514V9.698h2.838v2.839h-2.838zM17.472 6.86V4.023h2.838V6.86h-2.838zm5.676 0V4.023h2.838V6.86h-2.838z" fill="#FFAE1A"/><path d="M41.265 8.733c.96 0 1.532-.773 1.532-1.789 0-1.03-.573-1.803-1.532-1.803-.529 0-.987.315-1.202.744V7.99c.215.443.687.744 1.202.744zm.401-5.138c1.86 0 2.92 1.546 2.92 3.35 0 1.802-1.06 3.334-2.92 3.334-.687 0-1.317-.33-1.603-.673v2.891h-1.775V3.738h1.775v.53c.286-.344.916-.673 1.603-.673zm7.572 4.208V3.738h1.789v6.398h-1.775v-.587c-.358.4-.974.73-1.717.73-1.432 0-2.248-.945-2.248-2.362V3.738h1.775V7.56c0 .672.33 1.13 1.03 1.13.545 0 1.017-.329 1.146-.887zm5.94.93c.959 0 1.53-.773 1.53-1.789 0-1.03-.571-1.803-1.53-1.803-.53 0-.988.315-1.203.744V7.99c.215.443.687.744 1.202.744zm.4-5.138c1.86 0 2.92 1.546 2.92 3.35 0 1.802-1.06 3.334-2.92 3.334-.687 0-1.317-.33-1.603-.673v2.891H52.2V3.738h1.775v.53c.286-.344.916-.673 1.603-.673zm6.67 5.138c.96 0 1.531-.773 1.531-1.789 0-1.03-.572-1.803-1.531-1.803-.53 0-.988.315-1.202.744V7.99c.214.443.687.744 1.202.744zm.4-5.138c1.861 0 2.92 1.546 2.92 3.35 0 1.802-1.059 3.334-2.92 3.334-.686 0-1.316-.33-1.602-.673v2.891H59.27V3.738h1.775v.53c.286-.344.916-.673 1.603-.673zm5.11 2.648h2.476C70.22 5.57 69.82 5.04 69.09 5.04c-.687 0-1.173.414-1.33 1.202zm1.317-2.648c1.875 0 2.905 1.302 2.905 3.177v.544h-4.265c.058.96.601 1.531 1.389 1.531.601 0 1.045-.257 1.188-.8h1.646c-.23 1.359-1.231 2.232-2.834 2.232-1.86 0-3.106-1.36-3.106-3.335 0-1.932 1.288-3.35 3.077-3.35zm6.57 5.11c.272 0 .572-.086.772-.215v1.574c-.243.129-.672.2-1.144.2-1.303 0-2.119-.643-2.119-2.06V5.17h-.973V3.738h.973V2.007h1.76v1.731h1.403V5.17h-1.403v2.805c0 .5.272.73.73.73z" fill="#090A0A"/></g></svg>