<svg width="118" height="34" xmlns="http://www.w3.org/2000/svg"><g fill="none" fill-rule="evenodd"><path d="M42.533 26.762c2.692 0 4.132-1.732 4.132-4.467 0-2.755-1.44-4.487-4.132-4.487h-2.067v8.954h2.067zm-4.237-10.874h4.32c3.778 0 6.22 2.505 6.22 6.407 0 3.904-2.442 6.408-6.22 6.408h-4.32V15.888zm12.185 12.815v-9.267h2.087v9.267h-2.087zm1.044-10.79c-.69 0-1.295-.564-1.295-1.274 0-.71.606-1.273 1.295-1.273s1.294.564 1.294 1.273c0 .71-.605 1.273-1.294 1.273zm4.606 8.119c.23.772.919 1.169 1.837 1.169.96 0 1.586-.376 1.586-1.107 0-.5-.313-.772-1.085-.96l-1.92-.459c-1.315-.313-2.296-1.023-2.296-2.546 0-1.67 1.482-2.901 3.506-2.901 2.17 0 3.402 1.043 3.715 2.733H59.43c-.188-.605-.73-1.022-1.69-1.022-.731 0-1.482.334-1.482 1.064 0 .418.291.689.96.856l1.962.46c1.586.375 2.379 1.272 2.379 2.63 0 1.836-1.524 2.963-3.61 2.963-2.172 0-3.674-1.085-3.946-2.88h2.13zm10.712-6.805c2.212 0 3.61 1.253 3.882 3.11h-2.087c-.167-.835-.856-1.294-1.774-1.294-1.399 0-2.255 1.274-2.255 3.027 0 1.753.856 3.026 2.255 3.026.918 0 1.607-.46 1.774-1.294h2.087c-.272 1.858-1.67 3.11-3.882 3.11-2.505 0-4.321-1.962-4.321-4.842s1.816-4.843 4.32-4.843zm9.144 1.795c-1.503 0-2.317 1.294-2.317 3.048 0 1.753.814 3.047 2.317 3.047 1.503 0 2.316-1.294 2.316-3.047 0-1.754-.813-3.048-2.316-3.048zm0 7.89c-2.61 0-4.404-2.004-4.404-4.842 0-2.839 1.795-4.843 4.404-4.843 2.608 0 4.403 2.004 4.403 4.843 0 2.838-1.795 4.842-4.403 4.842zm8.134-.209l-3.507-9.267h2.233l2.4 6.784 2.38-6.784h2.17l-3.526 9.267h-2.15zm7.985-5.677h4.196c-.021-1.127-.668-2.045-1.941-2.045-1.149 0-2.005.71-2.255 2.045zm6.178 2.797c-.313 1.837-1.67 3.089-3.903 3.089-2.587 0-4.383-1.962-4.383-4.821 0-2.776 1.816-4.863 4.342-4.863 2.608 0 4.028 1.857 4.028 4.57v.752h-6.324c.062 1.628 1.002 2.609 2.337 2.609 1.002 0 1.754-.438 1.983-1.336h1.92zm6.803-4.279c-.293-.209-.793-.313-1.232-.313-.856 0-1.649.48-1.857 1.482v5.99H99.91v-9.267h2.087v.96c.354-.688 1.169-1.169 2.066-1.169.459 0 .877.084 1.023.167v2.15zm3.105 10.708l1.316-3.298-3.59-9.518h2.233l2.421 6.825 2.38-6.825h2.15l-4.885 12.816h-2.025zm5.792-4.648h.918v.165h-.366v.935h-.186v-.935h-.366v-.165zm1.584 1.1l-.302-.765v.765h-.178v-1.1h.214l.334.846.332-.846h.208v1.1h-.18v-.765l-.295.765h-.133zM24.08 10.179l6.023 6.022L16.05 30.252 2 16.201l6.022-6.022 2.007 2.007-4.015 4.015 10.037 10.036 10.037-10.036-4.015-4.015 2.008-2.007zm-4.014 4.014l2.008 2.008-6.023 6.022L10.03 16.2l2.008-2.008 4.014 4.015 4.015-4.015zm-6.022-6.022l2.007 2.008L18.06 8.17 16.05 6.164 14.044 8.17zm2.007-6.022l6.022 6.022-6.022 6.022-6.021-6.022L16.05 2.15z" fill="#FFAE1A"/><path d="M41.212 8.727c.959 0 1.531-.773 1.531-1.79 0-1.03-.572-1.803-1.531-1.803-.53 0-.988.315-1.202.745v2.103c.214.444.686.745 1.202.745zm.4-5.138c1.861 0 2.92 1.545 2.92 3.349 0 1.803-1.059 3.334-2.92 3.334-.687 0-1.316-.329-1.602-.672v2.891h-1.775V3.732h1.775v.53c.286-.344.915-.673 1.603-.673zm7.572 4.207V3.732h1.79v6.397h-1.776v-.587c-.357.401-.973.73-1.717.73-1.431 0-2.247-.944-2.247-2.361v-4.18h1.775v3.822c0 .673.329 1.13 1.03 1.13.544 0 1.016-.328 1.145-.887zm5.94.93c.959 0 1.531-.772 1.531-1.788 0-1.03-.572-1.804-1.531-1.804-.53 0-.988.315-1.203.745v2.103c.215.444.688.745 1.203.745zm.4-5.137c1.861 0 2.92 1.545 2.92 3.349 0 1.803-1.059 3.334-2.92 3.334-.686 0-1.316-.329-1.603-.672v2.891h-1.774V3.732h1.774v.53c.287-.344.917-.673 1.604-.673zm6.67 5.138c.96 0 1.532-.773 1.532-1.79 0-1.03-.573-1.803-1.532-1.803-.53 0-.987.315-1.202.745v2.103c.215.444.687.745 1.202.745zm.401-5.138c1.86 0 2.92 1.545 2.92 3.349 0 1.803-1.06 3.334-2.92 3.334-.687 0-1.317-.329-1.603-.672v2.891h-1.775V3.732h1.775v.53c.286-.344.916-.673 1.603-.673zm5.11 2.647h2.476c-.014-.672-.415-1.202-1.145-1.202-.687 0-1.174.415-1.331 1.202zM69.02 3.59c1.875 0 2.906 1.302 2.906 3.177v.544h-4.265c.057.959.6 1.531 1.388 1.531.601 0 1.045-.257 1.188-.801h1.646c-.23 1.36-1.23 2.233-2.834 2.233-1.86 0-3.106-1.36-3.106-3.335 0-1.932 1.288-3.35 3.077-3.35zm6.57 5.11c.272 0 .573-.087.773-.215v1.574c-.244.129-.673.2-1.145.2-1.302 0-2.118-.644-2.118-2.06V5.162h-.973V3.732h.973V2h1.76v1.732h1.403v1.43h-1.403v2.806c0 .501.272.73.73.73z" fill="#090A0A"/></g></svg>