<svg width="124" height="34" xmlns="http://www.w3.org/2000/svg"><g fill="none" fill-rule="evenodd"><path d="M46.665 15.882v1.92h-6.24v3.38h5.656v1.9h-5.657v3.674h6.24v1.94h-8.37V15.883h8.37zm1.678 3.548h2.087v.876c.501-.584 1.42-1.085 2.505-1.085 2.108 0 3.277 1.398 3.277 3.444v6.032h-2.087V23.02c0-1.148-.564-1.9-1.754-1.9-.897 0-1.711.564-1.94 1.482v6.095h-2.088V19.43zm10.305 1.732h-1.462v-1.733h1.462v-2.483h2.087v2.483h2.087v1.733h-2.087v4.8c0 .752.417 1.086 1.106 1.086.418 0 .898-.167 1.19-.376v1.9c-.355.208-.919.334-1.566.334-1.649 0-2.817-.877-2.817-2.714v-5.03zm7.297 1.858h4.195c-.021-1.127-.668-2.046-1.941-2.046-1.148 0-2.004.71-2.254 2.046zm6.178 2.796c-.314 1.837-1.67 3.09-3.903 3.09-2.588 0-4.384-1.962-4.384-4.822 0-2.776 1.816-4.863 4.342-4.863 2.609 0 4.028 1.857 4.028 4.571v.751h-6.324c.063 1.628 1.002 2.61 2.338 2.61 1.002 0 1.753-.44 1.982-1.337h1.92zm6.802-4.278c-.293-.21-.794-.313-1.232-.313-.855 0-1.649.48-1.857 1.482v5.99h-2.087v-9.268h2.087v.96c.355-.688 1.169-1.168 2.066-1.168.46 0 .877.083 1.023.167v2.15zm3.341 4.278c.356.731 1.148 1.232 2.004 1.232 1.607 0 2.567-1.273 2.567-2.985 0-1.711-.96-2.984-2.567-2.984-.856 0-1.648.5-2.004 1.23v3.507zm0 6.43H80.18V19.43h2.087v.793c.418-.522 1.336-1.002 2.36-1.002 2.712 0 4.299 2.254 4.299 4.842 0 2.589-1.587 4.842-4.3 4.842-1.023 0-1.941-.48-2.359-1.001v4.341zm13.352-10.708c-.292-.21-.793-.313-1.231-.313-.856 0-1.649.48-1.858 1.482v5.99h-2.087v-9.268h2.087v.96c.355-.688 1.17-1.168 2.067-1.168.459 0 .876.083 1.022.167v2.15zm1.255 7.159V19.43h2.087v9.267h-2.087zm1.043-10.791c-.688 0-1.293-.564-1.293-1.273 0-.71.605-1.273 1.293-1.273.69 0 1.295.563 1.295 1.273s-.606 1.273-1.295 1.273zm4.607 8.12c.23.771.918 1.168 1.837 1.168.96 0 1.586-.376 1.586-1.106 0-.501-.313-.772-1.085-.96l-1.92-.46c-1.315-.313-2.296-1.022-2.296-2.546 0-1.67 1.482-2.9 3.507-2.9 2.17 0 3.401 1.043 3.714 2.733h-2.045c-.188-.605-.73-1.022-1.69-1.022-.731 0-1.483.333-1.483 1.064 0 .417.292.688.96.855l1.963.46c1.586.376 2.379 1.273 2.379 2.63 0 1.836-1.524 2.964-3.61 2.964-2.172 0-3.674-1.086-3.946-2.88h2.13zm8.5-3.006h4.194c-.02-1.127-.668-2.046-1.94-2.046-1.148 0-2.004.71-2.255 2.046zm6.177 2.796c-.313 1.837-1.67 3.09-3.902 3.09-2.589 0-4.384-1.962-4.384-4.822 0-2.776 1.816-4.863 4.342-4.863 2.609 0 4.028 1.857 4.028 4.571v.751h-6.324c.062 1.628 1.002 2.61 2.338 2.61 1.001 0 1.752-.44 1.982-1.337h1.92zm1.378 2.009h-.13v.174h.13c.063 0 .096-.037.096-.085 0-.052-.033-.09-.096-.09zm-.13.322v.233h-.185v-.71h.33c.16 0 .26.088.26.244 0 .11-.053.185-.142.214l.167.252h-.204l-.148-.233h-.077zm.09-.68a.543.543 0 0 0-.548.562c0 .329.244.562.548.562a.543.543 0 0 0 .547-.562.543.543 0 0 0-.547-.563zm0 1.239a.665.665 0 0 1-.67-.677c0-.393.303-.678.67-.678.366 0 .669.285.669.678a.664.664 0 0 1-.67.677zM11.013 5.936V3.102h9.973v2.834h-9.973zm9.973 8.395l5.513 10.605-.141.53a5.013 5.013 0 0 1-4.841 3.726H10.48a5.013 5.013 0 0 1-4.84-3.725l-.141-.53 5.512-10.606V8.769h2.834v6.254L8.558 25.198a2.177 2.177 0 0 0 1.923 1.16h11.036c.818 0 1.553-.459 1.923-1.16l-5.288-10.175V8.769h2.834v5.562zm-4.987 9.01l-2.007-2.008 2.007-2.007 2.007 2.007L16 23.34z" fill="#FFAE1A"/><path d="M41.272 8.72c.959 0 1.531-.773 1.531-1.789 0-1.03-.572-1.803-1.531-1.803-.53 0-.988.315-1.202.744v2.104c.214.444.687.744 1.202.744zm.4-5.138c1.861 0 2.92 1.546 2.92 3.35 0 1.803-1.059 3.334-2.92 3.334-.686 0-1.316-.329-1.602-.673v2.892h-1.775v-8.76h1.775v.53c.286-.344.916-.673 1.603-.673zm7.572 4.208V3.725h1.79v6.398h-1.776v-.587c-.357.4-.973.73-1.717.73-1.431 0-2.247-.944-2.247-2.362V3.725h1.775v3.822c0 .673.329 1.13 1.03 1.13.544 0 1.016-.329 1.145-.887zm5.94.93c.96 0 1.531-.773 1.531-1.789 0-1.03-.572-1.803-1.531-1.803-.53 0-.988.315-1.202.744v2.104c.214.444.687.744 1.202.744zm.4-5.138c1.861 0 2.92 1.546 2.92 3.35 0 1.803-1.059 3.334-2.92 3.334-.686 0-1.316-.329-1.602-.673v2.892h-1.775v-8.76h1.775v.53c.286-.344.916-.673 1.603-.673zm6.67 5.138c.96 0 1.532-.773 1.532-1.789 0-1.03-.572-1.803-1.532-1.803-.53 0-.987.315-1.202.744v2.104c.215.444.687.744 1.202.744zm.401-5.138c1.861 0 2.92 1.546 2.92 3.35 0 1.803-1.059 3.334-2.92 3.334-.687 0-1.316-.329-1.603-.673v2.892h-1.775v-8.76h1.775v.53c.287-.344.916-.673 1.603-.673zm5.11 2.648h2.476c-.014-.673-.415-1.202-1.145-1.202-.687 0-1.174.415-1.331 1.202zm1.317-2.647c1.875 0 2.905 1.302 2.905 3.177v.543h-4.265c.057.96.601 1.532 1.388 1.532.602 0 1.045-.258 1.188-.802h1.646c-.229 1.36-1.23 2.233-2.834 2.233-1.86 0-3.106-1.36-3.106-3.335 0-1.932 1.289-3.348 3.078-3.348zm6.57 5.109c.271 0 .572-.086.772-.215v1.575c-.243.128-.673.2-1.145.2-1.302 0-2.118-.644-2.118-2.061V5.156h-.973v-1.43h.973V1.993h1.76v1.733h1.403v1.43H74.92v2.806c0 .5.272.73.73.73z" fill="#090A0A"/></g></svg>