<svg width="112" height="34" xmlns="http://www.w3.org/2000/svg"><g fill="none" fill-rule="evenodd"><path d="M43.202 17.766h-2.735v4.28h2.735c1.502 0 2.275-.899 2.275-2.13 0-1.273-.773-2.15-2.275-2.15zm-2.735 6.158v4.78h-2.17V15.887h4.947c2.65 0 4.383 1.378 4.383 4.028 0 2.61-1.733 4.008-4.383 4.008h-2.777zm8.458 4.78v-9.268h2.088v9.267h-2.088zm1.044-10.791c-.689 0-1.294-.564-1.294-1.274 0-.71.605-1.273 1.294-1.273.689 0 1.294.564 1.294 1.273 0 .71-.605 1.274-1.294 1.274zm5.199 7.91c.355.73 1.148 1.231 2.004 1.231 1.607 0 2.567-1.273 2.567-2.984 0-1.712-.96-2.985-2.567-2.985-.856 0-1.649.5-2.004 1.231v3.507zm0 6.429H53.08V19.436h2.087v.793c.417-.521 1.336-1.001 2.359-1.001 2.713 0 4.3 2.254 4.3 4.842 0 2.588-1.587 4.842-4.3 4.842-1.023 0-1.942-.48-2.36-1.002v4.342zm9.743-9.226h4.195c-.02-1.127-.668-2.045-1.94-2.045-1.148 0-2.004.71-2.255 2.045zm6.178 2.797c-.313 1.837-1.67 3.09-3.902 3.09-2.589 0-4.384-1.963-4.384-4.822 0-2.776 1.816-4.863 4.342-4.863 2.609 0 4.028 1.857 4.028 4.57v.752h-6.324c.062 1.628 1.002 2.609 2.338 2.609 1.001 0 1.753-.438 1.982-1.336h1.92zm1.643 2.88V15.136h2.087v13.567h-2.087zm4.146 0v-9.267h2.087v9.267h-2.087zm1.043-10.79c-.689 0-1.294-.564-1.294-1.274 0-.71.605-1.273 1.294-1.273.689 0 1.294.564 1.294 1.273 0 .71-.605 1.274-1.294 1.274zm3.112 1.523h2.087v.877c.5-.585 1.42-1.086 2.505-1.086 2.108 0 3.277 1.399 3.277 3.444v6.032h-2.088v-5.677c0-1.148-.563-1.9-1.753-1.9-.898 0-1.711.564-1.94 1.483v6.094h-2.088v-9.267zm11.402 3.59h4.196c-.021-1.127-.668-2.045-1.942-2.045-1.147 0-2.003.71-2.254 2.045zm6.179 2.797c-.313 1.837-1.67 3.09-3.903 3.09-2.589 0-4.384-1.963-4.384-4.822 0-2.776 1.816-4.863 4.342-4.863 2.609 0 4.028 1.857 4.028 4.57v.752h-6.324c.062 1.628 1.002 2.609 2.338 2.609 1.002 0 1.753-.438 1.983-1.336h1.92zm3.133.209c.23.772.918 1.169 1.837 1.169.96 0 1.586-.376 1.586-1.107 0-.5-.313-.772-1.086-.96l-1.92-.459c-1.315-.313-2.296-1.023-2.296-2.546 0-1.67 1.482-2.901 3.507-2.901 2.17 0 3.402 1.043 3.715 2.734h-2.046c-.187-.605-.73-1.023-1.69-1.023-.73 0-1.482.334-1.482 1.064 0 .418.292.689.96.856l1.962.46c1.586.375 2.38 1.272 2.38 2.63 0 1.836-1.524 2.963-3.612 2.963-2.17 0-3.673-1.085-3.944-2.88h2.129zm6.805 1.572h.917v.165h-.365v.935h-.187v-.935h-.365v-.165zm1.584 1.1l-.303-.765v.765h-.177v-1.1h.213l.335.846.332-.846h.208v1.1h-.18v-.765l-.296.765h-.132zM12.037 6.181l10.037 10.037-10.037 10.037-2.008-2.008 8.03-8.03-8.03-8.029 2.008-2.007zm2.007 10.037l-2.007 2.007-2.008-2.007 2.008-2.008 2.007 2.008zm-6.022 2.007l2.007 2.008-2.007 2.007-2.008-2.007-2.007-2.008L2 16.218l2.007-2.008 2.007-2.007 2.008-2.007 2.007 2.007-2.007 2.007-2.008 2.008 2.008 2.007zm8.03-16.059l14.05 14.052-14.05 14.051-2.008-2.007 12.044-12.044L14.044 4.174l2.007-2.008z" fill="#FFAE1A"/><path d="M41.273 8.727c.96 0 1.532-.773 1.532-1.79 0-1.03-.573-1.803-1.532-1.803-.53 0-.987.315-1.202.745v2.103c.215.444.687.745 1.202.745zm.401-5.138c1.86 0 2.92 1.545 2.92 3.349 0 1.803-1.06 3.334-2.92 3.334-.687 0-1.317-.329-1.603-.672v2.891h-1.774v-8.76h1.774v.53c.286-.343.916-.672 1.603-.672zm7.572 4.207V3.732h1.789v6.397H49.26v-.587c-.358.401-.974.73-1.718.73-1.43 0-2.247-.944-2.247-2.361v-4.18h1.775v3.822c0 .673.33 1.13 1.03 1.13.544 0 1.017-.328 1.146-.887zm5.94.93c.958 0 1.53-.772 1.53-1.788 0-1.03-.572-1.804-1.53-1.804-.53 0-.988.315-1.203.745v2.103c.215.444.687.745 1.202.745zm.4-5.137c1.86 0 2.92 1.545 2.92 3.349 0 1.803-1.06 3.334-2.92 3.334-.687 0-1.317-.329-1.603-.672v2.891h-1.775v-8.76h1.775v.53c.286-.343.916-.672 1.603-.672zm6.67 5.138c.96 0 1.531-.773 1.531-1.79 0-1.03-.572-1.803-1.531-1.803-.53 0-.988.315-1.202.745v2.103c.214.444.687.745 1.202.745zm.401-5.138c1.86 0 2.92 1.545 2.92 3.349 0 1.803-1.06 3.334-2.92 3.334-.687 0-1.317-.329-1.603-.672v2.891h-1.775v-8.76h1.775v.53c.286-.343.916-.672 1.603-.672zm5.11 2.647h2.476c-.015-.672-.416-1.202-1.145-1.202-.688 0-1.174.415-1.332 1.202zm1.316-2.647c1.875 0 2.906 1.302 2.906 3.177v.544h-4.266c.058.959.602 1.531 1.389 1.531.601 0 1.044-.257 1.188-.801h1.646c-.23 1.36-1.232 2.233-2.834 2.233-1.86 0-3.106-1.36-3.106-3.335 0-1.932 1.288-3.35 3.077-3.35zm6.57 5.11c.272 0 .572-.087.773-.216v1.575c-.244.128-.673.2-1.145.2-1.303 0-2.119-.644-2.119-2.06V5.162h-.973V3.732h.973V2h1.76v1.732h1.403v1.43h-1.402v2.806c0 .501.272.73.73.73z" fill="#090A0A"/></g></svg>