<svg width="680" height="360" viewBox="0 0 680 360" fill="none" xmlns="http://www.w3.org/2000/svg">
<rect width="680" height="360" fill="white"/>
<rect width="320" height="320" transform="matrix(1 0 0 -1 360 320)" fill="#F5F8FA"/>
<path fill-rule="evenodd" clip-rule="evenodd" d="M500 150H490L510 130V190H500V150ZM525 170V185H540V170H525ZM520 165H545V190H520V165ZM520 130H545V155H520V130Z" fill="#222629"/>
<path d="M362.174 341.438V345H361.178V336.434H363.527C364.578 336.434 365.354 336.635 365.854 337.037C366.357 337.439 366.609 338.045 366.609 338.854C366.609 339.986 366.035 340.752 364.887 341.15L367.213 345H366.035L363.961 341.438H362.174ZM362.174 340.582H363.539C364.242 340.582 364.758 340.443 365.086 340.166C365.414 339.885 365.578 339.465 365.578 338.906C365.578 338.34 365.41 337.932 365.074 337.682C364.742 337.432 364.207 337.307 363.469 337.307H362.174V340.582ZM371.162 345.117C370.213 345.117 369.463 344.828 368.912 344.25C368.365 343.672 368.092 342.869 368.092 341.842C368.092 340.807 368.346 339.984 368.854 339.375C369.365 338.766 370.051 338.461 370.91 338.461C371.715 338.461 372.352 338.727 372.82 339.258C373.289 339.785 373.523 340.482 373.523 341.35V341.965H369.1C369.119 342.719 369.309 343.291 369.668 343.682C370.031 344.072 370.541 344.268 371.197 344.268C371.889 344.268 372.572 344.123 373.248 343.834V344.701C372.904 344.85 372.578 344.955 372.27 345.018C371.965 345.084 371.596 345.117 371.162 345.117ZM370.898 339.275C370.383 339.275 369.971 339.443 369.662 339.779C369.357 340.115 369.178 340.58 369.123 341.174H372.48C372.48 340.561 372.344 340.092 372.07 339.768C371.797 339.439 371.406 339.275 370.898 339.275ZM379.559 344.139H379.506C379.057 344.791 378.385 345.117 377.49 345.117C376.65 345.117 375.996 344.83 375.527 344.256C375.062 343.682 374.83 342.865 374.83 341.807C374.83 340.748 375.064 339.926 375.533 339.34C376.002 338.754 376.654 338.461 377.49 338.461C378.361 338.461 379.029 338.777 379.494 339.41H379.57L379.529 338.947L379.506 338.496V335.883H380.479V345H379.688L379.559 344.139ZM377.613 344.303C378.277 344.303 378.758 344.123 379.055 343.764C379.355 343.4 379.506 342.816 379.506 342.012V341.807C379.506 340.896 379.354 340.248 379.049 339.861C378.748 339.471 378.266 339.275 377.602 339.275C377.031 339.275 376.594 339.498 376.289 339.943C375.988 340.385 375.838 341.01 375.838 341.818C375.838 342.639 375.988 343.258 376.289 343.676C376.59 344.094 377.031 344.303 377.613 344.303ZM383.461 338.578V342.744C383.461 343.268 383.58 343.658 383.818 343.916C384.057 344.174 384.43 344.303 384.938 344.303C385.609 344.303 386.1 344.119 386.408 343.752C386.721 343.385 386.877 342.785 386.877 341.953V338.578H387.85V345H387.047L386.906 344.139H386.854C386.654 344.455 386.377 344.697 386.021 344.865C385.67 345.033 385.268 345.117 384.814 345.117C384.033 345.117 383.447 344.932 383.057 344.561C382.67 344.189 382.477 343.596 382.477 342.779V338.578H383.461ZM392.484 345.117C391.555 345.117 390.834 344.832 390.322 344.262C389.814 343.688 389.561 342.877 389.561 341.83C389.561 340.756 389.818 339.926 390.334 339.34C390.854 338.754 391.592 338.461 392.549 338.461C392.857 338.461 393.166 338.494 393.475 338.561C393.783 338.627 394.025 338.705 394.201 338.795L393.902 339.621C393.688 339.535 393.453 339.465 393.199 339.41C392.945 339.352 392.721 339.322 392.525 339.322C391.221 339.322 390.568 340.154 390.568 341.818C390.568 342.607 390.727 343.213 391.043 343.635C391.363 344.057 391.836 344.268 392.461 344.268C392.996 344.268 393.545 344.152 394.107 343.922V344.783C393.678 345.006 393.137 345.117 392.484 345.117ZM396.609 345H395.637V338.578H396.609V345ZM395.555 336.838C395.555 336.615 395.609 336.453 395.719 336.352C395.828 336.246 395.965 336.193 396.129 336.193C396.285 336.193 396.42 336.246 396.533 336.352C396.646 336.457 396.703 336.619 396.703 336.838C396.703 337.057 396.646 337.221 396.533 337.33C396.42 337.436 396.285 337.488 396.129 337.488C395.965 337.488 395.828 337.436 395.719 337.33C395.609 337.221 395.555 337.057 395.555 336.838ZM403.066 345V340.846C403.066 340.322 402.947 339.932 402.709 339.674C402.471 339.416 402.098 339.287 401.59 339.287C400.918 339.287 400.426 339.469 400.113 339.832C399.801 340.195 399.645 340.795 399.645 341.631V345H398.672V338.578H399.463L399.621 339.457H399.668C399.867 339.141 400.146 338.896 400.506 338.725C400.865 338.549 401.266 338.461 401.707 338.461C402.48 338.461 403.062 338.648 403.453 339.023C403.844 339.395 404.039 339.99 404.039 340.811V345H403.066ZM411.299 338.578V339.193L410.109 339.334C410.219 339.471 410.316 339.65 410.402 339.873C410.488 340.092 410.531 340.34 410.531 340.617C410.531 341.246 410.316 341.748 409.887 342.123C409.457 342.498 408.867 342.686 408.117 342.686C407.926 342.686 407.746 342.67 407.578 342.639C407.164 342.857 406.957 343.133 406.957 343.465C406.957 343.641 407.029 343.771 407.174 343.857C407.318 343.939 407.566 343.98 407.918 343.98H409.055C409.75 343.98 410.283 344.127 410.654 344.42C411.029 344.713 411.217 345.139 411.217 345.697C411.217 346.408 410.932 346.949 410.361 347.32C409.791 347.695 408.959 347.883 407.865 347.883C407.025 347.883 406.377 347.727 405.92 347.414C405.467 347.102 405.24 346.66 405.24 346.09C405.24 345.699 405.365 345.361 405.615 345.076C405.865 344.791 406.217 344.598 406.67 344.496C406.506 344.422 406.367 344.307 406.254 344.15C406.145 343.994 406.09 343.812 406.09 343.605C406.09 343.371 406.152 343.166 406.277 342.99C406.402 342.814 406.6 342.645 406.869 342.48C406.537 342.344 406.266 342.111 406.055 341.783C405.848 341.455 405.744 341.08 405.744 340.658C405.744 339.955 405.955 339.414 406.377 339.035C406.799 338.652 407.396 338.461 408.17 338.461C408.506 338.461 408.809 338.5 409.078 338.578H411.299ZM406.178 346.078C406.178 346.426 406.324 346.689 406.617 346.869C406.91 347.049 407.33 347.139 407.877 347.139C408.693 347.139 409.297 347.016 409.688 346.77C410.082 346.527 410.279 346.197 410.279 345.779C410.279 345.432 410.172 345.189 409.957 345.053C409.742 344.92 409.338 344.854 408.744 344.854H407.578C407.137 344.854 406.793 344.959 406.547 345.17C406.301 345.381 406.178 345.684 406.178 346.078ZM406.705 340.635C406.705 341.084 406.832 341.424 407.086 341.654C407.34 341.885 407.693 342 408.146 342C409.096 342 409.57 341.539 409.57 340.617C409.57 339.652 409.09 339.17 408.129 339.17C407.672 339.17 407.32 339.293 407.074 339.539C406.828 339.785 406.705 340.15 406.705 340.635ZM419.877 343.248C419.877 343.846 419.654 344.307 419.209 344.631C418.764 344.955 418.139 345.117 417.334 345.117C416.482 345.117 415.818 344.982 415.342 344.713V343.811C415.65 343.967 415.98 344.09 416.332 344.18C416.688 344.27 417.029 344.314 417.357 344.314C417.865 344.314 418.256 344.234 418.529 344.074C418.803 343.91 418.939 343.662 418.939 343.33C418.939 343.08 418.83 342.867 418.611 342.691C418.396 342.512 417.975 342.301 417.346 342.059C416.748 341.836 416.322 341.643 416.068 341.479C415.818 341.311 415.631 341.121 415.506 340.91C415.385 340.699 415.324 340.447 415.324 340.154C415.324 339.631 415.537 339.219 415.963 338.918C416.389 338.613 416.973 338.461 417.715 338.461C418.406 338.461 419.082 338.602 419.742 338.883L419.396 339.674C418.752 339.408 418.168 339.275 417.645 339.275C417.184 339.275 416.836 339.348 416.602 339.492C416.367 339.637 416.25 339.836 416.25 340.09C416.25 340.262 416.293 340.408 416.379 340.529C416.469 340.65 416.611 340.766 416.807 340.875C417.002 340.984 417.377 341.143 417.932 341.35C418.693 341.627 419.207 341.906 419.473 342.188C419.742 342.469 419.877 342.822 419.877 343.248ZM422.438 345H421.465V338.578H422.438V345ZM421.383 336.838C421.383 336.615 421.438 336.453 421.547 336.352C421.656 336.246 421.793 336.193 421.957 336.193C422.113 336.193 422.248 336.246 422.361 336.352C422.475 336.457 422.531 336.619 422.531 336.838C422.531 337.057 422.475 337.221 422.361 337.33C422.248 337.436 422.113 337.488 421.957 337.488C421.793 337.488 421.656 337.436 421.547 337.33C421.438 337.221 421.383 337.057 421.383 336.838ZM428.607 345H423.949V344.338L427.453 339.334H424.166V338.578H428.52V339.334L425.062 344.244H428.607V345ZM432.826 345.117C431.877 345.117 431.127 344.828 430.576 344.25C430.029 343.672 429.756 342.869 429.756 341.842C429.756 340.807 430.01 339.984 430.518 339.375C431.029 338.766 431.715 338.461 432.574 338.461C433.379 338.461 434.016 338.727 434.484 339.258C434.953 339.785 435.188 340.482 435.188 341.35V341.965H430.764C430.783 342.719 430.973 343.291 431.332 343.682C431.695 344.072 432.205 344.268 432.861 344.268C433.553 344.268 434.236 344.123 434.912 343.834V344.701C434.568 344.85 434.242 344.955 433.934 345.018C433.629 345.084 433.26 345.117 432.826 345.117ZM432.562 339.275C432.047 339.275 431.635 339.443 431.326 339.779C431.021 340.115 430.842 340.58 430.787 341.174H434.145C434.145 340.561 434.008 340.092 433.734 339.768C433.461 339.439 433.07 339.275 432.562 339.275ZM442.043 344.314C442.215 344.314 442.381 344.303 442.541 344.279C442.701 344.252 442.828 344.225 442.922 344.197V344.941C442.816 344.992 442.66 345.033 442.453 345.064C442.25 345.1 442.066 345.117 441.902 345.117C440.66 345.117 440.039 344.463 440.039 343.154V339.334H439.119V338.865L440.039 338.461L440.449 337.09H441.012V338.578H442.875V339.334H441.012V343.113C441.012 343.5 441.104 343.797 441.287 344.004C441.471 344.211 441.723 344.314 442.043 344.314ZM449.754 341.783C449.754 342.83 449.49 343.648 448.963 344.238C448.436 344.824 447.707 345.117 446.777 345.117C446.203 345.117 445.693 344.982 445.248 344.713C444.803 344.443 444.459 344.057 444.217 343.553C443.975 343.049 443.854 342.459 443.854 341.783C443.854 340.736 444.115 339.922 444.639 339.34C445.162 338.754 445.889 338.461 446.818 338.461C447.717 338.461 448.43 338.76 448.957 339.357C449.488 339.955 449.754 340.764 449.754 341.783ZM444.861 341.783C444.861 342.604 445.025 343.229 445.354 343.658C445.682 344.088 446.164 344.303 446.801 344.303C447.438 344.303 447.92 344.09 448.248 343.664C448.58 343.234 448.746 342.607 448.746 341.783C448.746 340.967 448.58 340.348 448.248 339.926C447.92 339.5 447.434 339.287 446.789 339.287C446.152 339.287 445.672 339.496 445.348 339.914C445.023 340.332 444.861 340.955 444.861 341.783ZM457.74 345H456.791V338.895C456.791 338.387 456.807 337.906 456.838 337.453C456.756 337.535 456.664 337.621 456.562 337.711C456.461 337.801 455.996 338.182 455.168 338.854L454.652 338.186L456.92 336.434H457.74V345ZM466.635 345H461.004V344.162L463.26 341.895C463.947 341.199 464.4 340.703 464.619 340.406C464.838 340.109 465.002 339.82 465.111 339.539C465.221 339.258 465.275 338.955 465.275 338.631C465.275 338.174 465.137 337.812 464.859 337.547C464.582 337.277 464.197 337.143 463.705 337.143C463.35 337.143 463.012 337.201 462.691 337.318C462.375 337.436 462.021 337.648 461.631 337.957L461.115 337.295C461.904 336.639 462.764 336.311 463.693 336.311C464.498 336.311 465.129 336.518 465.586 336.932C466.043 337.342 466.271 337.895 466.271 338.59C466.271 339.133 466.119 339.67 465.814 340.201C465.51 340.732 464.939 341.404 464.104 342.217L462.229 344.051V344.098H466.635V345ZM469.863 341.713L467.631 338.578H468.738L470.432 341.039L472.119 338.578H473.215L470.982 341.713L473.332 345H472.23L470.432 342.398L468.615 345H467.514L469.863 341.713ZM477.768 345H476.818V338.895C476.818 338.387 476.834 337.906 476.865 337.453C476.783 337.535 476.691 337.621 476.59 337.711C476.488 337.801 476.023 338.182 475.195 338.854L474.68 338.186L476.947 336.434H477.768V345ZM486.662 345H481.031V344.162L483.287 341.895C483.975 341.199 484.428 340.703 484.646 340.406C484.865 340.109 485.029 339.82 485.139 339.539C485.248 339.258 485.303 338.955 485.303 338.631C485.303 338.174 485.164 337.812 484.887 337.547C484.609 337.277 484.225 337.143 483.732 337.143C483.377 337.143 483.039 337.201 482.719 337.318C482.402 337.436 482.049 337.648 481.658 337.957L481.143 337.295C481.932 336.639 482.791 336.311 483.721 336.311C484.525 336.311 485.156 336.518 485.613 336.932C486.07 337.342 486.299 337.895 486.299 338.59C486.299 339.133 486.146 339.67 485.842 340.201C485.537 340.732 484.967 341.404 484.131 342.217L482.256 344.051V344.098H486.662V345ZM499.646 345V340.822C499.646 340.311 499.537 339.928 499.318 339.674C499.1 339.416 498.76 339.287 498.299 339.287C497.693 339.287 497.246 339.461 496.957 339.809C496.668 340.156 496.523 340.691 496.523 341.414V345H495.551V340.822C495.551 340.311 495.441 339.928 495.223 339.674C495.004 339.416 494.662 339.287 494.197 339.287C493.588 339.287 493.141 339.471 492.855 339.838C492.574 340.201 492.434 340.799 492.434 341.631V345H491.461V338.578H492.252L492.41 339.457H492.457C492.641 339.145 492.898 338.9 493.23 338.725C493.566 338.549 493.941 338.461 494.355 338.461C495.359 338.461 496.016 338.824 496.324 339.551H496.371C496.562 339.215 496.84 338.949 497.203 338.754C497.566 338.559 497.98 338.461 498.445 338.461C499.172 338.461 499.715 338.648 500.074 339.023C500.438 339.395 500.619 339.99 500.619 340.811V345H499.646ZM505.342 345.117C504.393 345.117 503.643 344.828 503.092 344.25C502.545 343.672 502.271 342.869 502.271 341.842C502.271 340.807 502.525 339.984 503.033 339.375C503.545 338.766 504.23 338.461 505.09 338.461C505.895 338.461 506.531 338.727 507 339.258C507.469 339.785 507.703 340.482 507.703 341.35V341.965H503.279C503.299 342.719 503.488 343.291 503.848 343.682C504.211 344.072 504.721 344.268 505.377 344.268C506.068 344.268 506.752 344.123 507.428 343.834V344.701C507.084 344.85 506.758 344.955 506.449 345.018C506.145 345.084 505.775 345.117 505.342 345.117ZM505.078 339.275C504.562 339.275 504.15 339.443 503.842 339.779C503.537 340.115 503.357 340.58 503.303 341.174H506.66C506.66 340.561 506.523 340.092 506.25 339.768C505.977 339.439 505.586 339.275 505.078 339.275ZM513.316 345L513.123 344.086H513.076C512.756 344.488 512.436 344.762 512.115 344.906C511.799 345.047 511.402 345.117 510.926 345.117C510.289 345.117 509.789 344.953 509.426 344.625C509.066 344.297 508.887 343.83 508.887 343.225C508.887 341.928 509.924 341.248 511.998 341.186L513.088 341.15V340.752C513.088 340.248 512.979 339.877 512.76 339.639C512.545 339.396 512.199 339.275 511.723 339.275C511.188 339.275 510.582 339.439 509.906 339.768L509.607 339.023C509.924 338.852 510.27 338.717 510.645 338.619C511.023 338.521 511.402 338.473 511.781 338.473C512.547 338.473 513.113 338.643 513.48 338.982C513.852 339.322 514.037 339.867 514.037 340.617V345H513.316ZM511.119 344.314C511.725 344.314 512.199 344.148 512.543 343.816C512.891 343.484 513.064 343.02 513.064 342.422V341.842L512.092 341.883C511.318 341.91 510.76 342.031 510.416 342.246C510.076 342.457 509.906 342.787 509.906 343.236C509.906 343.588 510.012 343.855 510.223 344.039C510.438 344.223 510.736 344.314 511.119 344.314ZM520.441 345V340.846C520.441 340.322 520.322 339.932 520.084 339.674C519.846 339.416 519.473 339.287 518.965 339.287C518.293 339.287 517.801 339.469 517.488 339.832C517.176 340.195 517.02 340.795 517.02 341.631V345H516.047V338.578H516.838L516.996 339.457H517.043C517.242 339.141 517.521 338.896 517.881 338.725C518.24 338.549 518.641 338.461 519.082 338.461C519.855 338.461 520.438 338.648 520.828 339.023C521.219 339.395 521.414 339.99 521.414 340.811V345H520.441ZM527.561 343.248C527.561 343.846 527.338 344.307 526.893 344.631C526.447 344.955 525.822 345.117 525.018 345.117C524.166 345.117 523.502 344.982 523.025 344.713V343.811C523.334 343.967 523.664 344.09 524.016 344.18C524.371 344.27 524.713 344.314 525.041 344.314C525.549 344.314 525.939 344.234 526.213 344.074C526.486 343.91 526.623 343.662 526.623 343.33C526.623 343.08 526.514 342.867 526.295 342.691C526.08 342.512 525.658 342.301 525.029 342.059C524.432 341.836 524.006 341.643 523.752 341.479C523.502 341.311 523.314 341.121 523.189 340.91C523.068 340.699 523.008 340.447 523.008 340.154C523.008 339.631 523.221 339.219 523.646 338.918C524.072 338.613 524.656 338.461 525.398 338.461C526.09 338.461 526.766 338.602 527.426 338.883L527.08 339.674C526.436 339.408 525.852 339.275 525.328 339.275C524.867 339.275 524.52 339.348 524.285 339.492C524.051 339.637 523.934 339.836 523.934 340.09C523.934 340.262 523.977 340.408 524.062 340.529C524.152 340.65 524.295 340.766 524.49 340.875C524.686 340.984 525.061 341.143 525.615 341.35C526.377 341.627 526.891 341.906 527.156 342.188C527.426 342.469 527.561 342.822 527.561 343.248ZM535.195 338.461C535.48 338.461 535.736 338.484 535.963 338.531L535.828 339.434C535.562 339.375 535.328 339.346 535.125 339.346C534.605 339.346 534.16 339.557 533.789 339.979C533.422 340.4 533.238 340.926 533.238 341.555V345H532.266V338.578H533.068L533.18 339.768H533.227C533.465 339.35 533.752 339.027 534.088 338.801C534.424 338.574 534.793 338.461 535.195 338.461ZM539.877 345.117C538.928 345.117 538.178 344.828 537.627 344.25C537.08 343.672 536.807 342.869 536.807 341.842C536.807 340.807 537.061 339.984 537.568 339.375C538.08 338.766 538.766 338.461 539.625 338.461C540.43 338.461 541.066 338.727 541.535 339.258C542.004 339.785 542.238 340.482 542.238 341.35V341.965H537.814C537.834 342.719 538.023 343.291 538.383 343.682C538.746 344.072 539.256 344.268 539.912 344.268C540.604 344.268 541.287 344.123 541.963 343.834V344.701C541.619 344.85 541.293 344.955 540.984 345.018C540.68 345.084 540.311 345.117 539.877 345.117ZM539.613 339.275C539.098 339.275 538.686 339.443 538.377 339.779C538.072 340.115 537.893 340.58 537.838 341.174H541.195C541.195 340.561 541.059 340.092 540.785 339.768C540.512 339.439 540.121 339.275 539.613 339.275ZM548.273 344.139H548.221C547.771 344.791 547.1 345.117 546.205 345.117C545.365 345.117 544.711 344.83 544.242 344.256C543.777 343.682 543.545 342.865 543.545 341.807C543.545 340.748 543.779 339.926 544.248 339.34C544.717 338.754 545.369 338.461 546.205 338.461C547.076 338.461 547.744 338.777 548.209 339.41H548.285L548.244 338.947L548.221 338.496V335.883H549.193V345H548.402L548.273 344.139ZM546.328 344.303C546.992 344.303 547.473 344.123 547.77 343.764C548.07 343.4 548.221 342.816 548.221 342.012V341.807C548.221 340.896 548.068 340.248 547.764 339.861C547.463 339.471 546.98 339.275 546.316 339.275C545.746 339.275 545.309 339.498 545.004 339.943C544.703 340.385 544.553 341.01 544.553 341.818C544.553 342.639 544.703 343.258 545.004 343.676C545.305 344.094 545.746 344.303 546.328 344.303ZM552.176 338.578V342.744C552.176 343.268 552.295 343.658 552.533 343.916C552.771 344.174 553.145 344.303 553.652 344.303C554.324 344.303 554.814 344.119 555.123 343.752C555.436 343.385 555.592 342.785 555.592 341.953V338.578H556.564V345H555.762L555.621 344.139H555.568C555.369 344.455 555.092 344.697 554.736 344.865C554.385 345.033 553.982 345.117 553.529 345.117C552.748 345.117 552.162 344.932 551.771 344.561C551.385 344.189 551.191 343.596 551.191 342.779V338.578H552.176ZM561.199 345.117C560.27 345.117 559.549 344.832 559.037 344.262C558.529 343.688 558.275 342.877 558.275 341.83C558.275 340.756 558.533 339.926 559.049 339.34C559.568 338.754 560.307 338.461 561.264 338.461C561.572 338.461 561.881 338.494 562.189 338.561C562.498 338.627 562.74 338.705 562.916 338.795L562.617 339.621C562.402 339.535 562.168 339.465 561.914 339.41C561.66 339.352 561.436 339.322 561.24 339.322C559.936 339.322 559.283 340.154 559.283 341.818C559.283 342.607 559.441 343.213 559.758 343.635C560.078 344.057 560.551 344.268 561.176 344.268C561.711 344.268 562.26 344.152 562.822 343.922V344.783C562.393 345.006 561.852 345.117 561.199 345.117ZM565.324 345H564.352V338.578H565.324V345ZM564.27 336.838C564.27 336.615 564.324 336.453 564.434 336.352C564.543 336.246 564.68 336.193 564.844 336.193C565 336.193 565.135 336.246 565.248 336.352C565.361 336.457 565.418 336.619 565.418 336.838C565.418 337.057 565.361 337.221 565.248 337.33C565.135 337.436 565 337.488 564.844 337.488C564.68 337.488 564.543 337.436 564.434 337.33C564.324 337.221 564.27 337.057 564.27 336.838ZM571.781 345V340.846C571.781 340.322 571.662 339.932 571.424 339.674C571.186 339.416 570.812 339.287 570.305 339.287C569.633 339.287 569.141 339.469 568.828 339.832C568.516 340.195 568.359 340.795 568.359 341.631V345H567.387V338.578H568.178L568.336 339.457H568.383C568.582 339.141 568.861 338.896 569.221 338.725C569.58 338.549 569.98 338.461 570.422 338.461C571.195 338.461 571.777 338.648 572.168 339.023C572.559 339.395 572.754 339.99 572.754 340.811V345H571.781ZM580.014 338.578V339.193L578.824 339.334C578.934 339.471 579.031 339.65 579.117 339.873C579.203 340.092 579.246 340.34 579.246 340.617C579.246 341.246 579.031 341.748 578.602 342.123C578.172 342.498 577.582 342.686 576.832 342.686C576.641 342.686 576.461 342.67 576.293 342.639C575.879 342.857 575.672 343.133 575.672 343.465C575.672 343.641 575.744 343.771 575.889 343.857C576.033 343.939 576.281 343.98 576.633 343.98H577.77C578.465 343.98 578.998 344.127 579.369 344.42C579.744 344.713 579.932 345.139 579.932 345.697C579.932 346.408 579.646 346.949 579.076 347.32C578.506 347.695 577.674 347.883 576.58 347.883C575.74 347.883 575.092 347.727 574.635 347.414C574.182 347.102 573.955 346.66 573.955 346.09C573.955 345.699 574.08 345.361 574.33 345.076C574.58 344.791 574.932 344.598 575.385 344.496C575.221 344.422 575.082 344.307 574.969 344.15C574.859 343.994 574.805 343.812 574.805 343.605C574.805 343.371 574.867 343.166 574.992 342.99C575.117 342.814 575.314 342.645 575.584 342.48C575.252 342.344 574.98 342.111 574.77 341.783C574.562 341.455 574.459 341.08 574.459 340.658C574.459 339.955 574.67 339.414 575.092 339.035C575.514 338.652 576.111 338.461 576.885 338.461C577.221 338.461 577.523 338.5 577.793 338.578H580.014ZM574.893 346.078C574.893 346.426 575.039 346.689 575.332 346.869C575.625 347.049 576.045 347.139 576.592 347.139C577.408 347.139 578.012 347.016 578.402 346.77C578.797 346.527 578.994 346.197 578.994 345.779C578.994 345.432 578.887 345.189 578.672 345.053C578.457 344.92 578.053 344.854 577.459 344.854H576.293C575.852 344.854 575.508 344.959 575.262 345.17C575.016 345.381 574.893 345.684 574.893 346.078ZM575.42 340.635C575.42 341.084 575.547 341.424 575.801 341.654C576.055 341.885 576.408 342 576.861 342C577.811 342 578.285 341.539 578.285 340.617C578.285 339.652 577.805 339.17 576.844 339.17C576.387 339.17 576.035 339.293 575.789 339.539C575.543 339.785 575.42 340.15 575.42 340.635ZM587.016 345.117C586.086 345.117 585.365 344.832 584.854 344.262C584.346 343.688 584.092 342.877 584.092 341.83C584.092 340.756 584.35 339.926 584.865 339.34C585.385 338.754 586.123 338.461 587.08 338.461C587.389 338.461 587.697 338.494 588.006 338.561C588.314 338.627 588.557 338.705 588.732 338.795L588.434 339.621C588.219 339.535 587.984 339.465 587.73 339.41C587.477 339.352 587.252 339.322 587.057 339.322C585.752 339.322 585.1 340.154 585.1 341.818C585.1 342.607 585.258 343.213 585.574 343.635C585.895 344.057 586.367 344.268 586.992 344.268C587.527 344.268 588.076 344.152 588.639 343.922V344.783C588.209 345.006 587.668 345.117 587.016 345.117ZM595.711 341.783C595.711 342.83 595.447 343.648 594.92 344.238C594.393 344.824 593.664 345.117 592.734 345.117C592.16 345.117 591.65 344.982 591.205 344.713C590.76 344.443 590.416 344.057 590.174 343.553C589.932 343.049 589.811 342.459 589.811 341.783C589.811 340.736 590.072 339.922 590.596 339.34C591.119 338.754 591.846 338.461 592.775 338.461C593.674 338.461 594.387 338.76 594.914 339.357C595.445 339.955 595.711 340.764 595.711 341.783ZM590.818 341.783C590.818 342.604 590.982 343.229 591.311 343.658C591.639 344.088 592.121 344.303 592.758 344.303C593.395 344.303 593.877 344.09 594.205 343.664C594.537 343.234 594.703 342.607 594.703 341.783C594.703 340.967 594.537 340.348 594.205 339.926C593.877 339.5 593.391 339.287 592.746 339.287C592.109 339.287 591.629 339.496 591.305 339.914C590.98 340.332 590.818 340.955 590.818 341.783ZM605.607 345V340.822C605.607 340.311 605.498 339.928 605.279 339.674C605.061 339.416 604.721 339.287 604.26 339.287C603.654 339.287 603.207 339.461 602.918 339.809C602.629 340.156 602.484 340.691 602.484 341.414V345H601.512V340.822C601.512 340.311 601.402 339.928 601.184 339.674C600.965 339.416 600.623 339.287 600.158 339.287C599.549 339.287 599.102 339.471 598.816 339.838C598.535 340.201 598.395 340.799 598.395 341.631V345H597.422V338.578H598.213L598.371 339.457H598.418C598.602 339.145 598.859 338.9 599.191 338.725C599.527 338.549 599.902 338.461 600.316 338.461C601.32 338.461 601.977 338.824 602.285 339.551H602.332C602.523 339.215 602.801 338.949 603.164 338.754C603.527 338.559 603.941 338.461 604.406 338.461C605.133 338.461 605.676 338.648 606.035 339.023C606.398 339.395 606.58 339.99 606.58 340.811V345H605.607ZM611.578 345.117C611.16 345.117 610.777 345.041 610.43 344.889C610.086 344.732 609.797 344.494 609.562 344.174H609.492C609.539 344.549 609.562 344.904 609.562 345.24V347.883H608.59V338.578H609.381L609.516 339.457H609.562C609.812 339.105 610.104 338.852 610.436 338.695C610.768 338.539 611.148 338.461 611.578 338.461C612.43 338.461 613.086 338.752 613.547 339.334C614.012 339.916 614.244 340.732 614.244 341.783C614.244 342.838 614.008 343.658 613.535 344.244C613.066 344.826 612.414 345.117 611.578 345.117ZM611.438 339.287C610.781 339.287 610.307 339.469 610.014 339.832C609.721 340.195 609.57 340.773 609.562 341.566V341.783C609.562 342.686 609.713 343.332 610.014 343.723C610.314 344.109 610.797 344.303 611.461 344.303C612.016 344.303 612.449 344.078 612.762 343.629C613.078 343.18 613.236 342.561 613.236 341.771C613.236 340.971 613.078 340.357 612.762 339.932C612.449 339.502 612.008 339.287 611.438 339.287ZM616.922 345H615.949V335.883H616.922V345ZM621.697 345.117C620.748 345.117 619.998 344.828 619.447 344.25C618.9 343.672 618.627 342.869 618.627 341.842C618.627 340.807 618.881 339.984 619.389 339.375C619.9 338.766 620.586 338.461 621.445 338.461C622.25 338.461 622.887 338.727 623.355 339.258C623.824 339.785 624.059 340.482 624.059 341.35V341.965H619.635C619.654 342.719 619.844 343.291 620.203 343.682C620.566 344.072 621.076 344.268 621.732 344.268C622.424 344.268 623.107 344.123 623.783 343.834V344.701C623.439 344.85 623.113 344.955 622.805 345.018C622.5 345.084 622.131 345.117 621.697 345.117ZM621.434 339.275C620.918 339.275 620.506 339.443 620.197 339.779C619.893 340.115 619.713 340.58 619.658 341.174H623.016C623.016 340.561 622.879 340.092 622.605 339.768C622.332 339.439 621.941 339.275 621.434 339.275ZM627.27 341.713L625.037 338.578H626.145L627.838 341.039L629.525 338.578H630.621L628.389 341.713L630.738 345H629.637L627.838 342.398L626.021 345H624.92L627.27 341.713ZM632.988 345H632.016V338.578H632.988V345ZM631.934 336.838C631.934 336.615 631.988 336.453 632.098 336.352C632.207 336.246 632.344 336.193 632.508 336.193C632.664 336.193 632.799 336.246 632.912 336.352C633.025 336.457 633.082 336.619 633.082 336.838C633.082 337.057 633.025 337.221 632.912 337.33C632.799 337.436 632.664 337.488 632.508 337.488C632.344 337.488 632.207 337.436 632.098 337.33C631.988 337.221 631.934 337.057 631.934 336.838ZM637.125 344.314C637.297 344.314 637.463 344.303 637.623 344.279C637.783 344.252 637.91 344.225 638.004 344.197V344.941C637.898 344.992 637.742 345.033 637.535 345.064C637.332 345.1 637.148 345.117 636.984 345.117C635.742 345.117 635.121 344.463 635.121 343.154V339.334H634.201V338.865L635.121 338.461L635.531 337.09H636.094V338.578H637.957V339.334H636.094V343.113C636.094 343.5 636.186 343.797 636.369 344.004C636.553 344.211 636.805 344.314 637.125 344.314ZM638.273 338.578H639.316L640.723 342.24C641.031 343.076 641.223 343.68 641.297 344.051H641.344C641.395 343.852 641.5 343.512 641.66 343.031C641.824 342.547 642.355 341.062 643.254 338.578H644.297L641.537 345.891C641.264 346.613 640.943 347.125 640.576 347.426C640.213 347.73 639.766 347.883 639.234 347.883C638.938 347.883 638.645 347.85 638.355 347.783V347.004C638.57 347.051 638.811 347.074 639.076 347.074C639.744 347.074 640.221 346.699 640.506 345.949L640.863 345.035L638.273 338.578ZM645.199 344.379C645.199 344.117 645.258 343.92 645.375 343.787C645.496 343.65 645.668 343.582 645.891 343.582C646.117 343.582 646.293 343.65 646.418 343.787C646.547 343.92 646.611 344.117 646.611 344.379C646.611 344.633 646.547 344.828 646.418 344.965C646.289 345.102 646.113 345.17 645.891 345.17C645.691 345.17 645.525 345.109 645.393 344.988C645.264 344.863 645.199 344.66 645.199 344.379Z" fill="#5D6F7A"/>
<g opacity="0.2">
<line x1="490.5" y1="130" x2="490.5" y2="190" stroke="#F54E31"/>
<line x1="495.5" y1="130" x2="495.5" y2="190" stroke="#F54E31"/>
<line x1="500.5" y1="130" x2="500.5" y2="190" stroke="#F54E31"/>
<line x1="505.5" y1="130" x2="505.5" y2="190" stroke="#F54E31"/>
<line x1="510.5" y1="130" x2="510.5" y2="190" stroke="#F54E31"/>
<line x1="515.5" y1="130" x2="515.5" y2="190" stroke="#F54E31"/>
<line x1="520.5" y1="130" x2="520.5" y2="190" stroke="#F54E31"/>
<line x1="525.5" y1="130" x2="525.5" y2="190" stroke="#F54E31"/>
<line x1="530.5" y1="130" x2="530.5" y2="190" stroke="#F54E31"/>
<line x1="535.5" y1="130" x2="535.5" y2="190" stroke="#F54E31"/>
<line x1="540.5" y1="130" x2="540.5" y2="190" stroke="#F54E31"/>
<line x1="545.5" y1="130" x2="545.5" y2="190" stroke="#F54E31"/>
<line x1="550.5" y1="130" x2="550.5" y2="190" stroke="#F54E31"/>
<path d="M490 130H551" stroke="#F54E31"/>
<path d="M490 135H551" stroke="#F54E31"/>
<path d="M490 140H551" stroke="#F54E31"/>
<path d="M490 145H551" stroke="#F54E31"/>
<path d="M490 150H551" stroke="#F54E31"/>
<path d="M490 155H551" stroke="#F54E31"/>
<path d="M490 160H551" stroke="#F54E31"/>
<path d="M490 165H551" stroke="#F54E31"/>
<path d="M490 170H551" stroke="#F54E31"/>
<path d="M490 175H551" stroke="#F54E31"/>
<path d="M490 180H551" stroke="#F54E31"/>
<path d="M490 185H551" stroke="#F54E31"/>
<path d="M490 190H551" stroke="#F54E31"/>
</g>
<line x1="553" y1="189.5" x2="575" y2="189.5" stroke="#F57058" stroke-dasharray="4 2"/>
<line x1="553" y1="130.5" x2="575" y2="130.5" stroke="#F57058" stroke-dasharray="4 2"/>
<g clip-path="url(#clip0)">
<rect x="568" y="184" width="48" height="1" transform="rotate(-90 568 184)" fill="#F57058"/>
<path d="M566 184L568.5 189L571 184H566Z" fill="#F57058"/>
<path d="M566 136L568.5 131L571 136H566Z" fill="#F57058"/>
</g>
<path d="M576.491 164H575.7V158.912C575.7 158.489 575.713 158.089 575.739 157.711C575.671 157.779 575.594 157.851 575.51 157.926C575.425 158.001 575.038 158.318 574.348 158.878L573.918 158.321L575.808 156.861H576.491V164ZM583.903 164H579.211V163.302L581.091 161.412C581.664 160.833 582.041 160.419 582.224 160.172C582.406 159.924 582.543 159.684 582.634 159.449C582.725 159.215 582.771 158.963 582.771 158.692C582.771 158.312 582.655 158.01 582.424 157.789C582.193 157.564 581.872 157.452 581.462 157.452C581.166 157.452 580.884 157.501 580.617 157.599C580.354 157.696 580.059 157.874 579.733 158.131L579.304 157.579C579.961 157.032 580.677 156.759 581.452 156.759C582.123 156.759 582.648 156.931 583.029 157.276C583.41 157.618 583.601 158.079 583.601 158.658C583.601 159.111 583.474 159.558 583.22 160.001C582.966 160.444 582.491 161.004 581.794 161.681L580.231 163.209V163.248H583.903V164Z" fill="#1C2636"/>
<line x1="550.5" y1="127" x2="550.5" y2="111" stroke="#F57058" stroke-dasharray="4 2"/>
<line x1="490.5" y1="127" x2="490.5" y2="111" stroke="#F57058" stroke-dasharray="4 2"/>
<g clip-path="url(#clip1)">
<rect x="496" y="117" width="49" height="1" fill="#F57058"/>
<path d="M496 115L491 117.5L496 120V115Z" fill="#F57058"/>
<path d="M545 115L550 117.5L545 120V115Z" fill="#F57058"/>
</g>
<path d="M518.269 113H517.478V107.912C517.478 107.489 517.491 107.089 517.517 106.711C517.448 106.779 517.372 106.851 517.287 106.926C517.202 107.001 516.815 107.318 516.125 107.878L515.695 107.321L517.585 105.861H518.269V113ZM525.681 113H520.988V112.302L522.868 110.412C523.441 109.833 523.819 109.419 524.001 109.172C524.183 108.924 524.32 108.684 524.411 108.449C524.502 108.215 524.548 107.963 524.548 107.692C524.548 107.312 524.432 107.01 524.201 106.789C523.97 106.564 523.649 106.452 523.239 106.452C522.943 106.452 522.661 106.501 522.395 106.599C522.131 106.696 521.836 106.874 521.511 107.131L521.081 106.579C521.739 106.032 522.455 105.759 523.229 105.759C523.9 105.759 524.426 105.931 524.807 106.276C525.188 106.618 525.378 107.079 525.378 107.658C525.378 108.111 525.251 108.558 524.997 109.001C524.743 109.444 524.268 110.004 523.571 110.681L522.009 112.209V112.248H525.681V113Z" fill="#202C3D"/>
<rect width="320" height="320" transform="matrix(1 0 0 -1 0 320)" fill="#F5F8FA"/>
<path d="M8.61328 340.705C8.61328 342.076 8.26562 343.154 7.57031 343.939C6.87891 344.725 5.91602 345.117 4.68164 345.117C3.41992 345.117 2.44531 344.732 1.75781 343.963C1.07422 343.189 0.732422 342.1 0.732422 340.693C0.732422 339.299 1.07617 338.219 1.76367 337.453C2.45117 336.684 3.42773 336.299 4.69336 336.299C5.92383 336.299 6.88477 336.689 7.57617 337.471C8.26758 338.252 8.61328 339.33 8.61328 340.705ZM1.78711 340.705C1.78711 341.865 2.0332 342.746 2.52539 343.348C3.02148 343.945 3.74023 344.244 4.68164 344.244C5.63086 344.244 6.34766 343.945 6.83203 343.348C7.31641 342.75 7.55859 341.869 7.55859 340.705C7.55859 339.553 7.31641 338.68 6.83203 338.086C6.35156 337.488 5.63867 337.189 4.69336 337.189C3.74414 337.189 3.02148 337.49 2.52539 338.092C2.0332 338.689 1.78711 339.561 1.78711 340.705ZM13.3125 338.461C13.5977 338.461 13.8535 338.484 14.0801 338.531L13.9453 339.434C13.6797 339.375 13.4453 339.346 13.2422 339.346C12.7227 339.346 12.2773 339.557 11.9062 339.979C11.5391 340.4 11.3555 340.926 11.3555 341.555V345H10.3828V338.578H11.1855L11.2969 339.768H11.3438C11.582 339.35 11.8691 339.027 12.2051 338.801C12.541 338.574 12.9102 338.461 13.3125 338.461ZM16.2539 345H15.2812V338.578H16.2539V345ZM15.1992 336.838C15.1992 336.615 15.2539 336.453 15.3633 336.352C15.4727 336.246 15.6094 336.193 15.7734 336.193C15.9297 336.193 16.0645 336.246 16.1777 336.352C16.291 336.457 16.3477 336.619 16.3477 336.838C16.3477 337.057 16.291 337.221 16.1777 337.33C16.0645 337.436 15.9297 337.488 15.7734 337.488C15.6094 337.488 15.4727 337.436 15.3633 337.33C15.2539 337.221 15.1992 337.057 15.1992 336.838ZM23.5723 338.578V339.193L22.3828 339.334C22.4922 339.471 22.5898 339.65 22.6758 339.873C22.7617 340.092 22.8047 340.34 22.8047 340.617C22.8047 341.246 22.5898 341.748 22.1602 342.123C21.7305 342.498 21.1406 342.686 20.3906 342.686C20.1992 342.686 20.0195 342.67 19.8516 342.639C19.4375 342.857 19.2305 343.133 19.2305 343.465C19.2305 343.641 19.3027 343.771 19.4473 343.857C19.5918 343.939 19.8398 343.98 20.1914 343.98H21.3281C22.0234 343.98 22.5566 344.127 22.9277 344.42C23.3027 344.713 23.4902 345.139 23.4902 345.697C23.4902 346.408 23.2051 346.949 22.6348 347.32C22.0645 347.695 21.2324 347.883 20.1387 347.883C19.2988 347.883 18.6504 347.727 18.1934 347.414C17.7402 347.102 17.5137 346.66 17.5137 346.09C17.5137 345.699 17.6387 345.361 17.8887 345.076C18.1387 344.791 18.4902 344.598 18.9434 344.496C18.7793 344.422 18.6406 344.307 18.5273 344.15C18.418 343.994 18.3633 343.812 18.3633 343.605C18.3633 343.371 18.4258 343.166 18.5508 342.99C18.6758 342.814 18.873 342.645 19.1426 342.48C18.8105 342.344 18.5391 342.111 18.3281 341.783C18.1211 341.455 18.0176 341.08 18.0176 340.658C18.0176 339.955 18.2285 339.414 18.6504 339.035C19.0723 338.652 19.6699 338.461 20.4434 338.461C20.7793 338.461 21.082 338.5 21.3516 338.578H23.5723ZM18.4512 346.078C18.4512 346.426 18.5977 346.689 18.8906 346.869C19.1836 347.049 19.6035 347.139 20.1504 347.139C20.9668 347.139 21.5703 347.016 21.9609 346.77C22.3555 346.527 22.5527 346.197 22.5527 345.779C22.5527 345.432 22.4453 345.189 22.2305 345.053C22.0156 344.92 21.6113 344.854 21.0176 344.854H19.8516C19.4102 344.854 19.0664 344.959 18.8203 345.17C18.5742 345.381 18.4512 345.684 18.4512 346.078ZM18.9785 340.635C18.9785 341.084 19.1055 341.424 19.3594 341.654C19.6133 341.885 19.9668 342 20.4199 342C21.3691 342 21.8438 341.539 21.8438 340.617C21.8438 339.652 21.3633 339.17 20.4023 339.17C19.9453 339.17 19.5938 339.293 19.3477 339.539C19.1016 339.785 18.9785 340.15 18.9785 340.635ZM25.8633 345H24.8906V338.578H25.8633V345ZM24.8086 336.838C24.8086 336.615 24.8633 336.453 24.9727 336.352C25.082 336.246 25.2188 336.193 25.3828 336.193C25.5391 336.193 25.6738 336.246 25.7871 336.352C25.9004 336.457 25.957 336.619 25.957 336.838C25.957 337.057 25.9004 337.221 25.7871 337.33C25.6738 337.436 25.5391 337.488 25.3828 337.488C25.2188 337.488 25.082 337.436 24.9727 337.33C24.8633 337.221 24.8086 337.057 24.8086 336.838ZM32.3203 345V340.846C32.3203 340.322 32.2012 339.932 31.9629 339.674C31.7246 339.416 31.3516 339.287 30.8438 339.287C30.1719 339.287 29.6797 339.469 29.3672 339.832C29.0547 340.195 28.8984 340.795 28.8984 341.631V345H27.9258V338.578H28.7168L28.875 339.457H28.9219C29.1211 339.141 29.4004 338.896 29.7598 338.725C30.1191 338.549 30.5195 338.461 30.9609 338.461C31.7344 338.461 32.3164 338.648 32.707 339.023C33.0977 339.395 33.293 339.99 33.293 340.811V345H32.3203ZM39.2461 345L39.0527 344.086H39.0059C38.6855 344.488 38.3652 344.762 38.0449 344.906C37.7285 345.047 37.332 345.117 36.8555 345.117C36.2188 345.117 35.7188 344.953 35.3555 344.625C34.9961 344.297 34.8164 343.83 34.8164 343.225C34.8164 341.928 35.8535 341.248 37.9277 341.186L39.0176 341.15V340.752C39.0176 340.248 38.9082 339.877 38.6895 339.639C38.4746 339.396 38.1289 339.275 37.6523 339.275C37.1172 339.275 36.5117 339.439 35.8359 339.768L35.5371 339.023C35.8535 338.852 36.1992 338.717 36.5742 338.619C36.9531 338.521 37.332 338.473 37.7109 338.473C38.4766 338.473 39.043 338.643 39.4102 338.982C39.7812 339.322 39.9668 339.867 39.9668 340.617V345H39.2461ZM37.0488 344.314C37.6543 344.314 38.1289 344.148 38.4727 343.816C38.8203 343.484 38.9941 343.02 38.9941 342.422V341.842L38.0215 341.883C37.248 341.91 36.6895 342.031 36.3457 342.246C36.0059 342.457 35.8359 342.787 35.8359 343.236C35.8359 343.588 35.9414 343.855 36.1523 344.039C36.3672 344.223 36.666 344.314 37.0488 344.314ZM42.9492 345H41.9766V335.883H42.9492V345ZM51.2871 345H50.3379V338.895C50.3379 338.387 50.3535 337.906 50.3848 337.453C50.3027 337.535 50.2109 337.621 50.1094 337.711C50.0078 337.801 49.543 338.182 48.7148 338.854L48.1992 338.186L50.4668 336.434H51.2871V345ZM54.6504 341.338C54.6504 339.654 54.9766 338.396 55.6289 337.564C56.2852 336.729 57.2539 336.311 58.5352 336.311C58.9766 336.311 59.3242 336.348 59.5781 336.422V337.26C59.2773 337.162 58.9336 337.113 58.5469 337.113C57.6289 337.113 56.9277 337.4 56.4434 337.975C55.959 338.545 55.6934 339.443 55.6465 340.67H55.7168C56.1465 339.998 56.8262 339.662 57.7559 339.662C58.5254 339.662 59.1309 339.895 59.5723 340.359C60.0176 340.824 60.2402 341.455 60.2402 342.252C60.2402 343.143 59.9961 343.844 59.5078 344.355C59.0234 344.863 58.3672 345.117 57.5391 345.117C56.6523 345.117 55.9492 344.785 55.4297 344.121C54.9102 343.453 54.6504 342.525 54.6504 341.338ZM57.5273 344.291C58.082 344.291 58.5117 344.117 58.8164 343.77C59.125 343.418 59.2793 342.912 59.2793 342.252C59.2793 341.686 59.1367 341.24 58.8516 340.916C58.5664 340.592 58.1406 340.43 57.5742 340.43C57.2227 340.43 56.9004 340.502 56.6074 340.646C56.3145 340.791 56.0801 340.99 55.9043 341.244C55.7324 341.498 55.6465 341.762 55.6465 342.035C55.6465 342.438 55.7246 342.812 55.8809 343.16C56.0371 343.508 56.2578 343.783 56.543 343.986C56.832 344.189 57.1602 344.291 57.5273 344.291ZM63.4102 341.713L61.1777 338.578H62.2852L63.9785 341.039L65.666 338.578H66.7617L64.5293 341.713L66.8789 345H65.7773L63.9785 342.398L62.1621 345H61.0605L63.4102 341.713ZM71.3145 345H70.3652V338.895C70.3652 338.387 70.3809 337.906 70.4121 337.453C70.3301 337.535 70.2383 337.621 70.1367 337.711C70.0352 337.801 69.5703 338.182 68.7422 338.854L68.2266 338.186L70.4941 336.434H71.3145V345ZM74.6777 341.338C74.6777 339.654 75.0039 338.396 75.6562 337.564C76.3125 336.729 77.2812 336.311 78.5625 336.311C79.0039 336.311 79.3516 336.348 79.6055 336.422V337.26C79.3047 337.162 78.9609 337.113 78.5742 337.113C77.6562 337.113 76.9551 337.4 76.4707 337.975C75.9863 338.545 75.7207 339.443 75.6738 340.67H75.7441C76.1738 339.998 76.8535 339.662 77.7832 339.662C78.5527 339.662 79.1582 339.895 79.5996 340.359C80.0449 340.824 80.2676 341.455 80.2676 342.252C80.2676 343.143 80.0234 343.844 79.5352 344.355C79.0508 344.863 78.3945 345.117 77.5664 345.117C76.6797 345.117 75.9766 344.785 75.457 344.121C74.9375 343.453 74.6777 342.525 74.6777 341.338ZM77.5547 344.291C78.1094 344.291 78.5391 344.117 78.8438 343.77C79.1523 343.418 79.3066 342.912 79.3066 342.252C79.3066 341.686 79.1641 341.24 78.8789 340.916C78.5938 340.592 78.168 340.43 77.6016 340.43C77.25 340.43 76.9277 340.502 76.6348 340.646C76.3418 340.791 76.1074 340.99 75.9316 341.244C75.7598 341.498 75.6738 341.762 75.6738 342.035C75.6738 342.438 75.752 342.812 75.9082 343.16C76.0645 343.508 76.2852 343.783 76.5703 343.986C76.8594 344.189 77.1875 344.291 77.5547 344.291ZM89.1504 343.248C89.1504 343.846 88.9277 344.307 88.4824 344.631C88.0371 344.955 87.4121 345.117 86.6074 345.117C85.7559 345.117 85.0918 344.982 84.6152 344.713V343.811C84.9238 343.967 85.2539 344.09 85.6055 344.18C85.9609 344.27 86.3027 344.314 86.6309 344.314C87.1387 344.314 87.5293 344.234 87.8027 344.074C88.0762 343.91 88.2129 343.662 88.2129 343.33C88.2129 343.08 88.1035 342.867 87.8848 342.691C87.6699 342.512 87.248 342.301 86.6191 342.059C86.0215 341.836 85.5957 341.643 85.3418 341.479C85.0918 341.311 84.9043 341.121 84.7793 340.91C84.6582 340.699 84.5977 340.447 84.5977 340.154C84.5977 339.631 84.8105 339.219 85.2363 338.918C85.6621 338.613 86.2461 338.461 86.9883 338.461C87.6797 338.461 88.3555 338.602 89.0156 338.883L88.6699 339.674C88.0254 339.408 87.4414 339.275 86.918 339.275C86.457 339.275 86.1094 339.348 85.875 339.492C85.6406 339.637 85.5234 339.836 85.5234 340.09C85.5234 340.262 85.5664 340.408 85.6523 340.529C85.7422 340.65 85.8848 340.766 86.0801 340.875C86.2754 340.984 86.6504 341.143 87.2051 341.35C87.9668 341.627 88.4805 341.906 88.7461 342.188C89.0156 342.469 89.1504 342.822 89.1504 343.248ZM96.2812 341.783C96.2812 342.83 96.0176 343.648 95.4902 344.238C94.9629 344.824 94.2344 345.117 93.3047 345.117C92.7305 345.117 92.2207 344.982 91.7754 344.713C91.3301 344.443 90.9863 344.057 90.7441 343.553C90.502 343.049 90.3809 342.459 90.3809 341.783C90.3809 340.736 90.6426 339.922 91.166 339.34C91.6895 338.754 92.416 338.461 93.3457 338.461C94.2441 338.461 94.957 338.76 95.4844 339.357C96.0156 339.955 96.2812 340.764 96.2812 341.783ZM91.3887 341.783C91.3887 342.604 91.5527 343.229 91.8809 343.658C92.209 344.088 92.6914 344.303 93.3281 344.303C93.9648 344.303 94.4473 344.09 94.7754 343.664C95.1074 343.234 95.2734 342.607 95.2734 341.783C95.2734 340.967 95.1074 340.348 94.7754 339.926C94.4473 339.5 93.9609 339.287 93.3164 339.287C92.6797 339.287 92.1992 339.496 91.875 339.914C91.5508 340.332 91.3887 340.955 91.3887 341.783ZM100.922 338.461C101.207 338.461 101.463 338.484 101.689 338.531L101.555 339.434C101.289 339.375 101.055 339.346 100.852 339.346C100.332 339.346 99.8867 339.557 99.5156 339.979C99.1484 340.4 98.9648 340.926 98.9648 341.555V345H97.9922V338.578H98.7949L98.9062 339.768H98.9531C99.1914 339.35 99.4785 339.027 99.8145 338.801C100.15 338.574 100.52 338.461 100.922 338.461ZM104.965 344.314C105.137 344.314 105.303 344.303 105.463 344.279C105.623 344.252 105.75 344.225 105.844 344.197V344.941C105.738 344.992 105.582 345.033 105.375 345.064C105.172 345.1 104.988 345.117 104.824 345.117C103.582 345.117 102.961 344.463 102.961 343.154V339.334H102.041V338.865L102.961 338.461L103.371 337.09H103.934V338.578H105.797V339.334H103.934V343.113C103.934 343.5 104.025 343.797 104.209 344.004C104.393 344.211 104.645 344.314 104.965 344.314ZM111.223 345H110.25V338.578H111.223V345ZM110.168 336.838C110.168 336.615 110.223 336.453 110.332 336.352C110.441 336.246 110.578 336.193 110.742 336.193C110.898 336.193 111.033 336.246 111.146 336.352C111.26 336.457 111.316 336.619 111.316 336.838C111.316 337.057 111.26 337.221 111.146 337.33C111.033 337.436 110.898 337.488 110.742 337.488C110.578 337.488 110.441 337.436 110.332 337.33C110.223 337.221 110.168 337.057 110.168 336.838ZM115.852 345.117C114.922 345.117 114.201 344.832 113.689 344.262C113.182 343.688 112.928 342.877 112.928 341.83C112.928 340.756 113.186 339.926 113.701 339.34C114.221 338.754 114.959 338.461 115.916 338.461C116.225 338.461 116.533 338.494 116.842 338.561C117.15 338.627 117.393 338.705 117.568 338.795L117.27 339.621C117.055 339.535 116.82 339.465 116.566 339.41C116.312 339.352 116.088 339.322 115.893 339.322C114.588 339.322 113.936 340.154 113.936 341.818C113.936 342.607 114.094 343.213 114.41 343.635C114.73 344.057 115.203 344.268 115.828 344.268C116.363 344.268 116.912 344.152 117.475 343.922V344.783C117.045 345.006 116.504 345.117 115.852 345.117ZM124.547 341.783C124.547 342.83 124.283 343.648 123.756 344.238C123.229 344.824 122.5 345.117 121.57 345.117C120.996 345.117 120.486 344.982 120.041 344.713C119.596 344.443 119.252 344.057 119.01 343.553C118.768 343.049 118.646 342.459 118.646 341.783C118.646 340.736 118.908 339.922 119.432 339.34C119.955 338.754 120.682 338.461 121.611 338.461C122.51 338.461 123.223 338.76 123.75 339.357C124.281 339.955 124.547 340.764 124.547 341.783ZM119.654 341.783C119.654 342.604 119.818 343.229 120.146 343.658C120.475 344.088 120.957 344.303 121.594 344.303C122.23 344.303 122.713 344.09 123.041 343.664C123.373 343.234 123.539 342.607 123.539 341.783C123.539 340.967 123.373 340.348 123.041 339.926C122.713 339.5 122.227 339.287 121.582 339.287C120.945 339.287 120.465 339.496 120.141 339.914C119.816 340.332 119.654 340.955 119.654 341.783ZM130.652 345V340.846C130.652 340.322 130.533 339.932 130.295 339.674C130.057 339.416 129.684 339.287 129.176 339.287C128.504 339.287 128.012 339.469 127.699 339.832C127.387 340.195 127.23 340.795 127.23 341.631V345H126.258V338.578H127.049L127.207 339.457H127.254C127.453 339.141 127.732 338.896 128.092 338.725C128.451 338.549 128.852 338.461 129.293 338.461C130.066 338.461 130.648 338.648 131.039 339.023C131.43 339.395 131.625 339.99 131.625 340.811V345H130.652ZM133.488 344.379C133.488 344.117 133.547 343.92 133.664 343.787C133.785 343.65 133.957 343.582 134.18 343.582C134.406 343.582 134.582 343.65 134.707 343.787C134.836 343.92 134.9 344.117 134.9 344.379C134.9 344.633 134.836 344.828 134.707 344.965C134.578 345.102 134.402 345.17 134.18 345.17C133.98 345.17 133.814 345.109 133.682 344.988C133.553 344.863 133.488 344.66 133.488 344.379Z" fill="#5D6F7A"/>
<path fill-rule="evenodd" clip-rule="evenodd" d="M170 120C167.24 120 165 122.24 165 125V150C165 152.76 167.24 155 170 155H195C197.76 155 200 152.76 200 150V125C200 122.24 197.76 120 195 120H170ZM170 165C167.24 165 165 167.24 165 170V195C165 197.76 167.24 200 170 200H195C197.76 200 200 197.76 200 195V170C200 167.24 197.76 165 195 165H170ZM190 175V190H175V175H190ZM135 145V195C135 197.76 137.24 200 140 200C142.76 200 145 197.76 145 195V145H160L140 120L120 145H135Z" fill="#222629"/>
<g opacity="0.2">
<line x1="120.5" y1="120" x2="120.5" y2="200" stroke="#F54E31"/>
<line x1="125.5" y1="120" x2="125.5" y2="200" stroke="#F54E31"/>
<line x1="130.5" y1="120" x2="130.5" y2="200" stroke="#F54E31"/>
<line x1="135.5" y1="120" x2="135.5" y2="200" stroke="#F54E31"/>
<line x1="140.5" y1="120" x2="140.5" y2="200" stroke="#F54E31"/>
<line x1="145.5" y1="120" x2="145.5" y2="200" stroke="#F54E31"/>
<line x1="150.5" y1="120" x2="150.5" y2="200" stroke="#F54E31"/>
<line x1="155.5" y1="120" x2="155.5" y2="200" stroke="#F54E31"/>
<line x1="160.5" y1="120" x2="160.5" y2="200" stroke="#F54E31"/>
<line x1="165.5" y1="120" x2="165.5" y2="200" stroke="#F54E31"/>
<line x1="170.5" y1="120" x2="170.5" y2="200" stroke="#F54E31"/>
<line x1="175.5" y1="120" x2="175.5" y2="200" stroke="#F54E31"/>
<line x1="180.5" y1="120" x2="180.5" y2="200" stroke="#F54E31"/>
<line x1="185.5" y1="120" x2="185.5" y2="200" stroke="#F54E31"/>
<line x1="190.5" y1="120" x2="190.5" y2="200" stroke="#F54E31"/>
<line x1="195.5" y1="120" x2="195.5" y2="200" stroke="#F54E31"/>
<line x1="200.5" y1="120" x2="200.5" y2="200" stroke="#F54E31"/>
<path d="M120 120H201" stroke="#F54E31"/>
<path d="M120 125H201" stroke="#F54E31"/>
<path d="M120 130H201" stroke="#F54E31"/>
<path d="M120 135H201" stroke="#F54E31"/>
<path d="M120 140H201" stroke="#F54E31"/>
<path d="M120 145H201" stroke="#F54E31"/>
<path d="M120 150H201" stroke="#F54E31"/>
<path d="M120 155H201" stroke="#F54E31"/>
<path d="M120 160H201" stroke="#F54E31"/>
<path d="M120 165H201" stroke="#F54E31"/>
<path d="M120 170H201" stroke="#F54E31"/>
<path d="M120 175H201" stroke="#F54E31"/>
<path d="M120 180H201" stroke="#F54E31"/>
<path d="M120 185H201" stroke="#F54E31"/>
<path d="M120 190H201" stroke="#F54E31"/>
<path d="M120 195H201" stroke="#F54E31"/>
<path d="M120 200H201" stroke="#F54E31"/>
</g>
<line x1="199.5" y1="120" x2="199.5" y2="104" stroke="#F57058" stroke-dasharray="4 2"/>
<line x1="120.5" y1="120" x2="120.5" y2="104" stroke="#F57058" stroke-dasharray="4 2"/>
<g clip-path="url(#clip2)">
<rect x="126" y="110" width="68" height="1" fill="#F57058"/>
<path d="M126 108L121 110.5L126 113V108Z" fill="#F57058"/>
<path d="M194 108L199 110.5L194 113V108Z" fill="#F57058"/>
</g>
<path d="M157.769 106H156.978V100.912C156.978 100.489 156.991 100.089 157.017 99.7109C156.948 99.7793 156.872 99.8509 156.787 99.9258C156.702 100.001 156.315 100.318 155.625 100.878L155.195 100.321L157.085 98.8613H157.769V106ZM160.571 102.948C160.571 101.545 160.843 100.497 161.387 99.8037C161.934 99.1071 162.741 98.7588 163.809 98.7588C164.176 98.7588 164.466 98.7897 164.678 98.8516V99.5498C164.427 99.4684 164.141 99.4277 163.818 99.4277C163.053 99.4277 162.469 99.667 162.065 100.146C161.662 100.621 161.44 101.369 161.401 102.392H161.46C161.818 101.832 162.384 101.552 163.159 101.552C163.8 101.552 164.305 101.745 164.673 102.133C165.044 102.52 165.229 103.046 165.229 103.71C165.229 104.452 165.026 105.036 164.619 105.463C164.215 105.886 163.669 106.098 162.979 106.098C162.24 106.098 161.654 105.821 161.221 105.268C160.788 104.711 160.571 103.938 160.571 102.948ZM162.969 105.409C163.431 105.409 163.789 105.264 164.043 104.975C164.3 104.682 164.429 104.26 164.429 103.71C164.429 103.238 164.31 102.867 164.072 102.597C163.835 102.326 163.48 102.191 163.008 102.191C162.715 102.191 162.446 102.252 162.202 102.372C161.958 102.493 161.763 102.659 161.616 102.87C161.473 103.082 161.401 103.301 161.401 103.529C161.401 103.865 161.466 104.177 161.597 104.467C161.727 104.757 161.911 104.986 162.148 105.155C162.389 105.325 162.663 105.409 162.969 105.409Z" fill="#202C3D"/>
<line x1="201" y1="199.5" x2="223" y2="199.5" stroke="#F57058" stroke-dasharray="4 2"/>
<line x1="201" y1="120.5" x2="223" y2="120.5" stroke="#F57058" stroke-dasharray="4 2"/>
<g clip-path="url(#clip3)">
<rect x="216" y="194" width="68" height="1" transform="rotate(-90 216 194)" fill="#F57058"/>
<path d="M214 194L216.5 199L219 194H214Z" fill="#F57058"/>
<path d="M214 126L216.5 121L219 126H214Z" fill="#F57058"/>
</g>
<path d="M224.491 164H223.7V158.912C223.7 158.489 223.713 158.089 223.739 157.711C223.671 157.779 223.594 157.851 223.51 157.926C223.425 158.001 223.038 158.318 222.348 158.878L221.918 158.321L223.808 156.861H224.491V164ZM227.294 160.948C227.294 159.545 227.566 158.497 228.109 157.804C228.656 157.107 229.464 156.759 230.531 156.759C230.899 156.759 231.189 156.79 231.4 156.852V157.55C231.15 157.468 230.863 157.428 230.541 157.428C229.776 157.428 229.192 157.667 228.788 158.146C228.384 158.621 228.163 159.369 228.124 160.392H228.183C228.541 159.832 229.107 159.552 229.882 159.552C230.523 159.552 231.028 159.745 231.396 160.133C231.767 160.52 231.952 161.046 231.952 161.71C231.952 162.452 231.749 163.036 231.342 163.463C230.938 163.886 230.391 164.098 229.701 164.098C228.962 164.098 228.376 163.821 227.943 163.268C227.51 162.711 227.294 161.938 227.294 160.948ZM229.691 163.409C230.154 163.409 230.512 163.264 230.766 162.975C231.023 162.682 231.151 162.26 231.151 161.71C231.151 161.238 231.033 160.867 230.795 160.597C230.557 160.326 230.202 160.191 229.73 160.191C229.438 160.191 229.169 160.252 228.925 160.372C228.681 160.493 228.485 160.659 228.339 160.87C228.196 161.082 228.124 161.301 228.124 161.529C228.124 161.865 228.189 162.177 228.319 162.467C228.45 162.757 228.633 162.986 228.871 163.155C229.112 163.325 229.385 163.409 229.691 163.409Z" fill="#1C2636"/>
<defs>
<clipPath id="clip0">
<path d="M566 189V131H571V189H566Z" fill="white"/>
</clipPath>
<clipPath id="clip1">
<path d="M491 115H550V120H491V115Z" fill="white"/>
</clipPath>
<clipPath id="clip2">
<path d="M121 108H199V113H121V108Z" fill="white"/>
</clipPath>
<clipPath id="clip3">
<path d="M214 199V121H219V199H214Z" fill="white"/>
</clipPath>
</defs>
</svg>
