<svg width="680" height="375" viewBox="0 0 680 375" fill="none" xmlns="http://www.w3.org/2000/svg">
<rect width="680" height="375" fill="white"/>
<path d="M5.95312 344H1.17773V335.434H5.95312V336.318H2.17383V339.078H5.72461V339.957H2.17383V343.109H5.95312V344ZM8.68359 344H7.71094V334.883H8.68359V344ZM11.7188 344H10.7461V334.883H11.7188V344ZM14.7539 344H13.7812V337.578H14.7539V344ZM13.6992 335.838C13.6992 335.615 13.7539 335.453 13.8633 335.352C13.9727 335.246 14.1094 335.193 14.2734 335.193C14.4297 335.193 14.5645 335.246 14.6777 335.352C14.791 335.457 14.8477 335.619 14.8477 335.838C14.8477 336.057 14.791 336.221 14.6777 336.33C14.5645 336.436 14.4297 336.488 14.2734 336.488C14.1094 336.488 13.9727 336.436 13.8633 336.33C13.7539 336.221 13.6992 336.057 13.6992 335.838ZM19.8047 344.117C19.3867 344.117 19.0039 344.041 18.6562 343.889C18.3125 343.732 18.0234 343.494 17.7891 343.174H17.7188C17.7656 343.549 17.7891 343.904 17.7891 344.24V346.883H16.8164V337.578H17.6074L17.7422 338.457H17.7891C18.0391 338.105 18.3301 337.852 18.6621 337.695C18.9941 337.539 19.375 337.461 19.8047 337.461C20.6562 337.461 21.3125 337.752 21.7734 338.334C22.2383 338.916 22.4707 339.732 22.4707 340.783C22.4707 341.838 22.2344 342.658 21.7617 343.244C21.293 343.826 20.6406 344.117 19.8047 344.117ZM19.6641 338.287C19.0078 338.287 18.5332 338.469 18.2402 338.832C17.9473 339.195 17.7969 339.773 17.7891 340.566V340.783C17.7891 341.686 17.9395 342.332 18.2402 342.723C18.541 343.109 19.0234 343.303 19.6875 343.303C20.2422 343.303 20.6758 343.078 20.9883 342.629C21.3047 342.18 21.4629 341.561 21.4629 340.771C21.4629 339.971 21.3047 339.357 20.9883 338.932C20.6758 338.502 20.2344 338.287 19.6641 338.287ZM28.3184 342.248C28.3184 342.846 28.0957 343.307 27.6504 343.631C27.2051 343.955 26.5801 344.117 25.7754 344.117C24.9238 344.117 24.2598 343.982 23.7832 343.713V342.811C24.0918 342.967 24.4219 343.09 24.7734 343.18C25.1289 343.27 25.4707 343.314 25.7988 343.314C26.3066 343.314 26.6973 343.234 26.9707 343.074C27.2441 342.91 27.3809 342.662 27.3809 342.33C27.3809 342.08 27.2715 341.867 27.0527 341.691C26.8379 341.512 26.416 341.301 25.7871 341.059C25.1895 340.836 24.7637 340.643 24.5098 340.479C24.2598 340.311 24.0723 340.121 23.9473 339.91C23.8262 339.699 23.7656 339.447 23.7656 339.154C23.7656 338.631 23.9785 338.219 24.4043 337.918C24.8301 337.613 25.4141 337.461 26.1562 337.461C26.8477 337.461 27.5234 337.602 28.1836 337.883L27.8379 338.674C27.1934 338.408 26.6094 338.275 26.0859 338.275C25.625 338.275 25.2773 338.348 25.043 338.492C24.8086 338.637 24.6914 338.836 24.6914 339.09C24.6914 339.262 24.7344 339.408 24.8203 339.529C24.9102 339.65 25.0527 339.766 25.248 339.875C25.4434 339.984 25.8184 340.143 26.373 340.35C27.1348 340.627 27.6484 340.906 27.9141 341.188C28.1836 341.469 28.3184 341.822 28.3184 342.248ZM30.8789 344H29.9062V337.578H30.8789V344ZM29.8242 335.838C29.8242 335.615 29.8789 335.453 29.9883 335.352C30.0977 335.246 30.2344 335.193 30.3984 335.193C30.5547 335.193 30.6895 335.246 30.8027 335.352C30.916 335.457 30.9727 335.619 30.9727 335.838C30.9727 336.057 30.916 336.221 30.8027 336.33C30.6895 336.436 30.5547 336.488 30.3984 336.488C30.2344 336.488 30.0977 336.436 29.9883 336.33C29.8789 336.221 29.8242 336.057 29.8242 335.838ZM37.084 342.248C37.084 342.846 36.8613 343.307 36.416 343.631C35.9707 343.955 35.3457 344.117 34.541 344.117C33.6895 344.117 33.0254 343.982 32.5488 343.713V342.811C32.8574 342.967 33.1875 343.09 33.5391 343.18C33.8945 343.27 34.2363 343.314 34.5645 343.314C35.0723 343.314 35.4629 343.234 35.7363 343.074C36.0098 342.91 36.1465 342.662 36.1465 342.33C36.1465 342.08 36.0371 341.867 35.8184 341.691C35.6035 341.512 35.1816 341.301 34.5527 341.059C33.9551 340.836 33.5293 340.643 33.2754 340.479C33.0254 340.311 32.8379 340.121 32.7129 339.91C32.5918 339.699 32.5312 339.447 32.5312 339.154C32.5312 338.631 32.7441 338.219 33.1699 337.918C33.5957 337.613 34.1797 337.461 34.9219 337.461C35.6133 337.461 36.2891 337.602 36.9492 337.883L36.6035 338.674C35.959 338.408 35.375 338.275 34.8516 338.275C34.3906 338.275 34.043 338.348 33.8086 338.492C33.5742 338.637 33.457 338.836 33.457 339.09C33.457 339.262 33.5 339.408 33.5859 339.529C33.6758 339.65 33.8184 339.766 34.0137 339.875C34.209 339.984 34.584 340.143 35.1387 340.35C35.9004 340.627 36.4141 340.906 36.6797 341.188C36.9492 341.469 37.084 341.822 37.084 342.248ZM45.7383 344L45.5449 343.086H45.498C45.1777 343.488 44.8574 343.762 44.5371 343.906C44.2207 344.047 43.8242 344.117 43.3477 344.117C42.7109 344.117 42.2109 343.953 41.8477 343.625C41.4883 343.297 41.3086 342.83 41.3086 342.225C41.3086 340.928 42.3457 340.248 44.4199 340.186L45.5098 340.15V339.752C45.5098 339.248 45.4004 338.877 45.1816 338.639C44.9668 338.396 44.6211 338.275 44.1445 338.275C43.6094 338.275 43.0039 338.439 42.3281 338.768L42.0293 338.023C42.3457 337.852 42.6914 337.717 43.0664 337.619C43.4453 337.521 43.8242 337.473 44.2031 337.473C44.9688 337.473 45.5352 337.643 45.9023 337.982C46.2734 338.322 46.459 338.867 46.459 339.617V344H45.7383ZM43.541 343.314C44.1465 343.314 44.6211 343.148 44.9648 342.816C45.3125 342.484 45.4863 342.02 45.4863 341.422V340.842L44.5137 340.883C43.7402 340.91 43.1816 341.031 42.8379 341.246C42.498 341.457 42.3281 341.787 42.3281 342.236C42.3281 342.588 42.4336 342.855 42.6445 343.039C42.8594 343.223 43.1582 343.314 43.541 343.314ZM51.3984 337.461C51.6836 337.461 51.9395 337.484 52.166 337.531L52.0312 338.434C51.7656 338.375 51.5312 338.346 51.3281 338.346C50.8086 338.346 50.3633 338.557 49.9922 338.979C49.625 339.4 49.4414 339.926 49.4414 340.555V344H48.4688V337.578H49.2715L49.3828 338.768H49.4297C49.668 338.35 49.9551 338.027 50.291 337.801C50.627 337.574 50.9961 337.461 51.3984 337.461ZM56.0801 344.117C55.1309 344.117 54.3809 343.828 53.8301 343.25C53.2832 342.672 53.0098 341.869 53.0098 340.842C53.0098 339.807 53.2637 338.984 53.7715 338.375C54.2832 337.766 54.9688 337.461 55.8281 337.461C56.6328 337.461 57.2695 337.727 57.7383 338.258C58.207 338.785 58.4414 339.482 58.4414 340.35V340.965H54.0176C54.0371 341.719 54.2266 342.291 54.5859 342.682C54.9492 343.072 55.459 343.268 56.1152 343.268C56.8066 343.268 57.4902 343.123 58.166 342.834V343.701C57.8223 343.85 57.4961 343.955 57.1875 344.018C56.8828 344.084 56.5137 344.117 56.0801 344.117ZM55.8164 338.275C55.3008 338.275 54.8887 338.443 54.5801 338.779C54.2754 339.115 54.0957 339.58 54.041 340.174H57.3984C57.3984 339.561 57.2617 339.092 56.9883 338.768C56.7148 338.439 56.3242 338.275 55.8164 338.275ZM67.1719 344L66.9785 343.086H66.9316C66.6113 343.488 66.291 343.762 65.9707 343.906C65.6543 344.047 65.2578 344.117 64.7812 344.117C64.1445 344.117 63.6445 343.953 63.2812 343.625C62.9219 343.297 62.7422 342.83 62.7422 342.225C62.7422 340.928 63.7793 340.248 65.8535 340.186L66.9434 340.15V339.752C66.9434 339.248 66.834 338.877 66.6152 338.639C66.4004 338.396 66.0547 338.275 65.5781 338.275C65.043 338.275 64.4375 338.439 63.7617 338.768L63.4629 338.023C63.7793 337.852 64.125 337.717 64.5 337.619C64.8789 337.521 65.2578 337.473 65.6367 337.473C66.4023 337.473 66.9688 337.643 67.3359 337.982C67.707 338.322 67.8926 338.867 67.8926 339.617V344H67.1719ZM64.9746 343.314C65.5801 343.314 66.0547 343.148 66.3984 342.816C66.7461 342.484 66.9199 342.02 66.9199 341.422V340.842L65.9473 340.883C65.1738 340.91 64.6152 341.031 64.2715 341.246C63.9316 341.457 63.7617 341.787 63.7617 342.236C63.7617 342.588 63.8672 342.855 64.0781 343.039C64.293 343.223 64.5918 343.314 64.9746 343.314ZM72.4688 344.117C71.5391 344.117 70.8184 343.832 70.3066 343.262C69.7988 342.688 69.5449 341.877 69.5449 340.83C69.5449 339.756 69.8027 338.926 70.3184 338.34C70.8379 337.754 71.5762 337.461 72.5332 337.461C72.8418 337.461 73.1504 337.494 73.459 337.561C73.7676 337.627 74.0098 337.705 74.1855 337.795L73.8867 338.621C73.6719 338.535 73.4375 338.465 73.1836 338.41C72.9297 338.352 72.7051 338.322 72.5098 338.322C71.2051 338.322 70.5527 339.154 70.5527 340.818C70.5527 341.607 70.7109 342.213 71.0273 342.635C71.3477 343.057 71.8203 343.268 72.4453 343.268C72.9805 343.268 73.5293 343.152 74.0918 342.922V343.783C73.6621 344.006 73.1211 344.117 72.4688 344.117ZM78.1875 344.117C77.2578 344.117 76.5371 343.832 76.0254 343.262C75.5176 342.688 75.2637 341.877 75.2637 340.83C75.2637 339.756 75.5215 338.926 76.0371 338.34C76.5566 337.754 77.2949 337.461 78.252 337.461C78.5605 337.461 78.8691 337.494 79.1777 337.561C79.4863 337.627 79.7285 337.705 79.9043 337.795L79.6055 338.621C79.3906 338.535 79.1562 338.465 78.9023 338.41C78.6484 338.352 78.4238 338.322 78.2285 338.322C76.9238 338.322 76.2715 339.154 76.2715 340.818C76.2715 341.607 76.4297 342.213 76.7461 342.635C77.0664 343.057 77.5391 343.268 78.1641 343.268C78.6992 343.268 79.248 343.152 79.8105 342.922V343.783C79.3809 344.006 78.8398 344.117 78.1875 344.117ZM84.0527 344.117C83.1035 344.117 82.3535 343.828 81.8027 343.25C81.2559 342.672 80.9824 341.869 80.9824 340.842C80.9824 339.807 81.2363 338.984 81.7441 338.375C82.2559 337.766 82.9414 337.461 83.8008 337.461C84.6055 337.461 85.2422 337.727 85.7109 338.258C86.1797 338.785 86.4141 339.482 86.4141 340.35V340.965H81.9902C82.0098 341.719 82.1992 342.291 82.5586 342.682C82.9219 343.072 83.4316 343.268 84.0879 343.268C84.7793 343.268 85.4629 343.123 86.1387 342.834V343.701C85.7949 343.85 85.4688 343.955 85.1602 344.018C84.8555 344.084 84.4863 344.117 84.0527 344.117ZM83.7891 338.275C83.2734 338.275 82.8613 338.443 82.5527 338.779C82.248 339.115 82.0684 339.58 82.0137 340.174H85.3711C85.3711 339.561 85.2344 339.092 84.9609 338.768C84.6875 338.439 84.2969 338.275 83.7891 338.275ZM91.0664 344.117C90.6484 344.117 90.2656 344.041 89.918 343.889C89.5742 343.732 89.2852 343.494 89.0508 343.174H88.9805C89.0273 343.549 89.0508 343.904 89.0508 344.24V346.883H88.0781V337.578H88.8691L89.0039 338.457H89.0508C89.3008 338.105 89.5918 337.852 89.9238 337.695C90.2559 337.539 90.6367 337.461 91.0664 337.461C91.918 337.461 92.5742 337.752 93.0352 338.334C93.5 338.916 93.7324 339.732 93.7324 340.783C93.7324 341.838 93.4961 342.658 93.0234 343.244C92.5547 343.826 91.9023 344.117 91.0664 344.117ZM90.9258 338.287C90.2695 338.287 89.7949 338.469 89.502 338.832C89.209 339.195 89.0586 339.773 89.0508 340.566V340.783C89.0508 341.686 89.2012 342.332 89.502 342.723C89.8027 343.109 90.2852 343.303 90.9492 343.303C91.5039 343.303 91.9375 343.078 92.25 342.629C92.5664 342.18 92.7246 341.561 92.7246 340.771C92.7246 339.971 92.5664 339.357 92.25 338.932C91.9375 338.502 91.4961 338.287 90.9258 338.287ZM97.5117 343.314C97.6836 343.314 97.8496 343.303 98.0098 343.279C98.1699 343.252 98.2969 343.225 98.3906 343.197V343.941C98.2852 343.992 98.1289 344.033 97.9219 344.064C97.7188 344.1 97.5352 344.117 97.3711 344.117C96.1289 344.117 95.5078 343.463 95.5078 342.154V338.334H94.5879V337.865L95.5078 337.461L95.918 336.09H96.4805V337.578H98.3438V338.334H96.4805V342.113C96.4805 342.5 96.5723 342.797 96.7559 343.004C96.9395 343.211 97.1914 343.314 97.5117 343.314ZM103.629 344L103.436 343.086H103.389C103.068 343.488 102.748 343.762 102.428 343.906C102.111 344.047 101.715 344.117 101.238 344.117C100.602 344.117 100.102 343.953 99.7383 343.625C99.3789 343.297 99.1992 342.83 99.1992 342.225C99.1992 340.928 100.236 340.248 102.311 340.186L103.4 340.15V339.752C103.4 339.248 103.291 338.877 103.072 338.639C102.857 338.396 102.512 338.275 102.035 338.275C101.5 338.275 100.895 338.439 100.219 338.768L99.9199 338.023C100.236 337.852 100.582 337.717 100.957 337.619C101.336 337.521 101.715 337.473 102.094 337.473C102.859 337.473 103.426 337.643 103.793 337.982C104.164 338.322 104.35 338.867 104.35 339.617V344H103.629ZM101.432 343.314C102.037 343.314 102.512 343.148 102.855 342.816C103.203 342.484 103.377 342.02 103.377 341.422V340.842L102.404 340.883C101.631 340.91 101.072 341.031 100.729 341.246C100.389 341.457 100.219 341.787 100.219 342.236C100.219 342.588 100.324 342.855 100.535 343.039C100.75 343.223 101.049 343.314 101.432 343.314ZM109.348 337.473C110.191 337.473 110.846 337.762 111.311 338.34C111.779 338.914 112.014 339.729 112.014 340.783C112.014 341.838 111.777 342.658 111.305 343.244C110.836 343.826 110.184 344.117 109.348 344.117C108.93 344.117 108.547 344.041 108.199 343.889C107.855 343.732 107.566 343.494 107.332 343.174H107.262L107.057 344H106.359V334.883H107.332V337.098C107.332 337.594 107.316 338.039 107.285 338.434H107.332C107.785 337.793 108.457 337.473 109.348 337.473ZM109.207 338.287C108.543 338.287 108.064 338.479 107.771 338.861C107.479 339.24 107.332 339.881 107.332 340.783C107.332 341.686 107.482 342.332 107.783 342.723C108.084 343.109 108.566 343.303 109.23 343.303C109.828 343.303 110.273 343.086 110.566 342.652C110.859 342.215 111.006 341.588 111.006 340.771C111.006 339.936 110.859 339.312 110.566 338.902C110.273 338.492 109.82 338.287 109.207 338.287ZM114.691 344H113.719V334.883H114.691V344ZM119.467 344.117C118.518 344.117 117.768 343.828 117.217 343.25C116.67 342.672 116.396 341.869 116.396 340.842C116.396 339.807 116.65 338.984 117.158 338.375C117.67 337.766 118.355 337.461 119.215 337.461C120.02 337.461 120.656 337.727 121.125 338.258C121.594 338.785 121.828 339.482 121.828 340.35V340.965H117.404C117.424 341.719 117.613 342.291 117.973 342.682C118.336 343.072 118.846 343.268 119.502 343.268C120.193 343.268 120.877 343.123 121.553 342.834V343.701C121.209 343.85 120.883 343.955 120.574 344.018C120.27 344.084 119.9 344.117 119.467 344.117ZM119.203 338.275C118.688 338.275 118.275 338.443 117.967 338.779C117.662 339.115 117.482 339.58 117.428 340.174H120.785C120.785 339.561 120.648 339.092 120.375 338.768C120.102 338.439 119.711 338.275 119.203 338.275ZM129.598 337.473C130.441 337.473 131.096 337.762 131.561 338.34C132.029 338.914 132.264 339.729 132.264 340.783C132.264 341.838 132.027 342.658 131.555 343.244C131.086 343.826 130.434 344.117 129.598 344.117C129.18 344.117 128.797 344.041 128.449 343.889C128.105 343.732 127.816 343.494 127.582 343.174H127.512L127.307 344H126.609V334.883H127.582V337.098C127.582 337.594 127.566 338.039 127.535 338.434H127.582C128.035 337.793 128.707 337.473 129.598 337.473ZM129.457 338.287C128.793 338.287 128.314 338.479 128.021 338.861C127.729 339.24 127.582 339.881 127.582 340.783C127.582 341.686 127.732 342.332 128.033 342.723C128.334 343.109 128.816 343.303 129.48 343.303C130.078 343.303 130.523 343.086 130.816 342.652C131.109 342.215 131.256 341.588 131.256 340.771C131.256 339.936 131.109 339.312 130.816 338.902C130.523 338.492 130.07 338.287 129.457 338.287ZM136.682 344.117C135.732 344.117 134.982 343.828 134.432 343.25C133.885 342.672 133.611 341.869 133.611 340.842C133.611 339.807 133.865 338.984 134.373 338.375C134.885 337.766 135.57 337.461 136.43 337.461C137.234 337.461 137.871 337.727 138.34 338.258C138.809 338.785 139.043 339.482 139.043 340.35V340.965H134.619C134.639 341.719 134.828 342.291 135.188 342.682C135.551 343.072 136.061 343.268 136.717 343.268C137.408 343.268 138.092 343.123 138.768 342.834V343.701C138.424 343.85 138.098 343.955 137.789 344.018C137.484 344.084 137.115 344.117 136.682 344.117ZM136.418 338.275C135.902 338.275 135.49 338.443 135.182 338.779C134.877 339.115 134.697 339.58 134.643 340.174H138C138 339.561 137.863 339.092 137.59 338.768C137.316 338.439 136.926 338.275 136.418 338.275ZM143.273 344.117C142.344 344.117 141.623 343.832 141.111 343.262C140.604 342.688 140.35 341.877 140.35 340.83C140.35 339.756 140.607 338.926 141.123 338.34C141.643 337.754 142.381 337.461 143.338 337.461C143.646 337.461 143.955 337.494 144.264 337.561C144.572 337.627 144.814 337.705 144.99 337.795L144.691 338.621C144.477 338.535 144.242 338.465 143.988 338.41C143.734 338.352 143.51 338.322 143.314 338.322C142.01 338.322 141.357 339.154 141.357 340.818C141.357 341.607 141.516 342.213 141.832 342.635C142.152 343.057 142.625 343.268 143.25 343.268C143.785 343.268 144.334 343.152 144.896 342.922V343.783C144.467 344.006 143.926 344.117 143.273 344.117ZM150.375 344L150.182 343.086H150.135C149.814 343.488 149.494 343.762 149.174 343.906C148.857 344.047 148.461 344.117 147.984 344.117C147.348 344.117 146.848 343.953 146.484 343.625C146.125 343.297 145.945 342.83 145.945 342.225C145.945 340.928 146.982 340.248 149.057 340.186L150.146 340.15V339.752C150.146 339.248 150.037 338.877 149.818 338.639C149.604 338.396 149.258 338.275 148.781 338.275C148.246 338.275 147.641 338.439 146.965 338.768L146.666 338.023C146.982 337.852 147.328 337.717 147.703 337.619C148.082 337.521 148.461 337.473 148.84 337.473C149.605 337.473 150.172 337.643 150.539 337.982C150.91 338.322 151.096 338.867 151.096 339.617V344H150.375ZM148.178 343.314C148.783 343.314 149.258 343.148 149.602 342.816C149.949 342.484 150.123 342.02 150.123 341.422V340.842L149.15 340.883C148.377 340.91 147.818 341.031 147.475 341.246C147.135 341.457 146.965 341.787 146.965 342.236C146.965 342.588 147.07 342.855 147.281 343.039C147.496 343.223 147.795 343.314 148.178 343.314ZM154.02 337.578V341.744C154.02 342.268 154.139 342.658 154.377 342.916C154.615 343.174 154.988 343.303 155.496 343.303C156.168 343.303 156.658 343.119 156.967 342.752C157.279 342.385 157.436 341.785 157.436 340.953V337.578H158.408V344H157.605L157.465 343.139H157.412C157.213 343.455 156.936 343.697 156.58 343.865C156.229 344.033 155.826 344.117 155.373 344.117C154.592 344.117 154.006 343.932 153.615 343.561C153.229 343.189 153.035 342.596 153.035 341.779V337.578H154.02ZM164.619 342.248C164.619 342.846 164.396 343.307 163.951 343.631C163.506 343.955 162.881 344.117 162.076 344.117C161.225 344.117 160.561 343.982 160.084 343.713V342.811C160.393 342.967 160.723 343.09 161.074 343.18C161.43 343.27 161.771 343.314 162.1 343.314C162.607 343.314 162.998 343.234 163.271 343.074C163.545 342.91 163.682 342.662 163.682 342.33C163.682 342.08 163.572 341.867 163.354 341.691C163.139 341.512 162.717 341.301 162.088 341.059C161.49 340.836 161.064 340.643 160.811 340.479C160.561 340.311 160.373 340.121 160.248 339.91C160.127 339.699 160.066 339.447 160.066 339.154C160.066 338.631 160.279 338.219 160.705 337.918C161.131 337.613 161.715 337.461 162.457 337.461C163.148 337.461 163.824 337.602 164.484 337.883L164.139 338.674C163.494 338.408 162.91 338.275 162.387 338.275C161.926 338.275 161.578 338.348 161.344 338.492C161.109 338.637 160.992 338.836 160.992 339.09C160.992 339.262 161.035 339.408 161.121 339.529C161.211 339.65 161.354 339.766 161.549 339.875C161.744 339.984 162.119 340.143 162.674 340.35C163.436 340.627 163.949 340.906 164.215 341.188C164.484 341.469 164.619 341.822 164.619 342.248ZM168.92 344.117C167.971 344.117 167.221 343.828 166.67 343.25C166.123 342.672 165.85 341.869 165.85 340.842C165.85 339.807 166.104 338.984 166.611 338.375C167.123 337.766 167.809 337.461 168.668 337.461C169.473 337.461 170.109 337.727 170.578 338.258C171.047 338.785 171.281 339.482 171.281 340.35V340.965H166.857C166.877 341.719 167.066 342.291 167.426 342.682C167.789 343.072 168.299 343.268 168.955 343.268C169.646 343.268 170.33 343.123 171.006 342.834V343.701C170.662 343.85 170.336 343.955 170.027 344.018C169.723 344.084 169.354 344.117 168.92 344.117ZM168.656 338.275C168.141 338.275 167.729 338.443 167.42 338.779C167.115 339.115 166.936 339.58 166.881 340.174H170.238C170.238 339.561 170.102 339.092 169.828 338.768C169.555 338.439 169.164 338.275 168.656 338.275ZM178.137 343.314C178.309 343.314 178.475 343.303 178.635 343.279C178.795 343.252 178.922 343.225 179.016 343.197V343.941C178.91 343.992 178.754 344.033 178.547 344.064C178.344 344.1 178.16 344.117 177.996 344.117C176.754 344.117 176.133 343.463 176.133 342.154V338.334H175.213V337.865L176.133 337.461L176.543 336.09H177.105V337.578H178.969V338.334H177.105V342.113C177.105 342.5 177.197 342.797 177.381 343.004C177.564 343.211 177.816 343.314 178.137 343.314ZM184.699 344V339.846C184.699 339.322 184.58 338.932 184.342 338.674C184.104 338.416 183.73 338.287 183.223 338.287C182.547 338.287 182.053 338.471 181.74 338.838C181.432 339.205 181.277 339.807 181.277 340.643V344H180.305V334.883H181.277V337.643C181.277 337.975 181.262 338.25 181.23 338.469H181.289C181.48 338.16 181.752 337.918 182.104 337.742C182.459 337.562 182.863 337.473 183.316 337.473C184.102 337.473 184.689 337.66 185.08 338.035C185.475 338.406 185.672 338.998 185.672 339.811V344H184.699ZM190.389 344.117C189.439 344.117 188.689 343.828 188.139 343.25C187.592 342.672 187.318 341.869 187.318 340.842C187.318 339.807 187.572 338.984 188.08 338.375C188.592 337.766 189.277 337.461 190.137 337.461C190.941 337.461 191.578 337.727 192.047 338.258C192.516 338.785 192.75 339.482 192.75 340.35V340.965H188.326C188.346 341.719 188.535 342.291 188.895 342.682C189.258 343.072 189.768 343.268 190.424 343.268C191.115 343.268 191.799 343.123 192.475 342.834V343.701C192.131 343.85 191.805 343.955 191.496 344.018C191.191 344.084 190.822 344.117 190.389 344.117ZM190.125 338.275C189.609 338.275 189.197 338.443 188.889 338.779C188.584 339.115 188.404 339.58 188.35 340.174H191.707C191.707 339.561 191.57 339.092 191.297 338.768C191.023 338.439 190.633 338.275 190.125 338.275ZM195.387 344H194.414V337.578H195.387V344ZM194.332 335.838C194.332 335.615 194.387 335.453 194.496 335.352C194.605 335.246 194.742 335.193 194.906 335.193C195.062 335.193 195.197 335.246 195.311 335.352C195.424 335.457 195.48 335.619 195.48 335.838C195.48 336.057 195.424 336.221 195.311 336.33C195.197 336.436 195.062 336.488 194.906 336.488C194.742 336.488 194.605 336.436 194.496 336.33C194.387 336.221 194.332 336.057 194.332 335.838ZM200.379 337.461C200.664 337.461 200.92 337.484 201.146 337.531L201.012 338.434C200.746 338.375 200.512 338.346 200.309 338.346C199.789 338.346 199.344 338.557 198.973 338.979C198.605 339.4 198.422 339.926 198.422 340.555V344H197.449V337.578H198.252L198.363 338.768H198.41C198.648 338.35 198.936 338.027 199.271 337.801C199.607 337.574 199.977 337.461 200.379 337.461ZM208.453 344.117C208.035 344.117 207.652 344.041 207.305 343.889C206.961 343.732 206.672 343.494 206.438 343.174H206.367C206.414 343.549 206.438 343.904 206.438 344.24V346.883H205.465V337.578H206.256L206.391 338.457H206.438C206.688 338.105 206.979 337.852 207.311 337.695C207.643 337.539 208.023 337.461 208.453 337.461C209.305 337.461 209.961 337.752 210.422 338.334C210.887 338.916 211.119 339.732 211.119 340.783C211.119 341.838 210.883 342.658 210.41 343.244C209.941 343.826 209.289 344.117 208.453 344.117ZM208.312 338.287C207.656 338.287 207.182 338.469 206.889 338.832C206.596 339.195 206.445 339.773 206.438 340.566V340.783C206.438 341.686 206.588 342.332 206.889 342.723C207.189 343.109 207.672 343.303 208.336 343.303C208.891 343.303 209.324 343.078 209.637 342.629C209.953 342.18 210.111 341.561 210.111 340.771C210.111 339.971 209.953 339.357 209.637 338.932C209.324 338.502 208.883 338.287 208.312 338.287ZM213.738 337.578V341.744C213.738 342.268 213.857 342.658 214.096 342.916C214.334 343.174 214.707 343.303 215.215 343.303C215.887 343.303 216.377 343.119 216.686 342.752C216.998 342.385 217.154 341.785 217.154 340.953V337.578H218.127V344H217.324L217.184 343.139H217.131C216.932 343.455 216.654 343.697 216.299 343.865C215.947 344.033 215.545 344.117 215.092 344.117C214.311 344.117 213.725 343.932 213.334 343.561C212.947 343.189 212.754 342.596 212.754 341.779V337.578H213.738ZM223.125 337.461C223.41 337.461 223.666 337.484 223.893 337.531L223.758 338.434C223.492 338.375 223.258 338.346 223.055 338.346C222.535 338.346 222.09 338.557 221.719 338.979C221.352 339.4 221.168 339.926 221.168 340.555V344H220.195V337.578H220.998L221.109 338.768H221.156C221.395 338.35 221.682 338.027 222.018 337.801C222.354 337.574 222.723 337.461 223.125 337.461ZM228.082 344.117C227.664 344.117 227.281 344.041 226.934 343.889C226.59 343.732 226.301 343.494 226.066 343.174H225.996C226.043 343.549 226.066 343.904 226.066 344.24V346.883H225.094V337.578H225.885L226.02 338.457H226.066C226.316 338.105 226.607 337.852 226.939 337.695C227.271 337.539 227.652 337.461 228.082 337.461C228.934 337.461 229.59 337.752 230.051 338.334C230.516 338.916 230.748 339.732 230.748 340.783C230.748 341.838 230.512 342.658 230.039 343.244C229.57 343.826 228.918 344.117 228.082 344.117ZM227.941 338.287C227.285 338.287 226.811 338.469 226.518 338.832C226.225 339.195 226.074 339.773 226.066 340.566V340.783C226.066 341.686 226.217 342.332 226.518 342.723C226.818 343.109 227.301 343.303 227.965 343.303C228.52 343.303 228.953 343.078 229.266 342.629C229.582 342.18 229.74 341.561 229.74 340.771C229.74 339.971 229.582 339.357 229.266 338.932C228.953 338.502 228.512 338.287 227.941 338.287ZM237.996 340.783C237.996 341.83 237.732 342.648 237.205 343.238C236.678 343.824 235.949 344.117 235.02 344.117C234.445 344.117 233.936 343.982 233.49 343.713C233.045 343.443 232.701 343.057 232.459 342.553C232.217 342.049 232.096 341.459 232.096 340.783C232.096 339.736 232.357 338.922 232.881 338.34C233.404 337.754 234.131 337.461 235.061 337.461C235.959 337.461 236.672 337.76 237.199 338.357C237.73 338.955 237.996 339.764 237.996 340.783ZM233.104 340.783C233.104 341.604 233.268 342.229 233.596 342.658C233.924 343.088 234.406 343.303 235.043 343.303C235.68 343.303 236.162 343.09 236.49 342.664C236.822 342.234 236.988 341.607 236.988 340.783C236.988 339.967 236.822 339.348 236.49 338.926C236.162 338.5 235.676 338.287 235.031 338.287C234.395 338.287 233.914 338.496 233.59 338.914C233.266 339.332 233.104 339.955 233.104 340.783ZM243.85 342.248C243.85 342.846 243.627 343.307 243.182 343.631C242.736 343.955 242.111 344.117 241.307 344.117C240.455 344.117 239.791 343.982 239.314 343.713V342.811C239.623 342.967 239.953 343.09 240.305 343.18C240.66 343.27 241.002 343.314 241.33 343.314C241.838 343.314 242.229 343.234 242.502 343.074C242.775 342.91 242.912 342.662 242.912 342.33C242.912 342.08 242.803 341.867 242.584 341.691C242.369 341.512 241.947 341.301 241.318 341.059C240.721 340.836 240.295 340.643 240.041 340.479C239.791 340.311 239.604 340.121 239.479 339.91C239.357 339.699 239.297 339.447 239.297 339.154C239.297 338.631 239.51 338.219 239.936 337.918C240.361 337.613 240.945 337.461 241.688 337.461C242.379 337.461 243.055 337.602 243.715 337.883L243.369 338.674C242.725 338.408 242.141 338.275 241.617 338.275C241.156 338.275 240.809 338.348 240.574 338.492C240.34 338.637 240.223 338.836 240.223 339.09C240.223 339.262 240.266 339.408 240.352 339.529C240.441 339.65 240.584 339.766 240.779 339.875C240.975 339.984 241.35 340.143 241.904 340.35C242.666 340.627 243.18 340.906 243.445 341.188C243.715 341.469 243.85 341.822 243.85 342.248ZM248.15 344.117C247.201 344.117 246.451 343.828 245.9 343.25C245.354 342.672 245.08 341.869 245.08 340.842C245.08 339.807 245.334 338.984 245.842 338.375C246.354 337.766 247.039 337.461 247.898 337.461C248.703 337.461 249.34 337.727 249.809 338.258C250.277 338.785 250.512 339.482 250.512 340.35V340.965H246.088C246.107 341.719 246.297 342.291 246.656 342.682C247.02 343.072 247.529 343.268 248.186 343.268C248.877 343.268 249.561 343.123 250.236 342.834V343.701C249.893 343.85 249.566 343.955 249.258 344.018C248.953 344.084 248.584 344.117 248.15 344.117ZM247.887 338.275C247.371 338.275 246.959 338.443 246.65 338.779C246.346 339.115 246.166 339.58 246.111 340.174H249.469C249.469 339.561 249.332 339.092 249.059 338.768C248.785 338.439 248.395 338.275 247.887 338.275ZM256.266 344H255.293V337.578H256.266V344ZM255.211 335.838C255.211 335.615 255.266 335.453 255.375 335.352C255.484 335.246 255.621 335.193 255.785 335.193C255.941 335.193 256.076 335.246 256.189 335.352C256.303 335.457 256.359 335.619 256.359 335.838C256.359 336.057 256.303 336.221 256.189 336.33C256.076 336.436 255.941 336.488 255.785 336.488C255.621 336.488 255.484 336.436 255.375 336.33C255.266 336.221 255.211 336.057 255.211 335.838ZM262.471 342.248C262.471 342.846 262.248 343.307 261.803 343.631C261.357 343.955 260.732 344.117 259.928 344.117C259.076 344.117 258.412 343.982 257.936 343.713V342.811C258.244 342.967 258.574 343.09 258.926 343.18C259.281 343.27 259.623 343.314 259.951 343.314C260.459 343.314 260.85 343.234 261.123 343.074C261.396 342.91 261.533 342.662 261.533 342.33C261.533 342.08 261.424 341.867 261.205 341.691C260.99 341.512 260.568 341.301 259.939 341.059C259.342 340.836 258.916 340.643 258.662 340.479C258.412 340.311 258.225 340.121 258.1 339.91C257.979 339.699 257.918 339.447 257.918 339.154C257.918 338.631 258.131 338.219 258.557 337.918C258.982 337.613 259.566 337.461 260.309 337.461C261 337.461 261.676 337.602 262.336 337.883L261.99 338.674C261.346 338.408 260.762 338.275 260.238 338.275C259.777 338.275 259.43 338.348 259.195 338.492C258.961 338.637 258.844 338.836 258.844 339.09C258.844 339.262 258.887 339.408 258.973 339.529C259.062 339.65 259.205 339.766 259.4 339.875C259.596 339.984 259.971 340.143 260.525 340.35C261.287 340.627 261.801 340.906 262.066 341.188C262.336 341.469 262.471 341.822 262.471 342.248ZM269.25 343.314C269.422 343.314 269.588 343.303 269.748 343.279C269.908 343.252 270.035 343.225 270.129 343.197V343.941C270.023 343.992 269.867 344.033 269.66 344.064C269.457 344.1 269.273 344.117 269.109 344.117C267.867 344.117 267.246 343.463 267.246 342.154V338.334H266.326V337.865L267.246 337.461L267.656 336.09H268.219V337.578H270.082V338.334H268.219V342.113C268.219 342.5 268.311 342.797 268.494 343.004C268.678 343.211 268.93 343.314 269.25 343.314ZM276.961 340.783C276.961 341.83 276.697 342.648 276.17 343.238C275.643 343.824 274.914 344.117 273.984 344.117C273.41 344.117 272.9 343.982 272.455 343.713C272.01 343.443 271.666 343.057 271.424 342.553C271.182 342.049 271.061 341.459 271.061 340.783C271.061 339.736 271.322 338.922 271.846 338.34C272.369 337.754 273.096 337.461 274.025 337.461C274.924 337.461 275.637 337.76 276.164 338.357C276.695 338.955 276.961 339.764 276.961 340.783ZM272.068 340.783C272.068 341.604 272.232 342.229 272.561 342.658C272.889 343.088 273.371 343.303 274.008 343.303C274.645 343.303 275.127 343.09 275.455 342.664C275.787 342.234 275.953 341.607 275.953 340.783C275.953 339.967 275.787 339.348 275.455 338.926C275.127 338.5 274.641 338.287 273.996 338.287C273.359 338.287 272.879 338.496 272.555 338.914C272.23 339.332 272.068 339.955 272.068 340.783ZM286.184 344V339.846C286.184 339.322 286.064 338.932 285.826 338.674C285.588 338.416 285.215 338.287 284.707 338.287C284.031 338.287 283.537 338.471 283.225 338.838C282.916 339.205 282.762 339.807 282.762 340.643V344H281.789V334.883H282.762V337.643C282.762 337.975 282.746 338.25 282.715 338.469H282.773C282.965 338.16 283.236 337.918 283.588 337.742C283.943 337.562 284.348 337.473 284.801 337.473C285.586 337.473 286.174 337.66 286.564 338.035C286.959 338.406 287.156 338.998 287.156 339.811V344H286.184ZM291.873 344.117C290.924 344.117 290.174 343.828 289.623 343.25C289.076 342.672 288.803 341.869 288.803 340.842C288.803 339.807 289.057 338.984 289.564 338.375C290.076 337.766 290.762 337.461 291.621 337.461C292.426 337.461 293.062 337.727 293.531 338.258C294 338.785 294.234 339.482 294.234 340.35V340.965H289.811C289.83 341.719 290.02 342.291 290.379 342.682C290.742 343.072 291.252 343.268 291.908 343.268C292.6 343.268 293.283 343.123 293.959 342.834V343.701C293.615 343.85 293.289 343.955 292.98 344.018C292.676 344.084 292.307 344.117 291.873 344.117ZM291.609 338.275C291.094 338.275 290.682 338.443 290.373 338.779C290.068 339.115 289.889 339.58 289.834 340.174H293.191C293.191 339.561 293.055 339.092 292.781 338.768C292.508 338.439 292.117 338.275 291.609 338.275ZM296.871 344H295.898V334.883H296.871V344ZM301.922 344.117C301.504 344.117 301.121 344.041 300.773 343.889C300.43 343.732 300.141 343.494 299.906 343.174H299.836C299.883 343.549 299.906 343.904 299.906 344.24V346.883H298.934V337.578H299.725L299.859 338.457H299.906C300.156 338.105 300.447 337.852 300.779 337.695C301.111 337.539 301.492 337.461 301.922 337.461C302.773 337.461 303.43 337.752 303.891 338.334C304.355 338.916 304.588 339.732 304.588 340.783C304.588 341.838 304.352 342.658 303.879 343.244C303.41 343.826 302.758 344.117 301.922 344.117ZM301.781 338.287C301.125 338.287 300.65 338.469 300.357 338.832C300.064 339.195 299.914 339.773 299.906 340.566V340.783C299.906 341.686 300.057 342.332 300.357 342.723C300.658 343.109 301.141 343.303 301.805 343.303C302.359 343.303 302.793 343.078 303.105 342.629C303.422 342.18 303.58 341.561 303.58 340.771C303.58 339.971 303.422 339.357 303.105 338.932C302.793 338.502 302.352 338.287 301.781 338.287ZM310.383 344H309.41V337.578H310.383V344ZM309.328 335.838C309.328 335.615 309.383 335.453 309.492 335.352C309.602 335.246 309.738 335.193 309.902 335.193C310.059 335.193 310.193 335.246 310.307 335.352C310.42 335.457 310.477 335.619 310.477 335.838C310.477 336.057 310.42 336.221 310.307 336.33C310.193 336.436 310.059 336.488 309.902 336.488C309.738 336.488 309.602 336.436 309.492 336.33C309.383 336.221 309.328 336.057 309.328 335.838ZM316.84 344V339.846C316.84 339.322 316.721 338.932 316.482 338.674C316.244 338.416 315.871 338.287 315.363 338.287C314.691 338.287 314.199 338.469 313.887 338.832C313.574 339.195 313.418 339.795 313.418 340.631V344H312.445V337.578H313.236L313.395 338.457H313.441C313.641 338.141 313.92 337.896 314.279 337.725C314.639 337.549 315.039 337.461 315.48 337.461C316.254 337.461 316.836 337.648 317.227 338.023C317.617 338.395 317.812 338.99 317.812 339.811V344H316.84ZM7.64648 351.434V356.977C7.64648 357.953 7.35156 358.721 6.76172 359.279C6.17188 359.838 5.36133 360.117 4.33008 360.117C3.29883 360.117 2.5 359.836 1.93359 359.273C1.37109 358.711 1.08984 357.938 1.08984 356.953V351.434H2.08594V357.023C2.08594 357.738 2.28125 358.287 2.67188 358.67C3.0625 359.053 3.63672 359.244 4.39453 359.244C5.11719 359.244 5.67383 359.053 6.06445 358.67C6.45508 358.283 6.65039 357.73 6.65039 357.012V351.434H7.64648ZM9.91992 360V351.434H10.916V360H9.91992ZM20.1914 360L19.998 359.086H19.9512C19.6309 359.488 19.3105 359.762 18.9902 359.906C18.6738 360.047 18.2773 360.117 17.8008 360.117C17.1641 360.117 16.6641 359.953 16.3008 359.625C15.9414 359.297 15.7617 358.83 15.7617 358.225C15.7617 356.928 16.7988 356.248 18.873 356.186L19.9629 356.15V355.752C19.9629 355.248 19.8535 354.877 19.6348 354.639C19.4199 354.396 19.0742 354.275 18.5977 354.275C18.0625 354.275 17.457 354.439 16.7812 354.768L16.4824 354.023C16.7988 353.852 17.1445 353.717 17.5195 353.619C17.8984 353.521 18.2773 353.473 18.6562 353.473C19.4219 353.473 19.9883 353.643 20.3555 353.982C20.7266 354.322 20.9121 354.867 20.9121 355.617V360H20.1914ZM17.9941 359.314C18.5996 359.314 19.0742 359.148 19.418 358.816C19.7656 358.484 19.9395 358.02 19.9395 357.422V356.842L18.9668 356.883C18.1934 356.91 17.6348 357.031 17.291 357.246C16.9512 357.457 16.7812 357.787 16.7812 358.236C16.7812 358.588 16.8867 358.855 17.0977 359.039C17.3125 359.223 17.6113 359.314 17.9941 359.314ZM25.8516 353.461C26.1367 353.461 26.3926 353.484 26.6191 353.531L26.4844 354.434C26.2188 354.375 25.9844 354.346 25.7812 354.346C25.2617 354.346 24.8164 354.557 24.4453 354.979C24.0781 355.4 23.8945 355.926 23.8945 356.555V360H22.9219V353.578H23.7246L23.8359 354.768H23.8828C24.1211 354.35 24.4082 354.027 24.7441 353.801C25.0801 353.574 25.4492 353.461 25.8516 353.461ZM30.5332 360.117C29.584 360.117 28.834 359.828 28.2832 359.25C27.7363 358.672 27.4629 357.869 27.4629 356.842C27.4629 355.807 27.7168 354.984 28.2246 354.375C28.7363 353.766 29.4219 353.461 30.2812 353.461C31.0859 353.461 31.7227 353.727 32.1914 354.258C32.6602 354.785 32.8945 355.482 32.8945 356.35V356.965H28.4707C28.4902 357.719 28.6797 358.291 29.0391 358.682C29.4023 359.072 29.9121 359.268 30.5684 359.268C31.2598 359.268 31.9434 359.123 32.6191 358.834V359.701C32.2754 359.85 31.9492 359.955 31.6406 360.018C31.3359 360.084 30.9668 360.117 30.5332 360.117ZM30.2695 354.275C29.7539 354.275 29.3418 354.443 29.0332 354.779C28.7285 355.115 28.5488 355.58 28.4941 356.174H31.8516C31.8516 355.561 31.7148 355.092 31.4414 354.768C31.168 354.439 30.7773 354.275 30.2695 354.275ZM38.5078 360L38.3145 359.086H38.2676C37.9473 359.488 37.627 359.762 37.3066 359.906C36.9902 360.047 36.5938 360.117 36.1172 360.117C35.4805 360.117 34.9805 359.953 34.6172 359.625C34.2578 359.297 34.0781 358.83 34.0781 358.225C34.0781 356.928 35.1152 356.248 37.1895 356.186L38.2793 356.15V355.752C38.2793 355.248 38.1699 354.877 37.9512 354.639C37.7363 354.396 37.3906 354.275 36.9141 354.275C36.3789 354.275 35.7734 354.439 35.0977 354.768L34.7988 354.023C35.1152 353.852 35.4609 353.717 35.8359 353.619C36.2148 353.521 36.5938 353.473 36.9727 353.473C37.7383 353.473 38.3047 353.643 38.6719 353.982C39.043 354.322 39.2285 354.867 39.2285 355.617V360H38.5078ZM36.3105 359.314C36.916 359.314 37.3906 359.148 37.7344 358.816C38.082 358.484 38.2559 358.02 38.2559 357.422V356.842L37.2832 356.883C36.5098 356.91 35.9512 357.031 35.6074 357.246C35.2676 357.457 35.0977 357.787 35.0977 358.236C35.0977 358.588 35.2031 358.855 35.4141 359.039C35.6289 359.223 35.9277 359.314 36.3105 359.314ZM45.3809 358.248C45.3809 358.846 45.1582 359.307 44.7129 359.631C44.2676 359.955 43.6426 360.117 42.8379 360.117C41.9863 360.117 41.3223 359.982 40.8457 359.713V358.811C41.1543 358.967 41.4844 359.09 41.8359 359.18C42.1914 359.27 42.5332 359.314 42.8613 359.314C43.3691 359.314 43.7598 359.234 44.0332 359.074C44.3066 358.91 44.4434 358.662 44.4434 358.33C44.4434 358.08 44.334 357.867 44.1152 357.691C43.9004 357.512 43.4785 357.301 42.8496 357.059C42.252 356.836 41.8262 356.643 41.5723 356.479C41.3223 356.311 41.1348 356.121 41.0098 355.91C40.8887 355.699 40.8281 355.447 40.8281 355.154C40.8281 354.631 41.041 354.219 41.4668 353.918C41.8926 353.613 42.4766 353.461 43.2188 353.461C43.9102 353.461 44.5859 353.602 45.2461 353.883L44.9004 354.674C44.2559 354.408 43.6719 354.275 43.1484 354.275C42.6875 354.275 42.3398 354.348 42.1055 354.492C41.8711 354.637 41.7539 354.836 41.7539 355.09C41.7539 355.262 41.7969 355.408 41.8828 355.529C41.9727 355.65 42.1152 355.766 42.3105 355.875C42.5059 355.984 42.8809 356.143 43.4355 356.35C44.1973 356.627 44.7109 356.906 44.9766 357.188C45.2461 357.469 45.3809 357.822 45.3809 358.248ZM55.3301 360L54.1523 356.232C54.0781 356.002 53.9395 355.479 53.7363 354.662H53.6895C53.5332 355.346 53.3965 355.873 53.2793 356.244L52.0664 360H50.9414L49.1895 353.578H50.209C50.623 355.191 50.9375 356.42 51.1523 357.264C51.3711 358.107 51.4961 358.676 51.5273 358.969H51.5742C51.6172 358.746 51.6855 358.459 51.7793 358.107C51.877 357.752 51.9609 357.471 52.0312 357.264L53.209 353.578H54.2637L55.4121 357.264C55.6309 357.936 55.7793 358.5 55.8574 358.957H55.9043C55.9199 358.816 55.9609 358.6 56.0273 358.307C56.0977 358.014 56.5059 356.438 57.252 353.578H58.2598L56.4844 360H55.3301ZM60.3984 360H59.4258V353.578H60.3984V360ZM59.3438 351.838C59.3438 351.615 59.3984 351.453 59.5078 351.352C59.6172 351.246 59.7539 351.193 59.918 351.193C60.0742 351.193 60.209 351.246 60.3223 351.352C60.4355 351.457 60.4922 351.619 60.4922 351.838C60.4922 352.057 60.4355 352.221 60.3223 352.33C60.209 352.436 60.0742 352.488 59.918 352.488C59.7539 352.488 59.6172 352.436 59.5078 352.33C59.3984 352.221 59.3438 352.057 59.3438 351.838ZM64.5352 359.314C64.707 359.314 64.873 359.303 65.0332 359.279C65.1934 359.252 65.3203 359.225 65.4141 359.197V359.941C65.3086 359.992 65.1523 360.033 64.9453 360.064C64.7422 360.1 64.5586 360.117 64.3945 360.117C63.1523 360.117 62.5312 359.463 62.5312 358.154V354.334H61.6113V353.865L62.5312 353.461L62.9414 352.09H63.5039V353.578H65.3672V354.334H63.5039V358.113C63.5039 358.5 63.5957 358.797 63.7793 359.004C63.9629 359.211 64.2148 359.314 64.5352 359.314ZM71.0977 360V355.846C71.0977 355.322 70.9785 354.932 70.7402 354.674C70.502 354.416 70.1289 354.287 69.6211 354.287C68.9453 354.287 68.4512 354.471 68.1387 354.838C67.8301 355.205 67.6758 355.807 67.6758 356.643V360H66.7031V350.883H67.6758V353.643C67.6758 353.975 67.6602 354.25 67.6289 354.469H67.6875C67.8789 354.16 68.1504 353.918 68.502 353.742C68.8574 353.562 69.2617 353.473 69.7148 353.473C70.5 353.473 71.0879 353.66 71.4785 354.035C71.873 354.406 72.0703 354.998 72.0703 355.811V360H71.0977ZM78.1641 360H77.1914V350.883H78.1641V360ZM81.1992 360H80.2266V353.578H81.1992V360ZM80.1445 351.838C80.1445 351.615 80.1992 351.453 80.3086 351.352C80.418 351.246 80.5547 351.193 80.7188 351.193C80.875 351.193 81.0098 351.246 81.123 351.352C81.2363 351.457 81.293 351.619 81.293 351.838C81.293 352.057 81.2363 352.221 81.123 352.33C81.0098 352.436 80.875 352.488 80.7188 352.488C80.5547 352.488 80.418 352.436 80.3086 352.33C80.1992 352.221 80.1445 352.057 80.1445 351.838ZM91.4473 360V355.822C91.4473 355.311 91.3379 354.928 91.1191 354.674C90.9004 354.416 90.5605 354.287 90.0996 354.287C89.4941 354.287 89.0469 354.461 88.7578 354.809C88.4688 355.156 88.3242 355.691 88.3242 356.414V360H87.3516V355.822C87.3516 355.311 87.2422 354.928 87.0234 354.674C86.8047 354.416 86.4629 354.287 85.998 354.287C85.3887 354.287 84.9414 354.471 84.6562 354.838C84.375 355.201 84.2344 355.799 84.2344 356.631V360H83.2617V353.578H84.0527L84.2109 354.457H84.2578C84.4414 354.145 84.6992 353.9 85.0312 353.725C85.3672 353.549 85.7422 353.461 86.1562 353.461C87.1602 353.461 87.8164 353.824 88.125 354.551H88.1719C88.3633 354.215 88.6406 353.949 89.0039 353.754C89.3672 353.559 89.7812 353.461 90.2461 353.461C90.9727 353.461 91.5156 353.648 91.875 354.023C92.2383 354.395 92.4199 354.99 92.4199 355.811V360H91.4473ZM95.4023 360H94.4297V353.578H95.4023V360ZM94.3477 351.838C94.3477 351.615 94.4023 351.453 94.5117 351.352C94.6211 351.246 94.7578 351.193 94.9219 351.193C95.0781 351.193 95.2129 351.246 95.3262 351.352C95.4395 351.457 95.4961 351.619 95.4961 351.838C95.4961 352.057 95.4395 352.221 95.3262 352.33C95.2129 352.436 95.0781 352.488 94.9219 352.488C94.7578 352.488 94.6211 352.436 94.5117 352.33C94.4023 352.221 94.3477 352.057 94.3477 351.838ZM99.5391 359.314C99.7109 359.314 99.877 359.303 100.037 359.279C100.197 359.252 100.324 359.225 100.418 359.197V359.941C100.312 359.992 100.156 360.033 99.9492 360.064C99.7461 360.1 99.5625 360.117 99.3984 360.117C98.1562 360.117 97.5352 359.463 97.5352 358.154V354.334H96.6152V353.865L97.5352 353.461L97.9453 352.09H98.5078V353.578H100.371V354.334H98.5078V358.113C98.5078 358.5 98.5996 358.797 98.7832 359.004C98.9668 359.211 99.2188 359.314 99.5391 359.314ZM104.42 360.117C103.471 360.117 102.721 359.828 102.17 359.25C101.623 358.672 101.35 357.869 101.35 356.842C101.35 355.807 101.604 354.984 102.111 354.375C102.623 353.766 103.309 353.461 104.168 353.461C104.973 353.461 105.609 353.727 106.078 354.258C106.547 354.785 106.781 355.482 106.781 356.35V356.965H102.357C102.377 357.719 102.566 358.291 102.926 358.682C103.289 359.072 103.799 359.268 104.455 359.268C105.146 359.268 105.83 359.123 106.506 358.834V359.701C106.162 359.85 105.836 359.955 105.527 360.018C105.223 360.084 104.854 360.117 104.42 360.117ZM104.156 354.275C103.641 354.275 103.229 354.443 102.92 354.779C102.615 355.115 102.436 355.58 102.381 356.174H105.738C105.738 355.561 105.602 355.092 105.328 354.768C105.055 354.439 104.664 354.275 104.156 354.275ZM112.816 359.139H112.764C112.314 359.791 111.643 360.117 110.748 360.117C109.908 360.117 109.254 359.83 108.785 359.256C108.32 358.682 108.088 357.865 108.088 356.807C108.088 355.748 108.322 354.926 108.791 354.34C109.26 353.754 109.912 353.461 110.748 353.461C111.619 353.461 112.287 353.777 112.752 354.41H112.828L112.787 353.947L112.764 353.496V350.883H113.736V360H112.945L112.816 359.139ZM110.871 359.303C111.535 359.303 112.016 359.123 112.312 358.764C112.613 358.4 112.764 357.816 112.764 357.012V356.807C112.764 355.896 112.611 355.248 112.307 354.861C112.006 354.471 111.523 354.275 110.859 354.275C110.289 354.275 109.852 354.498 109.547 354.943C109.246 355.385 109.096 356.01 109.096 356.818C109.096 357.639 109.246 358.258 109.547 358.676C109.848 359.094 110.289 359.303 110.871 359.303ZM123.064 358.248C123.064 358.846 122.842 359.307 122.396 359.631C121.951 359.955 121.326 360.117 120.521 360.117C119.67 360.117 119.006 359.982 118.529 359.713V358.811C118.838 358.967 119.168 359.09 119.52 359.18C119.875 359.27 120.217 359.314 120.545 359.314C121.053 359.314 121.443 359.234 121.717 359.074C121.99 358.91 122.127 358.662 122.127 358.33C122.127 358.08 122.018 357.867 121.799 357.691C121.584 357.512 121.162 357.301 120.533 357.059C119.936 356.836 119.51 356.643 119.256 356.479C119.006 356.311 118.818 356.121 118.693 355.91C118.572 355.699 118.512 355.447 118.512 355.154C118.512 354.631 118.725 354.219 119.15 353.918C119.576 353.613 120.16 353.461 120.902 353.461C121.594 353.461 122.27 353.602 122.93 353.883L122.584 354.674C121.939 354.408 121.355 354.275 120.832 354.275C120.371 354.275 120.023 354.348 119.789 354.492C119.555 354.637 119.438 354.836 119.438 355.09C119.438 355.262 119.48 355.408 119.566 355.529C119.656 355.65 119.799 355.766 119.994 355.875C120.189 355.984 120.564 356.143 121.119 356.35C121.881 356.627 122.395 356.906 122.66 357.188C122.93 357.469 123.064 357.822 123.064 358.248ZM127.641 360.117C127.223 360.117 126.84 360.041 126.492 359.889C126.148 359.732 125.859 359.494 125.625 359.174H125.555C125.602 359.549 125.625 359.904 125.625 360.24V362.883H124.652V353.578H125.443L125.578 354.457H125.625C125.875 354.105 126.166 353.852 126.498 353.695C126.83 353.539 127.211 353.461 127.641 353.461C128.492 353.461 129.148 353.752 129.609 354.334C130.074 354.916 130.307 355.732 130.307 356.783C130.307 357.838 130.07 358.658 129.598 359.244C129.129 359.826 128.477 360.117 127.641 360.117ZM127.5 354.287C126.844 354.287 126.369 354.469 126.076 354.832C125.783 355.195 125.633 355.773 125.625 356.566V356.783C125.625 357.686 125.775 358.332 126.076 358.723C126.377 359.109 126.859 359.303 127.523 359.303C128.078 359.303 128.512 359.078 128.824 358.629C129.141 358.18 129.299 357.561 129.299 356.771C129.299 355.971 129.141 355.357 128.824 354.932C128.512 354.502 128.07 354.287 127.5 354.287ZM135.961 360L135.768 359.086H135.721C135.4 359.488 135.08 359.762 134.76 359.906C134.443 360.047 134.047 360.117 133.57 360.117C132.934 360.117 132.434 359.953 132.07 359.625C131.711 359.297 131.531 358.83 131.531 358.225C131.531 356.928 132.568 356.248 134.643 356.186L135.732 356.15V355.752C135.732 355.248 135.623 354.877 135.404 354.639C135.189 354.396 134.844 354.275 134.367 354.275C133.832 354.275 133.227 354.439 132.551 354.768L132.252 354.023C132.568 353.852 132.914 353.717 133.289 353.619C133.668 353.521 134.047 353.473 134.426 353.473C135.191 353.473 135.758 353.643 136.125 353.982C136.496 354.322 136.682 354.867 136.682 355.617V360H135.961ZM133.764 359.314C134.369 359.314 134.844 359.148 135.188 358.816C135.535 358.484 135.709 358.02 135.709 357.422V356.842L134.736 356.883C133.963 356.91 133.404 357.031 133.061 357.246C132.721 357.457 132.551 357.787 132.551 358.236C132.551 358.588 132.656 358.855 132.867 359.039C133.082 359.223 133.381 359.314 133.764 359.314ZM141.258 360.117C140.328 360.117 139.607 359.832 139.096 359.262C138.588 358.688 138.334 357.877 138.334 356.83C138.334 355.756 138.592 354.926 139.107 354.34C139.627 353.754 140.365 353.461 141.322 353.461C141.631 353.461 141.939 353.494 142.248 353.561C142.557 353.627 142.799 353.705 142.975 353.795L142.676 354.621C142.461 354.535 142.227 354.465 141.973 354.41C141.719 354.352 141.494 354.322 141.299 354.322C139.994 354.322 139.342 355.154 139.342 356.818C139.342 357.607 139.5 358.213 139.816 358.635C140.137 359.057 140.609 359.268 141.234 359.268C141.77 359.268 142.318 359.152 142.881 358.922V359.783C142.451 360.006 141.91 360.117 141.258 360.117ZM147.123 360.117C146.174 360.117 145.424 359.828 144.873 359.25C144.326 358.672 144.053 357.869 144.053 356.842C144.053 355.807 144.307 354.984 144.814 354.375C145.326 353.766 146.012 353.461 146.871 353.461C147.676 353.461 148.312 353.727 148.781 354.258C149.25 354.785 149.484 355.482 149.484 356.35V356.965H145.061C145.08 357.719 145.27 358.291 145.629 358.682C145.992 359.072 146.502 359.268 147.158 359.268C147.85 359.268 148.533 359.123 149.209 358.834V359.701C148.865 359.85 148.539 359.955 148.23 360.018C147.926 360.084 147.557 360.117 147.123 360.117ZM146.859 354.275C146.344 354.275 145.932 354.443 145.623 354.779C145.318 355.115 145.139 355.58 145.084 356.174H148.441C148.441 355.561 148.305 355.092 148.031 354.768C147.758 354.439 147.367 354.275 146.859 354.275ZM151.008 359.379C151.008 359.117 151.066 358.92 151.184 358.787C151.305 358.65 151.477 358.582 151.699 358.582C151.926 358.582 152.102 358.65 152.227 358.787C152.355 358.92 152.42 359.117 152.42 359.379C152.42 359.633 152.355 359.828 152.227 359.965C152.098 360.102 151.922 360.17 151.699 360.17C151.5 360.17 151.334 360.109 151.201 359.988C151.072 359.863 151.008 359.66 151.008 359.379Z" fill="#5D6F7A"/>
<path d="M363.814 344H362.818V336.318H360.105V335.434H366.527V336.318H363.814V344ZM372.07 344V339.846C372.07 339.322 371.951 338.932 371.713 338.674C371.475 338.416 371.102 338.287 370.594 338.287C369.918 338.287 369.424 338.471 369.111 338.838C368.803 339.205 368.648 339.807 368.648 340.643V344H367.676V334.883H368.648V337.643C368.648 337.975 368.633 338.25 368.602 338.469H368.66C368.852 338.16 369.123 337.918 369.475 337.742C369.83 337.562 370.234 337.473 370.688 337.473C371.473 337.473 372.061 337.66 372.451 338.035C372.846 338.406 373.043 338.998 373.043 339.811V344H372.07ZM377.76 344.117C376.811 344.117 376.061 343.828 375.51 343.25C374.963 342.672 374.689 341.869 374.689 340.842C374.689 339.807 374.943 338.984 375.451 338.375C375.963 337.766 376.648 337.461 377.508 337.461C378.312 337.461 378.949 337.727 379.418 338.258C379.887 338.785 380.121 339.482 380.121 340.35V340.965H375.697C375.717 341.719 375.906 342.291 376.266 342.682C376.629 343.072 377.139 343.268 377.795 343.268C378.486 343.268 379.17 343.123 379.846 342.834V343.701C379.502 343.85 379.176 343.955 378.867 344.018C378.562 344.084 378.193 344.117 377.76 344.117ZM377.496 338.275C376.98 338.275 376.568 338.443 376.26 338.779C375.955 339.115 375.775 339.58 375.721 340.174H379.078C379.078 339.561 378.941 339.092 378.668 338.768C378.395 338.439 378.004 338.275 377.496 338.275ZM385.863 340.713C386.031 340.475 386.287 340.162 386.631 339.775L388.705 337.578H389.859L387.258 340.314L390.041 344H388.863L386.596 340.965L385.863 341.598V344H384.902V334.883H385.863V339.717C385.863 339.932 385.848 340.264 385.816 340.713H385.863ZM393.92 344.117C392.971 344.117 392.221 343.828 391.67 343.25C391.123 342.672 390.85 341.869 390.85 340.842C390.85 339.807 391.104 338.984 391.611 338.375C392.123 337.766 392.809 337.461 393.668 337.461C394.473 337.461 395.109 337.727 395.578 338.258C396.047 338.785 396.281 339.482 396.281 340.35V340.965H391.857C391.877 341.719 392.066 342.291 392.426 342.682C392.789 343.072 393.299 343.268 393.955 343.268C394.646 343.268 395.33 343.123 396.006 342.834V343.701C395.662 343.85 395.336 343.955 395.027 344.018C394.723 344.084 394.354 344.117 393.92 344.117ZM393.656 338.275C393.141 338.275 392.729 338.443 392.42 338.779C392.115 339.115 391.936 339.58 391.881 340.174H395.238C395.238 339.561 395.102 339.092 394.828 338.768C394.555 338.439 394.164 338.275 393.656 338.275ZM400.934 337.473C401.777 337.473 402.432 337.762 402.896 338.34C403.365 338.914 403.6 339.729 403.6 340.783C403.6 341.838 403.363 342.658 402.891 343.244C402.422 343.826 401.77 344.117 400.934 344.117C400.516 344.117 400.133 344.041 399.785 343.889C399.441 343.732 399.152 343.494 398.918 343.174H398.848L398.643 344H397.945V334.883H398.918V337.098C398.918 337.594 398.902 338.039 398.871 338.434H398.918C399.371 337.793 400.043 337.473 400.934 337.473ZM400.793 338.287C400.129 338.287 399.65 338.479 399.357 338.861C399.064 339.24 398.918 339.881 398.918 340.783C398.918 341.686 399.068 342.332 399.369 342.723C399.67 343.109 400.152 343.303 400.816 343.303C401.414 343.303 401.859 343.086 402.152 342.652C402.445 342.215 402.592 341.588 402.592 340.771C402.592 339.936 402.445 339.312 402.152 338.902C401.859 338.492 401.406 338.287 400.793 338.287ZM409.254 344L409.061 343.086H409.014C408.693 343.488 408.373 343.762 408.053 343.906C407.736 344.047 407.34 344.117 406.863 344.117C406.227 344.117 405.727 343.953 405.363 343.625C405.004 343.297 404.824 342.83 404.824 342.225C404.824 340.928 405.861 340.248 407.936 340.186L409.025 340.15V339.752C409.025 339.248 408.916 338.877 408.697 338.639C408.482 338.396 408.137 338.275 407.66 338.275C407.125 338.275 406.52 338.439 405.844 338.768L405.545 338.023C405.861 337.852 406.207 337.717 406.582 337.619C406.961 337.521 407.34 337.473 407.719 337.473C408.484 337.473 409.051 337.643 409.418 337.982C409.789 338.322 409.975 338.867 409.975 339.617V344H409.254ZM407.057 343.314C407.662 343.314 408.137 343.148 408.48 342.816C408.828 342.484 409.002 342.02 409.002 341.422V340.842L408.029 340.883C407.256 340.91 406.697 341.031 406.354 341.246C406.014 341.457 405.844 341.787 405.844 342.236C405.844 342.588 405.949 342.855 406.16 343.039C406.375 343.223 406.674 343.314 407.057 343.314ZM414.973 337.473C415.816 337.473 416.471 337.762 416.936 338.34C417.404 338.914 417.639 339.729 417.639 340.783C417.639 341.838 417.402 342.658 416.93 343.244C416.461 343.826 415.809 344.117 414.973 344.117C414.555 344.117 414.172 344.041 413.824 343.889C413.48 343.732 413.191 343.494 412.957 343.174H412.887L412.682 344H411.984V334.883H412.957V337.098C412.957 337.594 412.941 338.039 412.91 338.434H412.957C413.41 337.793 414.082 337.473 414.973 337.473ZM414.832 338.287C414.168 338.287 413.689 338.479 413.396 338.861C413.104 339.24 412.957 339.881 412.957 340.783C412.957 341.686 413.107 342.332 413.408 342.723C413.709 343.109 414.191 343.303 414.855 343.303C415.453 343.303 415.898 343.086 416.191 342.652C416.484 342.215 416.631 341.588 416.631 340.771C416.631 339.936 416.484 339.312 416.191 338.902C415.898 338.492 415.445 338.287 414.832 338.287ZM425.027 344.117C424.098 344.117 423.377 343.832 422.865 343.262C422.357 342.688 422.104 341.877 422.104 340.83C422.104 339.756 422.361 338.926 422.877 338.34C423.396 337.754 424.135 337.461 425.092 337.461C425.4 337.461 425.709 337.494 426.018 337.561C426.326 337.627 426.568 337.705 426.744 337.795L426.445 338.621C426.23 338.535 425.996 338.465 425.742 338.41C425.488 338.352 425.264 338.322 425.068 338.322C423.764 338.322 423.111 339.154 423.111 340.818C423.111 341.607 423.27 342.213 423.586 342.635C423.906 343.057 424.379 343.268 425.004 343.268C425.539 343.268 426.088 343.152 426.65 342.922V343.783C426.221 344.006 425.68 344.117 425.027 344.117ZM432.129 344L431.936 343.086H431.889C431.568 343.488 431.248 343.762 430.928 343.906C430.611 344.047 430.215 344.117 429.738 344.117C429.102 344.117 428.602 343.953 428.238 343.625C427.879 343.297 427.699 342.83 427.699 342.225C427.699 340.928 428.736 340.248 430.811 340.186L431.9 340.15V339.752C431.9 339.248 431.791 338.877 431.572 338.639C431.357 338.396 431.012 338.275 430.535 338.275C430 338.275 429.395 338.439 428.719 338.768L428.42 338.023C428.736 337.852 429.082 337.717 429.457 337.619C429.836 337.521 430.215 337.473 430.594 337.473C431.359 337.473 431.926 337.643 432.293 337.982C432.664 338.322 432.85 338.867 432.85 339.617V344H432.129ZM429.932 343.314C430.537 343.314 431.012 343.148 431.355 342.816C431.703 342.484 431.877 342.02 431.877 341.422V340.842L430.904 340.883C430.131 340.91 429.572 341.031 429.229 341.246C428.889 341.457 428.719 341.787 428.719 342.236C428.719 342.588 428.824 342.855 429.035 343.039C429.25 343.223 429.549 343.314 429.932 343.314ZM439.254 344V339.846C439.254 339.322 439.135 338.932 438.896 338.674C438.658 338.416 438.285 338.287 437.777 338.287C437.105 338.287 436.613 338.469 436.301 338.832C435.988 339.195 435.832 339.795 435.832 340.631V344H434.859V337.578H435.65L435.809 338.457H435.855C436.055 338.141 436.334 337.896 436.693 337.725C437.053 337.549 437.453 337.461 437.895 337.461C438.668 337.461 439.25 337.648 439.641 338.023C440.031 338.395 440.227 338.99 440.227 339.811V344H439.254ZM449.297 344L449.104 343.086H449.057C448.736 343.488 448.416 343.762 448.096 343.906C447.779 344.047 447.383 344.117 446.906 344.117C446.27 344.117 445.77 343.953 445.406 343.625C445.047 343.297 444.867 342.83 444.867 342.225C444.867 340.928 445.904 340.248 447.979 340.186L449.068 340.15V339.752C449.068 339.248 448.959 338.877 448.74 338.639C448.525 338.396 448.18 338.275 447.703 338.275C447.168 338.275 446.562 338.439 445.887 338.768L445.588 338.023C445.904 337.852 446.25 337.717 446.625 337.619C447.004 337.521 447.383 337.473 447.762 337.473C448.527 337.473 449.094 337.643 449.461 337.982C449.832 338.322 450.018 338.867 450.018 339.617V344H449.297ZM447.1 343.314C447.705 343.314 448.18 343.148 448.523 342.816C448.871 342.484 449.045 342.02 449.045 341.422V340.842L448.072 340.883C447.299 340.91 446.74 341.031 446.396 341.246C446.057 341.457 445.887 341.787 445.887 342.236C445.887 342.588 445.992 342.855 446.203 343.039C446.418 343.223 446.717 343.314 447.1 343.314ZM453 344H452.027V334.883H453V344ZM459.205 342.248C459.205 342.846 458.982 343.307 458.537 343.631C458.092 343.955 457.467 344.117 456.662 344.117C455.811 344.117 455.146 343.982 454.67 343.713V342.811C454.979 342.967 455.309 343.09 455.66 343.18C456.016 343.27 456.357 343.314 456.686 343.314C457.193 343.314 457.584 343.234 457.857 343.074C458.131 342.91 458.268 342.662 458.268 342.33C458.268 342.08 458.158 341.867 457.939 341.691C457.725 341.512 457.303 341.301 456.674 341.059C456.076 340.836 455.65 340.643 455.396 340.479C455.146 340.311 454.959 340.121 454.834 339.91C454.713 339.699 454.652 339.447 454.652 339.154C454.652 338.631 454.865 338.219 455.291 337.918C455.717 337.613 456.301 337.461 457.043 337.461C457.734 337.461 458.41 337.602 459.07 337.883L458.725 338.674C458.08 338.408 457.496 338.275 456.973 338.275C456.512 338.275 456.164 338.348 455.93 338.492C455.695 338.637 455.578 338.836 455.578 339.09C455.578 339.262 455.621 339.408 455.707 339.529C455.797 339.65 455.939 339.766 456.135 339.875C456.33 339.984 456.705 340.143 457.26 340.35C458.021 340.627 458.535 340.906 458.801 341.188C459.07 341.469 459.205 341.822 459.205 342.248ZM466.336 340.783C466.336 341.83 466.072 342.648 465.545 343.238C465.018 343.824 464.289 344.117 463.359 344.117C462.785 344.117 462.275 343.982 461.83 343.713C461.385 343.443 461.041 343.057 460.799 342.553C460.557 342.049 460.436 341.459 460.436 340.783C460.436 339.736 460.697 338.922 461.221 338.34C461.744 337.754 462.471 337.461 463.4 337.461C464.299 337.461 465.012 337.76 465.539 338.357C466.07 338.955 466.336 339.764 466.336 340.783ZM461.443 340.783C461.443 341.604 461.607 342.229 461.936 342.658C462.264 343.088 462.746 343.303 463.383 343.303C464.02 343.303 464.502 343.09 464.83 342.664C465.162 342.234 465.328 341.607 465.328 340.783C465.328 339.967 465.162 339.348 464.83 338.926C464.502 338.5 464.016 338.287 463.371 338.287C462.734 338.287 462.254 338.496 461.93 338.914C461.605 339.332 461.443 339.955 461.443 340.783ZM474.152 337.473C474.996 337.473 475.65 337.762 476.115 338.34C476.584 338.914 476.818 339.729 476.818 340.783C476.818 341.838 476.582 342.658 476.109 343.244C475.641 343.826 474.988 344.117 474.152 344.117C473.734 344.117 473.352 344.041 473.004 343.889C472.66 343.732 472.371 343.494 472.137 343.174H472.066L471.861 344H471.164V334.883H472.137V337.098C472.137 337.594 472.121 338.039 472.09 338.434H472.137C472.59 337.793 473.262 337.473 474.152 337.473ZM474.012 338.287C473.348 338.287 472.869 338.479 472.576 338.861C472.283 339.24 472.137 339.881 472.137 340.783C472.137 341.686 472.287 342.332 472.588 342.723C472.889 343.109 473.371 343.303 474.035 343.303C474.633 343.303 475.078 343.086 475.371 342.652C475.664 342.215 475.811 341.588 475.811 340.771C475.811 339.936 475.664 339.312 475.371 338.902C475.078 338.492 474.625 338.287 474.012 338.287ZM481.236 344.117C480.287 344.117 479.537 343.828 478.986 343.25C478.439 342.672 478.166 341.869 478.166 340.842C478.166 339.807 478.42 338.984 478.928 338.375C479.439 337.766 480.125 337.461 480.984 337.461C481.789 337.461 482.426 337.727 482.895 338.258C483.363 338.785 483.598 339.482 483.598 340.35V340.965H479.174C479.193 341.719 479.383 342.291 479.742 342.682C480.105 343.072 480.615 343.268 481.271 343.268C481.963 343.268 482.646 343.123 483.322 342.834V343.701C482.979 343.85 482.652 343.955 482.344 344.018C482.039 344.084 481.67 344.117 481.236 344.117ZM480.973 338.275C480.457 338.275 480.045 338.443 479.736 338.779C479.432 339.115 479.252 339.58 479.197 340.174H482.555C482.555 339.561 482.418 339.092 482.145 338.768C481.871 338.439 481.48 338.275 480.973 338.275ZM489.293 337.578V341.744C489.293 342.268 489.412 342.658 489.65 342.916C489.889 343.174 490.262 343.303 490.77 343.303C491.441 343.303 491.932 343.119 492.24 342.752C492.553 342.385 492.709 341.785 492.709 340.953V337.578H493.682V344H492.879L492.738 343.139H492.686C492.486 343.455 492.209 343.697 491.854 343.865C491.502 344.033 491.1 344.117 490.646 344.117C489.865 344.117 489.279 343.932 488.889 343.561C488.502 343.189 488.309 342.596 488.309 341.779V337.578H489.293ZM499.893 342.248C499.893 342.846 499.67 343.307 499.225 343.631C498.779 343.955 498.154 344.117 497.35 344.117C496.498 344.117 495.834 343.982 495.357 343.713V342.811C495.666 342.967 495.996 343.09 496.348 343.18C496.703 343.27 497.045 343.314 497.373 343.314C497.881 343.314 498.271 343.234 498.545 343.074C498.818 342.91 498.955 342.662 498.955 342.33C498.955 342.08 498.846 341.867 498.627 341.691C498.412 341.512 497.99 341.301 497.361 341.059C496.764 340.836 496.338 340.643 496.084 340.479C495.834 340.311 495.646 340.121 495.521 339.91C495.4 339.699 495.34 339.447 495.34 339.154C495.34 338.631 495.553 338.219 495.979 337.918C496.404 337.613 496.988 337.461 497.73 337.461C498.422 337.461 499.098 337.602 499.758 337.883L499.412 338.674C498.768 338.408 498.184 338.275 497.66 338.275C497.199 338.275 496.852 338.348 496.617 338.492C496.383 338.637 496.266 338.836 496.266 339.09C496.266 339.262 496.309 339.408 496.395 339.529C496.484 339.65 496.627 339.766 496.822 339.875C497.018 339.984 497.393 340.143 497.947 340.35C498.709 340.627 499.223 340.906 499.488 341.188C499.758 341.469 499.893 341.822 499.893 342.248ZM504.193 344.117C503.244 344.117 502.494 343.828 501.943 343.25C501.396 342.672 501.123 341.869 501.123 340.842C501.123 339.807 501.377 338.984 501.885 338.375C502.396 337.766 503.082 337.461 503.941 337.461C504.746 337.461 505.383 337.727 505.852 338.258C506.32 338.785 506.555 339.482 506.555 340.35V340.965H502.131C502.15 341.719 502.34 342.291 502.699 342.682C503.062 343.072 503.572 343.268 504.229 343.268C504.92 343.268 505.604 343.123 506.279 342.834V343.701C505.936 343.85 505.609 343.955 505.301 344.018C504.996 344.084 504.627 344.117 504.193 344.117ZM503.93 338.275C503.414 338.275 503.002 338.443 502.693 338.779C502.389 339.115 502.209 339.58 502.154 340.174H505.512C505.512 339.561 505.375 339.092 505.102 338.768C504.828 338.439 504.438 338.275 503.93 338.275ZM512.59 343.139H512.537C512.088 343.791 511.416 344.117 510.521 344.117C509.682 344.117 509.027 343.83 508.559 343.256C508.094 342.682 507.861 341.865 507.861 340.807C507.861 339.748 508.096 338.926 508.564 338.34C509.033 337.754 509.686 337.461 510.521 337.461C511.393 337.461 512.061 337.777 512.525 338.41H512.602L512.561 337.947L512.537 337.496V334.883H513.51V344H512.719L512.59 343.139ZM510.645 343.303C511.309 343.303 511.789 343.123 512.086 342.764C512.387 342.4 512.537 341.816 512.537 341.012V340.807C512.537 339.896 512.385 339.248 512.08 338.861C511.779 338.471 511.297 338.275 510.633 338.275C510.062 338.275 509.625 338.498 509.32 338.943C509.02 339.385 508.869 340.01 508.869 340.818C508.869 341.639 509.02 342.258 509.32 342.676C509.621 343.094 510.062 343.303 510.645 343.303ZM521.59 338.334H519.955V344H518.982V338.334H517.834V337.895L518.982 337.543V337.186C518.982 335.607 519.672 334.818 521.051 334.818C521.391 334.818 521.789 334.887 522.246 335.023L521.994 335.803C521.619 335.682 521.299 335.621 521.033 335.621C520.666 335.621 520.395 335.744 520.219 335.99C520.043 336.232 519.955 336.623 519.955 337.162V337.578H521.59V338.334ZM528.305 340.783C528.305 341.83 528.041 342.648 527.514 343.238C526.986 343.824 526.258 344.117 525.328 344.117C524.754 344.117 524.244 343.982 523.799 343.713C523.354 343.443 523.01 343.057 522.768 342.553C522.525 342.049 522.404 341.459 522.404 340.783C522.404 339.736 522.666 338.922 523.189 338.34C523.713 337.754 524.439 337.461 525.369 337.461C526.268 337.461 526.98 337.76 527.508 338.357C528.039 338.955 528.305 339.764 528.305 340.783ZM523.412 340.783C523.412 341.604 523.576 342.229 523.904 342.658C524.232 343.088 524.715 343.303 525.352 343.303C525.988 343.303 526.471 343.09 526.799 342.664C527.131 342.234 527.297 341.607 527.297 340.783C527.297 339.967 527.131 339.348 526.799 338.926C526.471 338.5 525.984 338.287 525.34 338.287C524.703 338.287 524.223 338.496 523.898 338.914C523.574 339.332 523.412 339.955 523.412 340.783ZM532.945 337.461C533.23 337.461 533.486 337.484 533.713 337.531L533.578 338.434C533.312 338.375 533.078 338.346 532.875 338.346C532.355 338.346 531.91 338.557 531.539 338.979C531.172 339.4 530.988 339.926 530.988 340.555V344H530.016V337.578H530.818L530.93 338.768H530.977C531.215 338.35 531.502 338.027 531.838 337.801C532.174 337.574 532.543 337.461 532.945 337.461ZM540.105 343.314C540.277 343.314 540.443 343.303 540.604 343.279C540.764 343.252 540.891 343.225 540.984 343.197V343.941C540.879 343.992 540.723 344.033 540.516 344.064C540.312 344.1 540.129 344.117 539.965 344.117C538.723 344.117 538.102 343.463 538.102 342.154V338.334H537.182V337.865L538.102 337.461L538.512 336.09H539.074V337.578H540.938V338.334H539.074V342.113C539.074 342.5 539.166 342.797 539.35 343.004C539.533 343.211 539.785 343.314 540.105 343.314ZM546.668 344V339.846C546.668 339.322 546.549 338.932 546.311 338.674C546.072 338.416 545.699 338.287 545.191 338.287C544.516 338.287 544.021 338.471 543.709 338.838C543.4 339.205 543.246 339.807 543.246 340.643V344H542.273V334.883H543.246V337.643C543.246 337.975 543.23 338.25 543.199 338.469H543.258C543.449 338.16 543.721 337.918 544.072 337.742C544.428 337.562 544.832 337.473 545.285 337.473C546.07 337.473 546.658 337.66 547.049 338.035C547.443 338.406 547.641 338.998 547.641 339.811V344H546.668ZM550.617 344H549.645V337.578H550.617V344ZM549.562 335.838C549.562 335.615 549.617 335.453 549.727 335.352C549.836 335.246 549.973 335.193 550.137 335.193C550.293 335.193 550.428 335.246 550.541 335.352C550.654 335.457 550.711 335.619 550.711 335.838C550.711 336.057 550.654 336.221 550.541 336.33C550.428 336.436 550.293 336.488 550.137 336.488C549.973 336.488 549.836 336.436 549.727 336.33C549.617 336.221 549.562 336.057 549.562 335.838ZM556.822 342.248C556.822 342.846 556.6 343.307 556.154 343.631C555.709 343.955 555.084 344.117 554.279 344.117C553.428 344.117 552.764 343.982 552.287 343.713V342.811C552.596 342.967 552.926 343.09 553.277 343.18C553.633 343.27 553.975 343.314 554.303 343.314C554.811 343.314 555.201 343.234 555.475 343.074C555.748 342.91 555.885 342.662 555.885 342.33C555.885 342.08 555.775 341.867 555.557 341.691C555.342 341.512 554.92 341.301 554.291 341.059C553.693 340.836 553.268 340.643 553.014 340.479C552.764 340.311 552.576 340.121 552.451 339.91C552.33 339.699 552.27 339.447 552.27 339.154C552.27 338.631 552.482 338.219 552.908 337.918C553.334 337.613 553.918 337.461 554.66 337.461C555.352 337.461 556.027 337.602 556.688 337.883L556.342 338.674C555.697 338.408 555.113 338.275 554.59 338.275C554.129 338.275 553.781 338.348 553.547 338.492C553.312 338.637 553.195 338.836 553.195 339.09C553.195 339.262 553.238 339.408 553.324 339.529C553.414 339.65 553.557 339.766 553.752 339.875C553.947 339.984 554.322 340.143 554.877 340.35C555.639 340.627 556.152 340.906 556.418 341.188C556.688 341.469 556.822 341.822 556.822 342.248ZM564.516 344.117C564.098 344.117 563.715 344.041 563.367 343.889C563.023 343.732 562.734 343.494 562.5 343.174H562.43C562.477 343.549 562.5 343.904 562.5 344.24V346.883H561.527V337.578H562.318L562.453 338.457H562.5C562.75 338.105 563.041 337.852 563.373 337.695C563.705 337.539 564.086 337.461 564.516 337.461C565.367 337.461 566.023 337.752 566.484 338.334C566.949 338.916 567.182 339.732 567.182 340.783C567.182 341.838 566.945 342.658 566.473 343.244C566.004 343.826 565.352 344.117 564.516 344.117ZM564.375 338.287C563.719 338.287 563.244 338.469 562.951 338.832C562.658 339.195 562.508 339.773 562.5 340.566V340.783C562.5 341.686 562.65 342.332 562.951 342.723C563.252 343.109 563.734 343.303 564.398 343.303C564.953 343.303 565.387 343.078 565.699 342.629C566.016 342.18 566.174 341.561 566.174 340.771C566.174 339.971 566.016 339.357 565.699 338.932C565.387 338.502 564.945 338.287 564.375 338.287ZM569.801 337.578V341.744C569.801 342.268 569.92 342.658 570.158 342.916C570.396 343.174 570.77 343.303 571.277 343.303C571.949 343.303 572.439 343.119 572.748 342.752C573.061 342.385 573.217 341.785 573.217 340.953V337.578H574.189V344H573.387L573.246 343.139H573.193C572.994 343.455 572.717 343.697 572.361 343.865C572.01 344.033 571.607 344.117 571.154 344.117C570.373 344.117 569.787 343.932 569.396 343.561C569.01 343.189 568.816 342.596 568.816 341.779V337.578H569.801ZM579.188 337.461C579.473 337.461 579.729 337.484 579.955 337.531L579.82 338.434C579.555 338.375 579.32 338.346 579.117 338.346C578.598 338.346 578.152 338.557 577.781 338.979C577.414 339.4 577.23 339.926 577.23 340.555V344H576.258V337.578H577.061L577.172 338.768H577.219C577.457 338.35 577.744 338.027 578.08 337.801C578.416 337.574 578.785 337.461 579.188 337.461ZM584.145 344.117C583.727 344.117 583.344 344.041 582.996 343.889C582.652 343.732 582.363 343.494 582.129 343.174H582.059C582.105 343.549 582.129 343.904 582.129 344.24V346.883H581.156V337.578H581.947L582.082 338.457H582.129C582.379 338.105 582.67 337.852 583.002 337.695C583.334 337.539 583.715 337.461 584.145 337.461C584.996 337.461 585.652 337.752 586.113 338.334C586.578 338.916 586.811 339.732 586.811 340.783C586.811 341.838 586.574 342.658 586.102 343.244C585.633 343.826 584.98 344.117 584.145 344.117ZM584.004 338.287C583.348 338.287 582.873 338.469 582.58 338.832C582.287 339.195 582.137 339.773 582.129 340.566V340.783C582.129 341.686 582.279 342.332 582.58 342.723C582.881 343.109 583.363 343.303 584.027 343.303C584.582 343.303 585.016 343.078 585.328 342.629C585.645 342.18 585.803 341.561 585.803 340.771C585.803 339.971 585.645 339.357 585.328 338.932C585.016 338.502 584.574 338.287 584.004 338.287ZM594.059 340.783C594.059 341.83 593.795 342.648 593.268 343.238C592.74 343.824 592.012 344.117 591.082 344.117C590.508 344.117 589.998 343.982 589.553 343.713C589.107 343.443 588.764 343.057 588.521 342.553C588.279 342.049 588.158 341.459 588.158 340.783C588.158 339.736 588.42 338.922 588.943 338.34C589.467 337.754 590.193 337.461 591.123 337.461C592.021 337.461 592.734 337.76 593.262 338.357C593.793 338.955 594.059 339.764 594.059 340.783ZM589.166 340.783C589.166 341.604 589.33 342.229 589.658 342.658C589.986 343.088 590.469 343.303 591.105 343.303C591.742 343.303 592.225 343.09 592.553 342.664C592.885 342.234 593.051 341.607 593.051 340.783C593.051 339.967 592.885 339.348 592.553 338.926C592.225 338.5 591.738 338.287 591.094 338.287C590.457 338.287 589.977 338.496 589.652 338.914C589.328 339.332 589.166 339.955 589.166 340.783ZM599.912 342.248C599.912 342.846 599.689 343.307 599.244 343.631C598.799 343.955 598.174 344.117 597.369 344.117C596.518 344.117 595.854 343.982 595.377 343.713V342.811C595.686 342.967 596.016 343.09 596.367 343.18C596.723 343.27 597.064 343.314 597.393 343.314C597.9 343.314 598.291 343.234 598.564 343.074C598.838 342.91 598.975 342.662 598.975 342.33C598.975 342.08 598.865 341.867 598.646 341.691C598.432 341.512 598.01 341.301 597.381 341.059C596.783 340.836 596.357 340.643 596.104 340.479C595.854 340.311 595.666 340.121 595.541 339.91C595.42 339.699 595.359 339.447 595.359 339.154C595.359 338.631 595.572 338.219 595.998 337.918C596.424 337.613 597.008 337.461 597.75 337.461C598.441 337.461 599.117 337.602 599.777 337.883L599.432 338.674C598.787 338.408 598.203 338.275 597.68 338.275C597.219 338.275 596.871 338.348 596.637 338.492C596.402 338.637 596.285 338.836 596.285 339.09C596.285 339.262 596.328 339.408 596.414 339.529C596.504 339.65 596.646 339.766 596.842 339.875C597.037 339.984 597.412 340.143 597.967 340.35C598.729 340.627 599.242 340.906 599.508 341.188C599.777 341.469 599.912 341.822 599.912 342.248ZM604.213 344.117C603.264 344.117 602.514 343.828 601.963 343.25C601.416 342.672 601.143 341.869 601.143 340.842C601.143 339.807 601.396 338.984 601.904 338.375C602.416 337.766 603.102 337.461 603.961 337.461C604.766 337.461 605.402 337.727 605.871 338.258C606.34 338.785 606.574 339.482 606.574 340.35V340.965H602.15C602.17 341.719 602.359 342.291 602.719 342.682C603.082 343.072 603.592 343.268 604.248 343.268C604.939 343.268 605.623 343.123 606.299 342.834V343.701C605.955 343.85 605.629 343.955 605.32 344.018C605.016 344.084 604.646 344.117 604.213 344.117ZM603.949 338.275C603.434 338.275 603.021 338.443 602.713 338.779C602.408 339.115 602.229 339.58 602.174 340.174H605.531C605.531 339.561 605.395 339.092 605.121 338.768C604.848 338.439 604.457 338.275 603.949 338.275ZM608.098 343.379C608.098 343.117 608.156 342.92 608.273 342.787C608.395 342.65 608.566 342.582 608.789 342.582C609.016 342.582 609.191 342.65 609.316 342.787C609.445 342.92 609.51 343.117 609.51 343.379C609.51 343.633 609.445 343.828 609.316 343.965C609.188 344.102 609.012 344.17 608.789 344.17C608.59 344.17 608.424 344.109 608.291 343.988C608.162 343.863 608.098 343.66 608.098 343.379Z" fill="#5D6F7A"/>
<g filter="url(#filter0_i)">
<rect width="320" height="320" transform="matrix(1 0 0 -1 0 320)" fill="#F5F8FA"/>
</g>
<g filter="url(#filter1_i)">
<rect width="320" height="320" transform="matrix(1 0 0 -1 360 320)" fill="#F5F8FA"/>
</g>
<path fill-rule="evenodd" clip-rule="evenodd" d="M160 164C157.791 164 156 162.209 156 160C156 157.791 157.791 156 160 156C162.209 156 164 157.791 164 160C164 162.209 162.209 164 160 164ZM148 164C145.791 164 144 162.209 144 160C144 157.791 145.791 156 148 156C150.209 156 152 157.791 152 160C152 162.209 150.209 164 148 164ZM172 164C169.791 164 168 162.209 168 160C168 157.791 169.791 156 172 156C174.209 156 176 157.791 176 160C176 162.209 174.209 164 172 164Z" fill="#222629"/>
<path fill-rule="evenodd" clip-rule="evenodd" d="M520 164C517.791 164 516 162.209 516 160C516 157.791 517.791 156 520 156C522.209 156 524 157.791 524 160C524 162.209 522.209 164 520 164ZM520 152C517.791 152 516 150.209 516 148C516 145.791 517.791 144 520 144C522.209 144 524 145.791 524 148C524 150.209 522.209 152 520 152ZM520 176C517.791 176 516 174.209 516 172C516 169.791 517.791 168 520 168C522.209 168 524 169.791 524 172C524 174.209 522.209 176 520 176Z" fill="#222629"/>
<defs>
<filter id="filter0_i" x="0" y="0" width="320" height="320" filterUnits="userSpaceOnUse" color-interpolation-filters="sRGB">
<feFlood flood-opacity="0" result="BackgroundImageFix"/>
<feBlend mode="normal" in="SourceGraphic" in2="BackgroundImageFix" result="shape"/>
<feColorMatrix in="SourceAlpha" type="matrix" values="0 0 0 0 0 0 0 0 0 0 0 0 0 0 0 0 0 0 127 0" result="hardAlpha"/>
<feOffset dy="-4"/>
<feComposite in2="hardAlpha" operator="arithmetic" k2="-1" k3="1"/>
<feColorMatrix type="matrix" values="0 0 0 0 0.027451 0 0 0 0 0.639216 0 0 0 0 0.270588 0 0 0 1 0"/>
<feBlend mode="normal" in2="shape" result="effect1_innerShadow"/>
</filter>
<filter id="filter1_i" x="360" y="0" width="320" height="320" filterUnits="userSpaceOnUse" color-interpolation-filters="sRGB">
<feFlood flood-opacity="0" result="BackgroundImageFix"/>
<feBlend mode="normal" in="SourceGraphic" in2="BackgroundImageFix" result="shape"/>
<feColorMatrix in="SourceAlpha" type="matrix" values="0 0 0 0 0 0 0 0 0 0 0 0 0 0 0 0 0 0 127 0" result="hardAlpha"/>
<feOffset dy="-4"/>
<feComposite in2="hardAlpha" operator="arithmetic" k2="-1" k3="1"/>
<feColorMatrix type="matrix" values="0 0 0 0 0.027451 0 0 0 0 0.639216 0 0 0 0 0.270588 0 0 0 1 0"/>
<feBlend mode="normal" in2="shape" result="effect1_innerShadow"/>
</filter>
</defs>
</svg>
