<?xml version="1.0" encoding="UTF-8"?>
<svg width="12px" height="12px" viewBox="0 0 12 12" version="1.1" xmlns="http://www.w3.org/2000/svg" xmlns:xlink="http://www.w3.org/1999/xlink">
    <!-- Generator: Sketch 54.1 (76490) - https://sketchapp.com -->
    <title>Icons/12px/Kebab Vertical</title>
    <desc>Created with Sketch.</desc>
    <defs>
        <path d="M5.99999984,3.33333335 C5.26362017,3.33333335 4.66666651,2.73637969 4.66666651,2.00000002 C4.66666651,1.26362035 5.26362017,0.666666687 5.99999984,0.666666687 C6.73637951,0.666666687 7.33333317,1.26362035 7.33333317,2.00000002 C7.33333317,2.73637969 6.73637951,3.33333335 5.99999984,3.33333335 Z M5.99999984,7.33333335 C5.26362017,7.33333335 4.66666651,6.73637969 4.66666651,6.00000002 C4.66666651,5.26362035 5.26362017,4.66666669 5.99999984,4.66666669 C6.73637951,4.66666669 7.33333317,5.26362035 7.33333317,6.00000002 C7.33333317,6.73637969 6.73637951,7.33333335 5.99999984,7.33333335 Z M5.99999984,11.3333334 C5.26362017,11.3333334 4.66666651,10.7363797 4.66666651,10 C4.66666651,9.26362035 5.26362017,8.66666669 5.99999984,8.66666669 C6.73637951,8.66666669 7.33333317,9.26362035 7.33333317,10 C7.33333317,10.7363797 6.73637951,11.3333334 5.99999984,11.3333334 Z" id="path-1"></path>
    </defs>
    <g id="Icons/12px/Kebab-Vertical" stroke="none" stroke-width="1" fill="none" fill-rule="evenodd">
        <mask id="mask-2" fill="white">
            <use xlink:href="#path-1"></use>
        </mask>
        <use id="i-12-kebab" fill="#818F99" xlink:href="#path-1"></use>
    </g>
</svg>